<svg width="20" height="20" viewBox="0 0 20 20" fill="none" xmlns="http://www.w3.org/2000/svg">
<path d="M11.9146 0.154717C14.0934 0.638889 15.901 1.75249 17.3373 3.49551C18.7737 5.23853 19.4919 7.28012 19.4919 9.62029C19.4919 11.0889 19.1972 12.4446 18.6078 13.6873C18.0191 14.9301 17.2163 15.9952 16.1995 16.8829H17.5552C17.8296 16.8829 18.0594 16.9758 18.2447 17.1618C18.4306 17.347 18.5236 17.5769 18.5236 17.8512C18.5236 18.1256 18.4306 18.3554 18.2447 18.5407C18.0594 18.7266 17.8296 18.8196 17.5552 18.8196H13.6818C13.4075 18.8196 13.1776 18.7266 12.9924 18.5407C12.8065 18.3554 12.7135 18.1256 12.7135 17.8512V13.9778C12.7135 13.7035 12.8065 13.4733 12.9924 13.2874C13.1776 13.1021 13.4075 13.0095 13.6818 13.0095C13.9562 13.0095 14.186 13.1021 14.3713 13.2874C14.5572 13.4733 14.6502 13.7035 14.6502 13.9778V15.6482C15.5378 14.922 16.2441 14.0424 16.7689 13.0095C17.2931 11.9766 17.5552 10.8469 17.5552 9.62029C17.5552 7.7643 16.9865 6.14619 15.849 4.76598C14.7109 3.38641 13.2784 2.49488 11.5515 2.09141C11.3255 2.04299 11.1399 1.93002 10.9947 1.75249C10.8494 1.57496 10.7768 1.37322 10.7768 1.14727C10.7768 0.824489 10.8898 0.558194 11.1157 0.348386C11.3417 0.138578 11.608 0.0740214 11.9146 0.154717ZM7.7023 19.0859C5.52353 18.6017 3.71595 17.4881 2.27957 15.7451C0.843189 14.0021 0.125 11.9605 0.125 9.62029C0.125 8.15164 0.4197 6.79595 1.0091 5.55324C1.59785 4.31053 2.40061 3.24535 3.41737 2.3577H2.06169C1.78733 2.3577 1.55751 2.26474 1.37223 2.07882C1.18631 1.89354 1.09335 1.66372 1.09335 1.38936C1.09335 1.11499 1.18631 0.884849 1.37223 0.698927C1.55751 0.51365 1.78733 0.421012 2.06169 0.421012H5.93507C6.20944 0.421012 6.43958 0.51365 6.6255 0.698927C6.81078 0.884849 6.90342 1.11499 6.90342 1.38936V5.26274C6.90342 5.5371 6.81078 5.76725 6.6255 5.95317C6.43958 6.13845 6.20944 6.23108 5.93507 6.23108C5.66071 6.23108 5.43056 6.13845 5.24464 5.95317C5.05937 5.76725 4.96673 5.5371 4.96673 5.26274V3.59234C4.07908 4.30246 3.37283 5.17817 2.84799 6.21946C2.32379 7.26011 2.06169 8.39372 2.06169 9.62029C2.06169 11.4763 2.63075 13.0941 3.76888 14.4736C4.90637 15.8539 6.33855 16.7457 8.06543 17.1492C8.29138 17.1976 8.47698 17.3106 8.62223 17.4881C8.76748 17.6656 8.84011 17.8674 8.84011 18.0933C8.84011 18.4161 8.72713 18.6824 8.50119 18.8922C8.27524 19.102 8.00894 19.1666 7.7023 19.0859ZM8.42856 13.6631C8.29945 13.6631 8.1784 13.6431 8.06543 13.6031C7.95246 13.5624 7.84755 13.4937 7.75072 13.3968L5.01514 10.6371C4.83761 10.4595 4.74498 10.2375 4.73723 9.97083C4.72884 9.70486 4.82148 9.47504 5.01514 9.28137C5.19267 9.10384 5.41862 9.01508 5.69299 9.01508C5.96735 9.01508 6.1933 9.10384 6.37083 9.28137L8.42856 11.3391L13.2461 6.52159C13.4397 6.32792 13.6657 6.23496 13.9239 6.2427C14.1821 6.2511 14.4081 6.35213 14.6018 6.5458C14.7793 6.73946 14.8723 6.96541 14.8806 7.22364C14.8884 7.48186 14.7954 7.70781 14.6018 7.90148L9.1064 13.3968C9.00957 13.4937 8.90466 13.5624 8.79169 13.6031C8.67872 13.6431 8.55767 13.6631 8.42856 13.6631Z" fill="white"/>
</svg>
