<svg width="15" height="20" viewBox="0 0 15 20" fill="none" xmlns="http://www.w3.org/2000/svg">
<path d="M1.875 19.6875C1.35938 19.6875 0.918125 19.5041 0.55125 19.1372C0.18375 18.7697 0 18.3281 0 17.8125V8.4375C0 7.92188 0.18375 7.48031 0.55125 7.11281C0.918125 6.74594 1.35938 6.5625 1.875 6.5625H2.8125V4.6875C2.8125 3.39062 3.26969 2.285 4.18406 1.37062C5.09781 0.456875 6.20312 0 7.5 0C8.79688 0 9.9025 0.456875 10.8169 1.37062C11.7306 2.285 12.1875 3.39062 12.1875 4.6875V6.5625H13.125C13.6406 6.5625 14.0822 6.74594 14.4497 7.11281C14.8166 7.48031 15 7.92188 15 8.4375V17.8125C15 18.3281 14.8166 18.7697 14.4497 19.1372C14.0822 19.5041 13.6406 19.6875 13.125 19.6875H1.875ZM7.5 15C8.01562 15 8.45719 14.8166 8.82469 14.4497C9.19156 14.0822 9.375 13.6406 9.375 13.125C9.375 12.6094 9.19156 12.1678 8.82469 11.8003C8.45719 11.4334 8.01562 11.25 7.5 11.25C6.98438 11.25 6.54313 11.4334 6.17625 11.8003C5.80875 12.1678 5.625 12.6094 5.625 13.125C5.625 13.6406 5.80875 14.0822 6.17625 14.4497C6.54313 14.8166 6.98438 15 7.5 15ZM4.6875 6.5625H10.3125V4.6875C10.3125 3.90625 10.0391 3.24219 9.49219 2.69531C8.94531 2.14844 8.28125 1.875 7.5 1.875C6.71875 1.875 6.05469 2.14844 5.50781 2.69531C4.96094 3.24219 4.6875 3.90625 4.6875 4.6875V6.5625Z" fill="white"/>
</svg>
