<svg width="26" height="26" viewBox="0 0 26 26" fill="none" xmlns="http://www.w3.org/2000/svg">
<path d="M11.9172 19.9875C11.7727 19.9875 11.642 19.9647 11.525 19.9192C11.4073 19.8745 11.2942 19.8069 11.1859 19.7167C10.4095 19.0306 9.79563 18.1772 9.34424 17.1567C8.89285 16.137 8.66716 15.1125 8.66716 14.0833C8.66716 13.0542 8.89285 12.0293 9.34424 11.0088C9.79563 9.98905 10.4005 9.13611 11.1588 8.45C11.2672 8.35972 11.3845 8.2875 11.5109 8.23333C11.6373 8.17917 11.7727 8.15208 11.9172 8.15208C12.0616 8.15208 12.1927 8.17917 12.3104 8.23333C12.4274 8.2875 12.5401 8.35972 12.6484 8.45C13.4248 9.13611 14.0387 9.98905 14.4901 11.0088C14.9415 12.0293 15.1672 13.0542 15.1672 14.0833C15.1672 15.1125 14.9415 16.137 14.4901 17.1567C14.0387 18.1772 13.4338 19.0306 12.6755 19.7167C12.5852 19.8069 12.4725 19.8745 12.3375 19.9192C12.2017 19.9647 12.0616 19.9875 11.9172 19.9875ZM16.2505 21.6667C15.763 21.6667 15.2892 21.6215 14.8292 21.5312C14.3684 21.441 13.9213 21.3056 13.488 21.125C14.4991 20.4569 15.3026 19.4097 15.8984 17.9833C16.4942 16.5569 16.7922 15.2569 16.7922 14.0833C16.7922 12.9097 16.4942 11.6097 15.8984 10.1833C15.3026 8.75694 14.4991 7.70972 13.488 7.04167C13.9213 6.86111 14.3684 6.72569 14.8292 6.63542C15.2892 6.54514 15.763 6.5 16.2505 6.5C18.363 6.5 20.1548 7.23558 21.626 8.70675C23.0979 10.1786 23.8338 11.9708 23.8338 14.0833C23.8338 16.1958 23.0979 17.9877 21.626 19.4588C20.1548 20.9307 18.363 21.6667 16.2505 21.6667ZM7.58382 21.6667C5.47132 21.6667 3.67949 20.9307 2.20832 19.4588C0.736433 17.9877 0.000488281 16.1958 0.000488281 14.0833C0.000488281 11.9708 0.736433 10.1786 2.20832 8.70675C3.67949 7.23558 5.47132 6.5 7.58382 6.5C8.07132 6.5 8.5451 6.54514 9.00516 6.63542C9.46593 6.72569 9.91299 6.86111 10.3463 7.04167C9.33521 7.70972 8.53174 8.75694 7.9359 10.1833C7.34007 11.6097 7.04216 12.9097 7.04216 14.0833C7.04216 15.2569 7.34007 16.5569 7.9359 17.9833C8.53174 19.4097 9.33521 20.4569 10.3463 21.125C9.91299 21.3056 9.46593 21.441 9.00516 21.5312C8.5451 21.6215 8.07132 21.6667 7.58382 21.6667Z" fill="white"/>
</svg>
