<svg width="263" height="346" viewBox="0 0 263 346" fill="none" xmlns="http://www.w3.org/2000/svg">
<g clip-path="url(#clip0_1_7965)">
<rect width="252.288" height="539.944" transform="translate(5)" fill="white"/>
<path d="M28.1057 68.049C30.5107 68.049 32.3145 66.8112 32.3145 64.6714C32.3145 62.4079 30.6168 61.6652 28.7247 61.2054L27.3984 60.8871C26.1075 60.5688 25.294 60.1974 25.294 59.1541C25.294 58.2522 26.1075 57.7217 27.2392 57.7217C28.6893 57.7217 29.9625 58.3583 30.6168 59.8261L32.12 58.3937C31.2711 56.7668 29.5381 55.8649 27.363 55.8649C25.1349 55.8649 23.2073 57.0674 23.2073 59.2956C23.2073 61.5414 24.9934 62.3018 26.6734 62.6555L27.7874 62.9031C29.3259 63.239 30.2808 63.5574 30.2808 64.7068C30.2808 65.7855 29.3259 66.2099 28.1411 66.2099C26.691 66.2099 24.905 65.5379 24.2684 63.8049L22.8537 65.2373C23.7732 67.2356 25.8422 68.049 28.1057 68.049ZM35.9068 68.049C37.7105 68.049 38.5416 66.7051 38.8069 65.5733V66.2099C38.8069 67.4478 39.5319 67.8722 40.4515 67.8722H41.6717V66.1746H41.1235C40.8052 66.1746 40.6637 66.0508 40.6637 65.6617V62.4256C40.6637 60.3035 39.4612 59.0834 37.3215 59.0834C35.4116 59.0834 34.0676 60.0737 33.3957 60.9932L34.5805 62.4079C35.0756 61.506 35.9775 60.8341 37.1269 60.8341C38.3118 60.8341 38.7008 61.4176 38.7715 62.2841L35.8891 63.5043C34.4921 64.0525 33.6432 64.7952 33.6432 66.0154C33.6432 67.2533 34.4921 68.049 35.9068 68.049ZM35.5531 65.7148C35.5531 65.2727 35.8537 64.9721 36.5964 64.6361L38.8069 63.6458V64.5653C38.8069 65.7325 37.9227 66.5105 36.6141 66.5105C35.8891 66.5105 35.5531 66.2099 35.5531 65.7148ZM47.4222 67.8722L50.4992 59.2602H48.3418L46.8917 63.9464L46.202 66.5813L45.4947 63.9464L44.0269 59.2602H41.8341L44.8934 67.8722H47.4222ZM54.9844 68.049C56.8942 68.049 58.0613 67.1825 58.7156 66.1922L57.4954 64.919C57.1771 65.644 56.5052 66.4221 55.002 66.4221C53.6404 66.4221 52.7385 65.591 52.6324 64.0525H58.7864C58.8217 63.8757 58.8571 63.5043 58.8571 63.186C58.8571 60.7987 57.4247 59.0834 54.8429 59.0834C52.4202 59.0834 50.7403 60.8694 50.7403 63.575C50.7403 66.263 52.4202 68.049 54.9844 68.049ZM54.8429 60.6749C56.1515 60.6749 56.9296 61.4176 57.071 62.7793H52.6501C52.8093 61.3823 53.6227 60.6749 54.8429 60.6749Z" fill="#3D0072"/>
<rect x="22.6821" y="80.7557" width="216.921" height="69.5561" rx="6.81923" fill="#F9F9F9"/>
<path d="M39.5198 114.941V112.92H39.0452V112.314H39.5198V111.725H39.0452V111.12H39.5198V109.098H40.8046L41.4428 111.12H42.1875V109.098H43.0958V111.12H43.5623V111.725H43.0958V112.314H43.5623V112.92H43.0958V114.941H41.8029L41.1483 112.92H40.4281V114.941H39.5198ZM40.4281 112.314H40.9682L40.7882 111.725H40.4118L40.4281 112.314ZM42.2121 113.665H42.253L42.2202 112.92H41.9993L42.2121 113.665ZM40.3954 111.12H40.6245L40.3872 110.334H40.3545L40.3954 111.12ZM41.8275 112.314H42.2039L42.1875 111.725H41.6392L41.8275 112.314ZM49.3745 115.064C51.2402 115.064 52.4063 113.935 52.4063 112.241C52.4063 110.608 51.498 109.553 49.9391 109.553C48.8467 109.553 48.1838 110.142 47.9261 110.878L48.1225 107.994H51.7926V106.717H46.7968L46.5268 111.394L47.877 111.529L47.8893 111.418C47.9629 110.891 48.5153 110.559 49.3008 110.559C50.1478 110.559 50.9211 111.026 50.9211 112.179C50.9211 113.137 50.381 113.726 49.3868 113.726C48.3311 113.726 47.6069 113.112 47.3246 112.093L46.2199 113.161C46.6372 114.229 47.8033 115.064 49.3745 115.064ZM56.8543 115.052C59.1497 115.052 60.3035 113.235 60.3035 110.817C60.3035 108.411 59.1497 106.594 56.8543 106.594C54.559 106.594 53.3929 108.411 53.3929 110.817C53.3929 113.235 54.559 115.052 56.8543 115.052ZM56.8543 113.726C55.3936 113.726 54.8536 112.548 54.8536 110.817C54.8536 109.098 55.3936 107.908 56.8543 107.908C58.3273 107.908 58.8551 109.098 58.8551 110.817C58.8551 112.548 58.3273 113.726 56.8543 113.726ZM61.5269 116.365C62.4475 116.267 62.8035 115.788 62.8035 114.966V113.198H61.2323V114.941H61.9565V115.101C61.9565 115.506 61.6865 115.592 61.2446 115.641L61.5269 116.365ZM67.187 115.052C69.4824 115.052 70.6362 113.235 70.6362 110.817C70.6362 108.411 69.4824 106.594 67.187 106.594C64.8917 106.594 63.7256 108.411 63.7256 110.817C63.7256 113.235 64.8917 115.052 67.187 115.052ZM67.187 113.726C65.7264 113.726 65.1863 112.548 65.1863 110.817C65.1863 109.098 65.7264 107.908 67.187 107.908C68.66 107.908 69.1878 109.098 69.1878 110.817C69.1878 112.548 68.66 113.726 67.187 113.726ZM75.2063 115.052C77.5016 115.052 78.6555 113.235 78.6555 110.817C78.6555 108.411 77.5016 106.594 75.2063 106.594C72.9109 106.594 71.7449 108.411 71.7449 110.817C71.7449 113.235 72.9109 115.052 75.2063 115.052ZM75.2063 113.726C73.7456 113.726 73.2055 112.548 73.2055 110.817C73.2055 109.098 73.7456 107.908 75.2063 107.908C76.6792 107.908 77.2071 109.098 77.2071 110.817C77.2071 112.548 76.6792 113.726 75.2063 113.726ZM83.2255 115.052C85.5209 115.052 86.6747 113.235 86.6747 110.817C86.6747 108.411 85.5209 106.594 83.2255 106.594C80.9302 106.594 79.7641 108.411 79.7641 110.817C79.7641 113.235 80.9302 115.052 83.2255 115.052ZM83.2255 113.726C81.7649 113.726 81.2248 112.548 81.2248 110.817C81.2248 109.098 81.7649 107.908 83.2255 107.908C84.6985 107.908 85.2263 109.098 85.2263 110.817C85.2263 112.548 84.6985 113.726 83.2255 113.726ZM89.1747 114.941V113.198H87.6035V114.941H89.1747ZM93.5583 115.052C95.8536 115.052 97.0074 113.235 97.0074 110.817C97.0074 108.411 95.8536 106.594 93.5583 106.594C91.2629 106.594 90.0968 108.411 90.0968 110.817C90.0968 113.235 91.2629 115.052 93.5583 115.052ZM93.5583 113.726C92.0976 113.726 91.5575 112.548 91.5575 110.817C91.5575 109.098 92.0976 107.908 93.5583 107.908C95.0312 107.908 95.559 109.098 95.559 110.817C95.559 112.548 95.0312 113.726 93.5583 113.726ZM101.578 115.052C103.873 115.052 105.027 113.235 105.027 110.817C105.027 108.411 103.873 106.594 101.578 106.594C99.2822 106.594 98.1161 108.411 98.1161 110.817C98.1161 113.235 99.2822 115.052 101.578 115.052ZM101.578 113.726C100.117 113.726 99.5768 112.548 99.5768 110.817C99.5768 109.098 100.117 107.908 101.578 107.908C103.05 107.908 103.578 109.098 103.578 110.817C103.578 112.548 103.05 113.726 101.578 113.726Z" fill="#3D0072"/>
<path fill-rule="evenodd" clip-rule="evenodd" d="M105.113 111.827C105.113 111.827 107.031 108.033 110.228 108.033C113.424 108.033 115.342 111.827 115.342 111.827C115.342 111.827 113.424 115.622 110.228 115.622C107.031 115.622 105.113 111.827 105.113 111.827ZM106.27 111.91C106.253 111.882 106.236 111.855 106.219 111.827L106.272 111.745C106.48 111.423 106.787 110.995 107.18 110.571C107.986 109.699 109.026 108.981 110.228 108.981C111.428 108.981 112.469 109.699 113.277 110.571C113.635 110.96 113.956 111.381 114.236 111.827C113.954 112.274 113.633 112.694 113.276 113.084C112.469 113.956 111.43 114.674 110.228 114.674C109.027 114.674 107.986 113.956 107.178 113.084C106.842 112.719 106.539 112.326 106.27 111.91V111.91ZM112.146 111.827C112.145 112.227 112.018 112.616 111.781 112.94C111.544 113.263 111.21 113.505 110.827 113.629C110.443 113.754 110.03 113.756 109.645 113.635C109.261 113.513 108.924 113.275 108.685 112.954C108.445 112.632 108.314 112.244 108.31 111.845C108.306 111.446 108.43 111.055 108.663 110.729C108.897 110.404 109.228 110.159 109.611 110.03C109.993 109.902 110.406 109.896 110.792 110.014C110.651 110.077 110.527 110.173 110.432 110.294C110.336 110.415 110.272 110.557 110.244 110.708C110.216 110.859 110.226 111.014 110.272 111.161C110.318 111.307 110.4 111.44 110.509 111.549C110.619 111.657 110.754 111.738 110.902 111.783C111.05 111.829 111.207 111.839 111.359 111.811C111.512 111.784 111.656 111.72 111.778 111.626C111.9 111.531 111.997 111.409 112.061 111.269C112.117 111.45 112.146 111.638 112.146 111.827V111.827Z" fill="#9CA3AF"/>
<rect x="38.9634" y="123.698" width="41.1203" height="14.4818" rx="7.24092" fill="#3D0072" fill-opacity="0.11"/>
<rect x="41.6909" y="126.439" width="20.5569" height="9" rx="4.5" fill="white"/>
<path d="M46.8628 132.439V130.049L46.8354 129.561L47.1643 130.049L48.8472 132.439H49.2748V128.766H48.7979V131.112L48.8253 131.671L48.447 131.101L46.808 128.766H46.3859V132.439H46.8628ZM51.4392 132.483C52.2834 132.483 52.7548 131.836 52.7822 131.019L52.9302 132.439H53.2262V130.597H51.6036V131.019H52.7274C52.5904 131.638 52.3108 132.033 51.6036 132.033C50.8088 132.033 50.4415 131.436 50.4415 130.597C50.4415 129.758 50.8197 129.161 51.653 129.161C52.2998 129.161 52.6616 129.555 52.7877 130.076L53.2153 129.796C52.9686 129.1 52.4149 128.711 51.6475 128.711C50.5401 128.711 49.9371 129.522 49.9371 130.597C49.9371 131.71 50.4579 132.483 51.4392 132.483ZM54.4645 132.439V130.049L54.4371 129.561L54.766 130.049L56.449 132.439H56.8766V128.766H56.3996V131.112L56.427 131.671L56.0488 131.101L54.4097 128.766H53.9876V132.439H54.4645Z" fill="#3D0072" fill-opacity="0.8"/>
<path d="M67.4119 132.494C68.3877 132.494 68.8153 131.989 68.8153 130.904V128.766H68.3438V130.904C68.3438 131.715 68.0917 132.039 67.4174 132.039C66.7541 132.039 66.4964 131.715 66.4964 130.904V128.766H66.0195V130.904C66.0195 131.989 66.4581 132.494 67.4119 132.494ZM70.9417 132.494C71.6543 132.494 72.1861 132.11 72.1861 131.474C72.1861 130.75 71.616 130.547 71.0952 130.421L70.695 130.323C70.2729 130.219 70.0043 130.082 70.0043 129.714C70.0043 129.374 70.3058 129.172 70.7115 129.172C71.1884 129.172 71.5611 129.374 71.7366 129.873L72.1367 129.555C71.912 129.007 71.3857 128.717 70.7224 128.717C70.081 128.717 69.5 129.078 69.5 129.747C69.5 130.438 70.0536 130.657 70.5415 130.767L70.8869 130.844C71.3748 130.959 71.6982 131.063 71.6982 131.485C71.6982 131.885 71.3528 132.044 70.9417 132.044C70.4812 132.044 69.9111 131.83 69.7412 131.233L69.3794 131.551C69.6206 132.23 70.251 132.494 70.9417 132.494ZM74.1402 132.439C75.2968 132.439 75.8724 131.764 75.8724 130.602C75.8724 129.44 75.2968 128.766 74.1402 128.766H72.841V132.439H74.1402ZM74.0634 129.188C74.8967 129.188 75.3791 129.555 75.3791 130.602C75.3791 131.649 74.8967 132.017 74.0634 132.017H73.3179V129.188H74.0634Z" fill="#3D0072" fill-opacity="0.3"/>
<path d="M87.2757 132.439V131.085H86.9577V130.679H87.2757V130.284H86.9577V129.878H87.2757V128.524H88.1364L88.5641 129.878H89.063V128.524H89.6716V129.878H89.9841V130.284H89.6716V130.679H89.9841V131.085H89.6716V132.439H88.8053L88.3667 131.085H87.8842V132.439H87.2757ZM87.8842 130.679H88.2461L88.1255 130.284H87.8733L87.8842 130.679ZM89.0794 131.583H89.1069L89.0849 131.085H88.9369L89.0794 131.583ZM87.8623 129.878H88.0158L87.8568 129.352H87.8349L87.8623 129.878ZM88.8218 130.679H89.074L89.063 130.284H88.6957L88.8218 130.679ZM91.422 132.439C91.422 130.904 91.9483 130.125 92.683 129.401V128.765H90.1774V129.336H92.1018C91.5262 129.906 90.7421 130.723 90.7421 132.439H91.422ZM95.0502 132.439V131.611H95.6697V131.074H95.0502V128.765H94.3978L92.5994 131.134V131.611H94.4361V132.439H95.0502ZM93.2793 131.074L94.4361 129.566V131.074H93.2793ZM97.5248 132.488C98.5501 132.488 99.0654 131.677 99.0654 130.597C99.0654 129.522 98.5501 128.711 97.5248 128.711C96.4995 128.711 95.9787 129.522 95.9787 130.597C95.9787 131.677 96.4995 132.488 97.5248 132.488ZM97.5248 131.896C96.8724 131.896 96.6311 131.37 96.6311 130.597C96.6311 129.829 96.8724 129.297 97.5248 129.297C98.1827 129.297 98.4185 129.829 98.4185 130.597C98.4185 131.37 98.1827 131.896 97.5248 131.896ZM101.139 132.658L102.565 128.546H102L100.575 132.658H101.139ZM104.677 132.987V132.488C105.357 132.444 105.851 132.071 105.851 131.446C105.851 130.745 105.324 130.514 104.738 130.372L104.677 130.355V129.352C104.951 129.44 105.187 129.632 105.324 129.944L105.79 129.5C105.576 129.089 105.182 128.826 104.677 128.743V128.217H104.293V128.716C103.625 128.716 103.027 129.089 103.027 129.78C103.027 130.476 103.581 130.712 104.102 130.821L104.293 130.865V131.901C103.91 131.83 103.515 131.611 103.356 131.178L102.917 131.622C103.169 132.165 103.696 132.428 104.293 132.483V132.987H104.677ZM103.674 129.736C103.674 129.456 103.926 129.292 104.277 129.292H104.293V130.262C103.926 130.174 103.674 130.059 103.674 129.736ZM105.22 131.457C105.22 131.753 104.984 131.89 104.677 131.918V130.953C105.017 131.046 105.22 131.161 105.22 131.457ZM107.561 132.439V128.765H107.018C106.832 129.001 106.574 129.094 106.273 129.094V129.544H106.941V132.439H107.561Z" fill="#B69FC9"/>
<path d="M41.1304 97.6665V93.6227H42.5761V93.0976H39.0983V93.6227H40.544V97.6665H41.1304ZM43.8648 97.7347C44.7786 97.7347 45.4264 97.0596 45.4264 96.0163C45.4264 94.9729 44.7786 94.2978 43.8648 94.2978C42.9511 94.2978 42.31 94.9729 42.31 96.0163C42.31 97.0596 42.9511 97.7347 43.8648 97.7347ZM43.8648 97.2369C43.3057 97.2369 42.917 96.8482 42.917 96.0163C42.917 95.1775 43.3057 94.7956 43.8648 94.7956C44.4308 94.7956 44.8263 95.1775 44.8263 96.0163C44.8263 96.8482 44.4308 97.2369 43.8648 97.2369ZM47.2227 97.7415C47.6796 97.7415 47.9933 97.5301 48.1365 97.3051L47.9387 96.7186C47.8501 96.9232 47.6455 97.1687 47.3523 97.1687C47.0931 97.1687 46.8954 97.0664 46.8954 96.6436V94.8297H47.9796V94.366H46.8954V93.5068L46.3021 93.9432V94.366H45.7702V94.8297H46.3021V96.8209C46.3021 97.3869 46.684 97.7415 47.2227 97.7415ZM49.3039 97.7347C49.9858 97.7347 50.3404 97.2437 50.4495 96.8073V97.0391C50.4495 97.5028 50.695 97.6665 51.0359 97.6665H51.4178V97.1278H51.2064C51.0837 97.1278 51.0223 97.0801 51.0223 96.9232V95.5662C51.0223 94.782 50.5859 94.2978 49.7744 94.2978C49.0379 94.2978 48.5469 94.7138 48.3492 95.0547L48.7515 95.4707C48.922 95.1093 49.2357 94.8365 49.7062 94.8365C50.2245 94.8365 50.4086 95.1229 50.429 95.5116L49.2357 96.0435C48.7651 96.2549 48.431 96.5345 48.431 96.9778C48.431 97.4142 48.7447 97.7347 49.3039 97.7347ZM49.0311 96.8823C49.0311 96.6777 49.1743 96.5413 49.488 96.3913L50.4495 95.9412V96.3981C50.4495 96.8755 50.054 97.2437 49.4948 97.2437C49.1879 97.2437 49.0311 97.1073 49.0311 96.8823ZM52.6981 97.6665V93.0976H52.1048V97.6665H52.6981ZM56.9226 97.7347C57.8091 97.7347 58.4705 97.2574 58.4705 96.4663C58.4705 95.5662 57.7613 95.3139 57.1135 95.157L56.6157 95.0343C56.0906 94.9047 55.7565 94.7342 55.7565 94.2773C55.7565 93.8546 56.1316 93.6022 56.6362 93.6022C57.2294 93.6022 57.6932 93.8546 57.9114 94.4751L58.4092 94.0796C58.1296 93.3977 57.4749 93.0362 56.6498 93.0362C55.852 93.0362 55.1291 93.4863 55.1291 94.3183C55.1291 95.1775 55.8179 95.4503 56.4248 95.5866L56.8544 95.6821C57.4613 95.8253 57.8636 95.9549 57.8636 96.48C57.8636 96.9778 57.434 97.1755 56.9226 97.1755C56.3498 97.1755 55.6406 96.9096 55.4292 96.1663L54.9791 96.5618C55.2791 97.4074 56.0634 97.7347 56.9226 97.7347ZM59.9456 97.7347C60.6275 97.7347 60.9821 97.2437 61.0912 96.8073V97.0391C61.0912 97.5028 61.3367 97.6665 61.6777 97.6665H62.0595V97.1278H61.8481C61.7254 97.1278 61.664 97.0801 61.664 96.9232V95.5662C61.664 94.782 61.2276 94.2978 60.4161 94.2978C59.6796 94.2978 59.1886 94.7138 58.9909 95.0547L59.3932 95.4707C59.5637 95.1093 59.8774 94.8365 60.3479 94.8365C60.8662 94.8365 61.0503 95.1229 61.0707 95.5116L59.8774 96.0435C59.4069 96.2549 59.0727 96.5345 59.0727 96.9778C59.0727 97.4142 59.3864 97.7347 59.9456 97.7347ZM59.6728 96.8823C59.6728 96.6777 59.816 96.5413 60.1297 96.3913L61.0912 95.9412V96.3981C61.0912 96.8755 60.6957 97.2437 60.1365 97.2437C59.8296 97.2437 59.6728 97.1073 59.6728 96.8823ZM64.1343 97.6665L65.3345 94.366H64.7003L64.0525 96.3231L63.7729 97.2301L63.4865 96.3231L62.8319 94.366H62.1909L63.3842 97.6665H64.1343ZM66.4164 93.8341V93.0976H65.8232V93.8341H66.4164ZM66.4164 97.6665V94.366H65.8232V97.6665H66.4164ZM67.9015 97.6665V95.798C67.9015 95.2457 68.1333 94.8024 68.7675 94.8024C69.3267 94.8024 69.4972 95.1025 69.4972 95.5321V97.6665H70.0836V95.3889C70.0836 94.6865 69.6813 94.2978 69.0335 94.2978C68.3856 94.2978 68.031 94.7342 67.9015 95.2457V94.366H67.3082V97.6665H67.9015ZM72.2131 96.6573C72.9905 96.6573 73.5156 96.1663 73.5156 95.4775C73.5156 95.0684 73.3246 94.7206 73.0109 94.516L73.6179 93.8341L73.0041 93.6159L72.7995 94.4069C72.6291 94.3387 72.4313 94.2978 72.2131 94.2978C71.4357 94.2978 70.9106 94.7888 70.9106 95.4775C70.9106 95.8935 71.1016 96.2413 71.4289 96.4459C71.1084 96.705 70.9106 96.9914 70.9106 97.2505C70.9106 97.4687 71.0197 97.6256 71.2311 97.6938C70.9788 97.7961 70.6992 97.9802 70.6992 98.2871C70.6992 98.7235 71.2311 99.0031 72.0767 99.0031C73.1882 99.0031 73.802 98.5598 73.802 97.9325C73.802 97.4347 73.4269 97.196 72.8268 97.196H71.8312C71.4903 97.196 71.3948 97.1073 71.3948 96.93C71.3948 96.7868 71.4903 96.63 71.5721 96.5209C71.7562 96.6095 71.9744 96.6573 72.2131 96.6573ZM72.2131 96.2004C71.8039 96.2004 71.4834 95.9276 71.4834 95.4775C71.4834 95.0275 71.8039 94.7547 72.2131 94.7547C72.6291 94.7547 72.9428 95.0275 72.9428 95.4775C72.9428 95.9276 72.6291 96.2004 72.2131 96.2004ZM72.0767 98.5325C71.4834 98.5325 71.1766 98.3689 71.1766 98.1029C71.1766 97.9461 71.2925 97.8029 71.4016 97.7074H72.7518C73.086 97.7074 73.2496 97.8029 73.2496 98.0143C73.2496 98.3416 72.8268 98.5325 72.0767 98.5325ZM75.5759 97.7347C76.2169 97.7347 76.7761 97.4415 76.7761 96.7868C76.7761 96.3299 76.5306 96.0231 75.7873 95.8458L75.3645 95.7367C74.9145 95.6276 74.6963 95.5253 74.6963 95.232C74.6963 94.9525 74.9417 94.8024 75.2827 94.8024C75.7532 94.8024 76.0669 95.0479 76.2306 95.4366L76.6806 95.1025C76.4965 94.666 76.0124 94.2978 75.3168 94.2978C74.6008 94.2978 74.1371 94.666 74.1371 95.2661C74.1371 95.873 74.6485 96.0981 75.119 96.2072L75.5555 96.3095C75.9442 96.3981 76.2442 96.4936 76.2442 96.7936C76.2442 97.0869 75.9851 97.2369 75.5964 97.2369C74.9417 97.2369 74.5803 96.8618 74.4644 96.4868L74.0348 96.8209C74.2598 97.4347 74.8872 97.7347 75.5759 97.7347Z" fill="#6B7280"/>
<rect x="22.6797" y="158.564" width="216.331" height="31.8308" rx="15.9154" fill="#8807F7"/>
<path d="M110.141 176.685H109.075V171.309H107.142V170.366H112.084V171.309H110.141V176.685ZM113.901 176.779C112.581 176.779 111.676 175.817 111.676 174.393C111.676 172.959 112.581 171.997 113.901 171.997C115.241 171.997 116.146 172.959 116.146 174.393C116.146 175.817 115.241 176.779 113.901 176.779ZM113.911 175.902C114.599 175.902 115.071 175.449 115.071 174.393C115.071 173.327 114.599 172.875 113.911 172.875C113.232 172.875 112.76 173.327 112.76 174.393C112.76 175.449 113.232 175.902 113.911 175.902ZM118.127 178.439H117.07V172.092H118.127V173.318C118.278 172.601 118.683 171.988 119.598 171.988C120.711 171.988 121.428 172.903 121.428 174.384C121.428 175.864 120.711 176.779 119.579 176.779C118.664 176.779 118.278 176.166 118.127 175.459V178.439ZM118.127 174.667C118.127 175.421 118.438 175.921 119.183 175.921C119.843 175.921 120.343 175.421 120.343 174.384C120.343 173.346 119.843 172.846 119.183 172.846C118.438 172.846 118.127 173.346 118.127 174.101V174.667ZM126.763 176.779C125.075 176.779 124.254 175.902 124.254 173.987V170.366H125.311V173.997C125.311 175.251 125.735 175.761 126.772 175.761C127.829 175.761 128.234 175.251 128.234 173.997V170.366H129.291V173.987C129.291 175.902 128.489 176.779 126.763 176.779ZM131.454 178.439H130.398V172.092H131.454V173.318C131.605 172.601 132.011 171.988 132.925 171.988C134.038 171.988 134.755 172.903 134.755 174.384C134.755 175.864 134.038 176.779 132.906 176.779C131.992 176.779 131.605 176.166 131.454 175.459V178.439ZM131.454 174.667C131.454 175.421 131.765 175.921 132.51 175.921C133.171 175.921 133.67 175.421 133.67 174.384C133.67 173.346 133.171 172.846 132.51 172.846C131.765 172.846 131.454 173.346 131.454 174.101V174.667Z" fill="white"/>
<path d="M145.661 170.41L141.891 171.663C139.356 172.511 139.356 173.893 141.891 174.736L143.01 175.108L143.381 176.227C144.225 178.761 145.611 178.761 146.454 176.227L147.711 172.461C148.27 170.77 147.352 169.847 145.661 170.41ZM145.794 172.657L144.208 174.252C144.145 174.314 144.066 174.344 143.987 174.344C143.907 174.344 143.828 174.314 143.765 174.252C143.644 174.131 143.644 173.93 143.765 173.809L145.352 172.214C145.473 172.093 145.673 172.093 145.794 172.214C145.916 172.335 145.916 172.536 145.794 172.657Z" fill="white"/>
<path d="M25.0971 221.092C26.335 221.092 27.1685 220.432 27.5234 219.293L26.8797 218.872C26.6981 219.796 26.1535 220.415 25.1054 220.415C23.8428 220.415 23.2651 219.516 23.2651 218.253C23.2651 216.991 23.8428 216.091 25.1054 216.091C26.1535 216.091 26.6981 216.71 26.8797 217.634L27.5234 217.213C27.1685 216.075 26.335 215.414 25.0971 215.414C23.4219 215.414 22.5059 216.66 22.5059 218.253C22.5059 219.846 23.4219 221.092 25.0971 221.092ZM29.1261 221.026V218.765C29.1261 218.08 29.5883 217.477 30.0999 217.477C30.3887 217.477 30.5125 217.676 30.5125 217.907C30.5125 218.129 30.4053 218.377 30.2732 218.493H31.0572C31.1232 218.393 31.214 218.146 31.214 217.808C31.214 217.246 30.8014 216.941 30.3722 216.941C29.6955 216.941 29.2829 217.477 29.1261 218.096V217.032H28.4082V221.026H29.1261ZM33.4849 221.109C34.3514 221.109 34.9043 220.704 35.2014 220.226L34.764 219.73C34.6072 220.077 34.2854 220.514 33.4849 220.514C32.7752 220.514 32.3048 220.036 32.2635 219.194H35.2261C35.2427 219.12 35.2592 218.996 35.2592 218.872C35.2592 217.7 34.5742 216.949 33.4436 216.949C32.3461 216.949 31.5703 217.766 31.5703 219.029C31.5703 220.3 32.3543 221.109 33.4849 221.109ZM33.4436 217.552C34.1121 217.552 34.5412 217.94 34.6155 218.674H32.28C32.3708 217.931 32.7999 217.552 33.4436 217.552ZM37.0184 221.109C37.8436 221.109 38.2728 220.514 38.4048 219.986V220.267C38.4048 220.828 38.7019 221.026 39.1145 221.026H39.5767V220.374H39.3208C39.1723 220.374 39.098 220.316 39.098 220.126V218.484C39.098 217.535 38.5699 216.949 37.5878 216.949C36.6966 216.949 36.1024 217.453 35.8631 217.865L36.35 218.369C36.5563 217.931 36.9359 217.601 37.5053 217.601C38.1325 217.601 38.3553 217.948 38.3801 218.418L36.9359 219.062C36.3665 219.318 35.9621 219.656 35.9621 220.193C35.9621 220.721 36.3417 221.109 37.0184 221.109ZM36.6883 220.077C36.6883 219.829 36.8616 219.664 37.2412 219.483L38.4048 218.938V219.491C38.4048 220.069 37.9262 220.514 37.2495 220.514C36.8781 220.514 36.6883 220.349 36.6883 220.077ZM41.6321 221.117C42.185 221.117 42.5646 220.861 42.7379 220.589L42.4986 219.879C42.3913 220.126 42.1437 220.424 41.7889 220.424C41.4753 220.424 41.236 220.3 41.236 219.788V217.593H42.5481V217.032H41.236V215.992L40.518 216.52V217.032H39.8743V217.593H40.518V220.003C40.518 220.688 40.9801 221.117 41.6321 221.117ZM44.8642 221.109C45.7307 221.109 46.2836 220.704 46.5807 220.226L46.1433 219.73C45.9865 220.077 45.6647 220.514 44.8642 220.514C44.1545 220.514 43.6841 220.036 43.6428 219.194H46.6055C46.622 219.12 46.6385 218.996 46.6385 218.872C46.6385 217.7 45.9535 216.949 44.8229 216.949C43.7254 216.949 42.9496 217.766 42.9496 219.029C42.9496 220.3 43.7336 221.109 44.8642 221.109ZM44.8229 217.552C45.4914 217.552 45.9205 217.94 45.9948 218.674H43.6593C43.7501 217.931 44.1792 217.552 44.8229 217.552ZM50.2029 221.109C51.0282 221.109 51.4573 220.514 51.5893 219.986V220.267C51.5893 220.828 51.8864 221.026 52.299 221.026H52.7612V220.374H52.5054C52.3568 220.374 52.2825 220.316 52.2825 220.126V218.484C52.2825 217.535 51.7544 216.949 50.7723 216.949C49.8811 216.949 49.2869 217.453 49.0476 217.865L49.5345 218.369C49.7408 217.931 50.1204 217.601 50.6898 217.601C51.317 217.601 51.5398 217.948 51.5646 218.418L50.1204 219.062C49.551 219.318 49.1466 219.656 49.1466 220.193C49.1466 220.721 49.5262 221.109 50.2029 221.109ZM49.8728 220.077C49.8728 219.829 50.0461 219.664 50.4257 219.483L51.5893 218.938V219.491C51.5893 220.069 51.1107 220.514 50.434 220.514C50.0626 220.514 49.8728 220.349 49.8728 220.077ZM56.1238 221.026V218.765C56.1238 218.096 56.4044 217.56 57.1718 217.56C57.8485 217.56 58.0548 217.923 58.0548 218.443V221.026H58.7646V218.27C58.7646 217.42 58.2777 216.949 57.4937 216.949C56.7097 216.949 56.2806 217.477 56.1238 218.096V217.032H55.4058V221.026H56.1238ZM61.5141 221.109C62.3806 221.109 62.9335 220.704 63.2306 220.226L62.7932 219.73C62.6364 220.077 62.3146 220.514 61.5141 220.514C60.8044 220.514 60.334 220.036 60.2927 219.194H63.2554C63.2719 219.12 63.2884 218.996 63.2884 218.872C63.2884 217.7 62.6034 216.949 61.4728 216.949C60.3753 216.949 59.5995 217.766 59.5995 219.029C59.5995 220.3 60.3835 221.109 61.5141 221.109ZM61.4728 217.552C62.1413 217.552 62.5704 217.94 62.6447 218.674H60.3092C60.4 217.931 60.8291 217.552 61.4728 217.552ZM65.5313 221.026L66.2162 218.691L66.4886 217.626L66.7444 218.691L67.4293 221.026H68.3701L69.4017 217.032H68.6012L68.0895 219.491L67.8997 220.506L67.6439 219.491L66.9259 217.032H66.0429L65.3167 219.491L65.0691 220.506L64.8793 219.491L64.3594 217.032H63.559L64.5988 221.026H65.5313ZM73.4057 221.109C74.1814 221.109 74.8581 220.754 74.8581 219.961C74.8581 219.409 74.561 219.037 73.6615 218.823L73.1499 218.691C72.6052 218.559 72.3411 218.435 72.3411 218.08C72.3411 217.742 72.6382 217.56 73.0508 217.56C73.6203 217.56 73.9999 217.857 74.1979 218.327L74.7426 217.923C74.5198 217.395 73.9339 216.949 73.0921 216.949C72.2256 216.949 71.6644 217.395 71.6644 218.121C71.6644 218.856 72.2834 219.128 72.8528 219.26L73.3809 219.384C73.8513 219.491 74.2144 219.607 74.2144 219.97C74.2144 220.325 73.9008 220.506 73.4305 220.506C72.6382 220.506 72.2008 220.052 72.0606 219.598L71.5406 220.003C71.813 220.745 72.5722 221.109 73.4057 221.109ZM76.5397 221.109C77.365 221.109 77.7941 220.514 77.9262 219.986V220.267C77.9262 220.828 78.2232 221.026 78.6359 221.026H79.098V220.374H78.8422C78.6936 220.374 78.6194 220.316 78.6194 220.126V218.484C78.6194 217.535 78.0912 216.949 77.1092 216.949C76.2179 216.949 75.6237 217.453 75.3844 217.865L75.8713 218.369C76.0776 217.931 76.4572 217.601 77.0266 217.601C77.6538 217.601 77.8766 217.948 77.9014 218.418L76.4572 219.062C75.8878 219.318 75.4834 219.656 75.4834 220.193C75.4834 220.721 75.863 221.109 76.5397 221.109ZM76.2097 220.077C76.2097 219.829 76.383 219.664 76.7626 219.483L77.9262 218.938V219.491C77.9262 220.069 77.4475 220.514 76.7708 220.514C76.3995 220.514 76.2097 220.349 76.2097 220.077ZM81.6089 221.026L83.0613 217.032H82.2938L81.5098 219.4L81.1715 220.498L80.8249 219.4L80.0326 217.032H79.2569L80.7011 221.026H81.6089ZM84.3706 216.388V215.497H83.6526V216.388H84.3706ZM84.3706 221.026V217.032H83.6526V221.026H84.3706ZM86.1677 221.026V218.765C86.1677 218.096 86.4483 217.56 87.2158 217.56C87.8925 217.56 88.0988 217.923 88.0988 218.443V221.026H88.8085V218.27C88.8085 217.42 88.3216 216.949 87.5376 216.949C86.7537 216.949 86.3245 217.477 86.1677 218.096V217.032H85.4498V221.026H86.1677ZM91.3855 219.805C92.3263 219.805 92.9617 219.21 92.9617 218.377C92.9617 217.882 92.7307 217.461 92.3511 217.213L93.0855 216.388L92.3428 216.124L92.0952 217.081C91.8889 216.999 91.6496 216.949 91.3855 216.949C90.4447 216.949 89.8093 217.543 89.8093 218.377C89.8093 218.88 90.0404 219.301 90.4365 219.549C90.0486 219.862 89.8093 220.209 89.8093 220.523C89.8093 220.787 89.9414 220.976 90.1972 221.059C89.8918 221.183 89.5535 221.406 89.5535 221.777C89.5535 222.305 90.1972 222.643 91.2205 222.643C92.5656 222.643 93.3083 222.107 93.3083 221.348C93.3083 220.745 92.8545 220.457 92.1282 220.457H90.9234C90.5108 220.457 90.3952 220.349 90.3952 220.135C90.3952 219.961 90.5108 219.772 90.6098 219.64C90.8326 219.747 91.0967 219.805 91.3855 219.805ZM91.3855 219.252C90.8904 219.252 90.5025 218.922 90.5025 218.377C90.5025 217.832 90.8904 217.502 91.3855 217.502C91.8889 217.502 92.2685 217.832 92.2685 218.377C92.2685 218.922 91.8889 219.252 91.3855 219.252ZM91.2205 222.074C90.5025 222.074 90.1312 221.876 90.1312 221.554C90.1312 221.364 90.2714 221.191 90.4035 221.076H92.0375C92.4418 221.076 92.6399 221.191 92.6399 221.447C92.6399 221.843 92.1282 222.074 91.2205 222.074ZM95.4551 221.109C96.2309 221.109 96.9075 220.754 96.9075 219.961C96.9075 219.409 96.6105 219.037 95.7109 218.823L95.1993 218.691C94.6546 218.559 94.3906 218.435 94.3906 218.08C94.3906 217.742 94.6876 217.56 95.1003 217.56C95.6697 217.56 96.0493 217.857 96.2474 218.327L96.792 217.923C96.5692 217.395 95.9833 216.949 95.1415 216.949C94.275 216.949 93.7139 217.395 93.7139 218.121C93.7139 218.856 94.3328 219.128 94.9022 219.26L95.4304 219.384C95.9008 219.491 96.2639 219.607 96.2639 219.97C96.2639 220.325 95.9503 220.506 95.4799 220.506C94.6876 220.506 94.2503 220.052 94.11 219.598L93.5901 220.003C93.8624 220.745 94.6216 221.109 95.4551 221.109ZM100.271 222.561V219.994C100.411 220.597 100.791 221.109 101.558 221.109C102.565 221.109 103.192 220.283 103.192 219.021C103.192 217.758 102.565 216.941 101.558 216.941C100.791 216.941 100.411 217.453 100.271 218.055V217.032H99.553V222.561H100.271ZM100.271 219.309V218.74C100.271 218.08 100.552 217.543 101.311 217.543C101.946 217.543 102.466 218.006 102.466 219.021C102.466 220.044 101.946 220.506 101.311 220.506C100.552 220.506 100.271 219.97 100.271 219.309ZM104.776 221.026V215.497H104.058V221.026H104.776ZM106.68 221.109C107.506 221.109 107.935 220.514 108.067 219.986V220.267C108.067 220.828 108.364 221.026 108.777 221.026H109.239V220.374H108.983C108.834 220.374 108.76 220.316 108.76 220.126V218.484C108.76 217.535 108.232 216.949 107.25 216.949C106.359 216.949 105.764 217.453 105.525 217.865L106.012 218.369C106.218 217.931 106.598 217.601 107.167 217.601C107.794 217.601 108.017 217.948 108.042 218.418L106.598 219.062C106.028 219.318 105.624 219.656 105.624 220.193C105.624 220.721 106.004 221.109 106.68 221.109ZM106.35 220.077C106.35 219.829 106.524 219.664 106.903 219.483L108.067 218.938V219.491C108.067 220.069 107.588 220.514 106.911 220.514C106.54 220.514 106.35 220.349 106.35 220.077ZM110.788 221.026V218.765C110.788 218.096 111.069 217.56 111.836 217.56C112.513 217.56 112.719 217.923 112.719 218.443V221.026H113.429V218.27C113.429 217.42 112.942 216.949 112.158 216.949C111.374 216.949 110.945 217.477 110.788 218.096V217.032H110.07V221.026H110.788Z" fill="#3D0072"/>
<g clip-path="url(#clip1_1_7965)">
<g filter="url(#filter0_d_1_7965)">
<rect x="22.6807" y="236.962" width="216.921" height="90.7766" rx="4.21366" fill="#FFFAF0"/>
</g>
<rect x="39.2456" y="253.06" width="31.1814" height="28.426" rx="2.75542" fill="#FBBF24"/>
<path d="M50.9807 272.919C50.6565 272.919 50.379 272.804 50.1484 272.573C49.9173 272.342 49.8018 272.064 49.8018 271.74V265.846C49.8018 265.521 49.9173 265.244 50.1484 265.013C50.379 264.782 50.6565 264.667 50.9807 264.667H51.5701V263.488C51.5701 262.672 51.8576 261.977 52.4325 261.402C53.007 260.828 53.702 260.54 54.5174 260.54C55.3328 260.54 56.028 260.828 56.6029 261.402C57.1775 261.977 57.4647 262.672 57.4647 263.488V264.667H58.0542C58.3784 264.667 58.656 264.782 58.8871 265.013C59.1178 265.244 59.2331 265.521 59.2331 265.846V271.74C59.2331 272.064 59.1178 272.342 58.8871 272.573C58.656 272.804 58.3784 272.919 58.0542 272.919H50.9807ZM54.5174 269.972C54.8416 269.972 55.1193 269.856 55.3503 269.626C55.581 269.395 55.6963 269.117 55.6963 268.793C55.6963 268.469 55.581 268.191 55.3503 267.96C55.1193 267.729 54.8416 267.614 54.5174 267.614C54.1932 267.614 53.9158 267.729 53.6851 267.96C53.454 268.191 53.3385 268.469 53.3385 268.793C53.3385 269.117 53.454 269.395 53.6851 269.626C53.9158 269.856 54.1932 269.972 54.5174 269.972ZM52.749 264.667H56.2858V263.488C56.2858 262.996 56.1139 262.579 55.77 262.235C55.4262 261.891 55.0086 261.719 54.5174 261.719C54.0262 261.719 53.6087 261.891 53.2648 262.235C52.921 262.579 52.749 262.996 52.749 263.488V264.667Z" fill="white"/>
<path d="M87.1066 273.617V273.275H84.843V271.778H86.7234V271.43H84.843V270.01H87.1066V269.668H84.454V273.617H87.1066ZM88.7577 273.617L89.8246 270.788H89.412L88.7989 272.509L88.5278 273.323L88.2449 272.509L87.6318 270.788H87.2074L88.2743 273.617H88.7577ZM91.3478 273.676C91.949 273.676 92.3263 273.387 92.5267 273.04L92.2909 272.763C92.1671 273.04 91.9196 273.352 91.3478 273.352C90.7878 273.352 90.4047 272.998 90.3811 272.291H92.5385C92.5444 272.244 92.5562 272.173 92.5562 272.102C92.5562 271.248 92.0728 270.729 91.3006 270.729C90.5343 270.729 90.0097 271.283 90.0097 272.203C90.0097 273.14 90.5579 273.676 91.3478 273.676ZM91.3006 271.047C91.8194 271.047 92.1671 271.371 92.2025 272.008H90.387C90.44 271.371 90.7819 271.047 91.3006 271.047ZM93.626 273.617V271.979C93.626 271.489 93.962 271.018 94.3864 271.018C94.6457 271.018 94.7518 271.183 94.7518 271.366C94.7518 271.537 94.6811 271.719 94.6045 271.808H95.023C95.076 271.713 95.1291 271.537 95.1291 271.324C95.1291 270.935 94.8579 270.723 94.5278 270.723C94.0445 270.723 93.7321 271.112 93.626 271.56V270.788H93.2369V273.617H93.626ZM95.9269 274.613C96.31 274.613 96.5871 274.407 96.7521 273.953L97.9487 270.788H97.542L96.8346 272.727L96.6283 273.311L96.4279 272.727L95.7147 270.788H95.3021L96.3395 273.523L96.5576 273.517L96.4515 273.8C96.3277 274.148 96.1627 274.272 95.9328 274.272C95.6734 274.272 95.5143 274.112 95.3964 273.883L95.1783 274.166C95.2844 274.378 95.5437 274.613 95.9269 274.613ZM99.4401 273.676C100.218 273.676 100.766 273.099 100.766 272.203C100.766 271.307 100.218 270.729 99.4401 270.729C98.662 270.729 98.1197 271.307 98.1197 272.203C98.1197 273.099 98.662 273.676 99.4401 273.676ZM99.4401 273.346C98.886 273.346 98.5088 272.951 98.5088 272.203C98.5088 271.448 98.886 271.047 99.4401 271.047C100 271.047 100.377 271.448 100.377 272.203C100.377 272.951 100 273.346 99.4401 273.346ZM101.835 273.617V271.979C101.835 271.489 102.076 271.053 102.672 271.053C103.161 271.053 103.373 271.336 103.373 271.796V273.617H103.762V271.707C103.762 271.059 103.385 270.729 102.825 270.729C102.259 270.729 101.935 271.118 101.835 271.578V270.788H101.446V273.617H101.835ZM105.739 273.676C106.34 273.676 106.717 273.387 106.918 273.04L106.682 272.763C106.558 273.04 106.311 273.352 105.739 273.352C105.179 273.352 104.796 272.998 104.772 272.291H106.93C106.935 272.244 106.947 272.173 106.947 272.102C106.947 271.248 106.464 270.729 105.692 270.729C104.925 270.729 104.401 271.283 104.401 272.203C104.401 273.14 104.949 273.676 105.739 273.676ZM105.692 271.047C106.21 271.047 106.558 271.371 106.594 272.008H104.778C104.831 271.371 105.173 271.047 105.692 271.047ZM109.324 273.617V271.979C109.324 271.489 109.565 271.053 110.161 271.053C110.65 271.053 110.862 271.336 110.862 271.796V273.617H111.251V271.707C111.251 271.059 110.874 270.729 110.314 270.729C109.748 270.729 109.424 271.118 109.324 271.578V270.788H108.935V273.617H109.324ZM113.228 273.676C113.829 273.676 114.206 273.387 114.407 273.04L114.171 272.763C114.047 273.04 113.8 273.352 113.228 273.352C112.668 273.352 112.285 272.998 112.261 272.291H114.419C114.425 272.244 114.436 272.173 114.436 272.102C114.436 271.248 113.953 270.729 113.181 270.729C112.415 270.729 111.89 271.283 111.89 272.203C111.89 273.14 112.438 273.676 113.228 273.676ZM113.181 271.047C113.7 271.047 114.047 271.371 114.083 272.008H112.267C112.32 271.371 112.662 271.047 113.181 271.047ZM116.359 273.676C116.961 273.676 117.338 273.387 117.538 273.04L117.303 272.763C117.179 273.04 116.931 273.352 116.359 273.352C115.8 273.352 115.416 272.998 115.393 272.291H117.55C117.556 272.244 117.568 272.173 117.568 272.102C117.568 271.248 117.085 270.729 116.312 270.729C115.546 270.729 115.021 271.283 115.021 272.203C115.021 273.14 115.57 273.676 116.359 273.676ZM116.312 271.047C116.831 271.047 117.179 271.371 117.214 272.008H115.399C115.452 271.371 115.794 271.047 116.312 271.047ZM119.32 273.682C119.88 273.682 120.181 273.293 120.269 272.845V273.617H120.652V269.668H120.269V271.566C120.181 271.118 119.88 270.729 119.32 270.729C118.583 270.729 118.141 271.313 118.141 272.203C118.141 273.099 118.583 273.682 119.32 273.682ZM118.536 272.203C118.536 271.413 118.925 271.053 119.438 271.053C120.01 271.053 120.269 271.466 120.269 271.937V272.468C120.269 272.939 120.01 273.358 119.438 273.358C118.925 273.358 118.536 272.998 118.536 272.203ZM122.563 273.676C123.087 273.676 123.547 273.435 123.547 272.892C123.547 272.491 123.311 272.25 122.722 272.102L122.344 272.008C121.932 271.908 121.72 271.802 121.72 271.507C121.72 271.212 121.961 271.053 122.303 271.053C122.745 271.053 123.04 271.265 123.17 271.649L123.464 271.43C123.323 271.03 122.928 270.729 122.327 270.729C121.743 270.729 121.354 271.035 121.354 271.525C121.354 272.032 121.773 272.22 122.179 272.321L122.563 272.409C122.946 272.497 123.199 272.603 123.199 272.898C123.199 273.193 122.952 273.346 122.574 273.346C122.003 273.346 121.649 273.028 121.56 272.645L121.272 272.863C121.443 273.417 121.985 273.676 122.563 273.676ZM126.05 273.676C126.616 273.676 126.981 273.24 127.076 272.833V273.134C127.076 273.494 127.264 273.617 127.547 273.617H127.813V273.27H127.647C127.512 273.27 127.447 273.216 127.447 273.069V271.743C127.447 271.112 127.105 270.729 126.445 270.729C125.844 270.729 125.431 271.065 125.254 271.36L125.525 271.631C125.673 271.318 125.979 271.077 126.404 271.077C126.864 271.077 127.064 271.324 127.064 271.749V271.772L125.991 272.262C125.596 272.438 125.319 272.674 125.319 273.046C125.319 273.423 125.584 273.676 126.05 273.676ZM125.708 272.992C125.708 272.78 125.85 272.639 126.156 272.497L127.076 272.061V272.562C127.076 272.945 126.687 273.352 126.162 273.352C125.885 273.352 125.708 273.228 125.708 272.992ZM128.827 273.617V271.979C128.827 271.489 129.068 271.053 129.664 271.053C130.153 271.053 130.365 271.336 130.365 271.796V273.617H130.754V271.707C130.754 271.059 130.377 270.729 129.817 270.729C129.251 270.729 128.927 271.118 128.827 271.578V270.788H128.437V273.617H128.827ZM134.037 273.676C134.639 273.676 135.016 273.387 135.216 273.04L134.981 272.763C134.857 273.04 134.609 273.352 134.037 273.352C133.477 273.352 133.094 272.998 133.071 272.291H135.228C135.234 272.244 135.246 272.173 135.246 272.102C135.246 271.248 134.763 270.729 133.99 270.729C133.224 270.729 132.699 271.283 132.699 272.203C132.699 273.14 133.248 273.676 134.037 273.676ZM133.99 271.047C134.509 271.047 134.857 271.371 134.892 272.008H133.077C133.13 271.371 133.472 271.047 133.99 271.047ZM136.316 273.617V271.979C136.316 271.489 136.557 271.053 137.058 271.053C137.5 271.053 137.719 271.295 137.719 271.79V273.617H138.102V271.979C138.102 271.489 138.343 271.053 138.85 271.053C139.287 271.053 139.505 271.295 139.505 271.79V273.617H139.894V271.702C139.894 271.053 139.587 270.729 139.045 270.729C138.514 270.729 138.19 271.124 138.096 271.59C138.066 271.018 137.766 270.729 137.253 270.729C136.728 270.729 136.416 271.112 136.316 271.578V270.788H135.927V273.617H136.316ZM141.866 273.676C142.467 273.676 142.845 273.387 143.045 273.04L142.809 272.763C142.686 273.04 142.438 273.352 141.866 273.352C141.306 273.352 140.923 272.998 140.9 272.291H143.057C143.063 272.244 143.075 272.173 143.075 272.102C143.075 271.248 142.591 270.729 141.819 270.729C141.053 270.729 140.528 271.283 140.528 272.203C140.528 273.14 141.076 273.676 141.866 273.676ZM141.819 271.047C142.338 271.047 142.686 271.371 142.721 272.008H140.905C140.958 271.371 141.3 271.047 141.819 271.047ZM144.144 273.617V271.979C144.144 271.489 144.48 271.018 144.905 271.018C145.164 271.018 145.27 271.183 145.27 271.366C145.27 271.537 145.2 271.719 145.123 271.808H145.541C145.594 271.713 145.648 271.537 145.648 271.324C145.648 270.935 145.376 270.723 145.046 270.723C144.563 270.723 144.25 271.112 144.144 271.56V270.788H143.755V273.617H144.144ZM147.126 272.745C147.786 272.745 148.222 272.326 148.222 271.737C148.222 271.389 148.069 271.1 147.803 270.918L148.31 270.31L147.904 270.157L147.674 270.841C147.515 270.77 147.332 270.729 147.126 270.729C146.471 270.729 146.029 271.147 146.029 271.737C146.029 272.097 146.194 272.391 146.465 272.568C146.23 272.751 146.053 272.987 146.053 273.216C146.053 273.387 146.147 273.523 146.342 273.576C146.118 273.664 145.835 273.847 145.835 274.142C145.835 274.531 146.283 274.773 147.002 274.773C147.91 274.773 148.452 274.395 148.452 273.871C148.452 273.458 148.145 273.258 147.65 273.258H146.772C146.465 273.258 146.371 273.163 146.371 273.004C146.371 272.869 146.459 272.721 146.548 272.615C146.713 272.698 146.907 272.745 147.126 272.745ZM147.126 272.444C146.707 272.444 146.406 272.167 146.406 271.737C146.406 271.307 146.707 271.03 147.126 271.03C147.55 271.03 147.851 271.307 147.851 271.737C147.851 272.167 147.55 272.444 147.126 272.444ZM147.002 274.466C146.465 274.466 146.153 274.307 146.153 274.03C146.153 273.847 146.306 273.682 146.448 273.594H147.597C147.933 273.594 148.092 273.694 148.092 273.918C148.092 274.242 147.686 274.466 147.002 274.466ZM150.138 273.676C150.739 273.676 151.117 273.387 151.317 273.04L151.081 272.763C150.958 273.04 150.71 273.352 150.138 273.352C149.578 273.352 149.195 272.998 149.172 272.291H151.329C151.335 272.244 151.347 272.173 151.347 272.102C151.347 271.248 150.863 270.729 150.091 270.729C149.325 270.729 148.8 271.283 148.8 272.203C148.8 273.14 149.348 273.676 150.138 273.676ZM150.091 271.047C150.61 271.047 150.958 271.371 150.993 272.008H149.177C149.23 271.371 149.572 271.047 150.091 271.047ZM152.416 273.617V271.979C152.416 271.489 152.658 271.053 153.253 271.053C153.743 271.053 153.955 271.336 153.955 271.796V273.617H154.344V271.707C154.344 271.059 153.967 270.729 153.407 270.729C152.841 270.729 152.517 271.118 152.416 271.578V270.788H152.027V273.617H152.416ZM156.291 273.676C156.999 273.676 157.441 273.264 157.553 272.692L157.181 272.533C157.122 273.01 156.839 273.352 156.297 273.352C155.737 273.352 155.366 272.951 155.366 272.203C155.366 271.448 155.737 271.047 156.297 271.047C156.839 271.047 157.122 271.395 157.181 271.873L157.553 271.713C157.441 271.142 156.999 270.729 156.297 270.729C155.495 270.729 154.971 271.283 154.971 272.203C154.971 273.122 155.495 273.676 156.291 273.676ZM158.384 274.613C158.767 274.613 159.044 274.407 159.209 273.953L160.406 270.788H159.999L159.292 272.727L159.086 273.311L158.885 272.727L158.172 270.788H157.759L158.797 273.523L159.015 273.517L158.909 273.8C158.785 274.148 158.62 274.272 158.39 274.272C158.131 274.272 157.972 274.112 157.854 273.883L157.636 274.166C157.742 274.378 158.001 274.613 158.384 274.613ZM162.725 273.617V271.089H163.668V270.788H162.725V270.428C162.725 270.086 162.896 269.933 163.173 269.933C163.432 269.933 163.645 270.086 163.762 270.299L163.969 270.016C163.851 269.821 163.58 269.609 163.179 269.609C162.695 269.609 162.342 269.886 162.342 270.458V270.788H161.876V271.089H162.342V273.617H162.725ZM165.081 273.676C165.665 273.676 165.983 273.281 166.083 272.81V273.617H166.466V270.788H166.083V272.421C166.083 272.916 165.847 273.346 165.234 273.346C164.751 273.346 164.539 273.063 164.539 272.609V270.788H164.156V272.692C164.156 273.346 164.527 273.676 165.081 273.676ZM167.682 273.617V271.979C167.682 271.489 167.924 271.053 168.519 271.053C169.009 271.053 169.221 271.336 169.221 271.796V273.617H169.61V271.707C169.61 271.059 169.233 270.729 168.673 270.729C168.107 270.729 167.783 271.118 167.682 271.578V270.788H167.293V273.617H167.682ZM171.416 273.682C171.976 273.682 172.276 273.293 172.365 272.845V273.617H172.748V269.668H172.365V271.566C172.276 271.118 171.976 270.729 171.416 270.729C170.679 270.729 170.237 271.313 170.237 272.203C170.237 273.099 170.679 273.682 171.416 273.682ZM170.632 272.203C170.632 271.413 171.021 271.053 171.534 271.053C172.105 271.053 172.365 271.466 172.365 271.937V272.468C172.365 272.939 172.105 273.358 171.534 273.358C171.021 273.358 170.632 272.998 170.632 272.203ZM173.927 273.617V272.922H173.462V273.617H173.927ZM177.213 273.617L178.044 270.835L178.262 269.998L178.48 270.835L179.311 273.617H179.765L180.909 269.668H180.473L179.718 272.421L179.547 273.252L179.341 272.432L178.516 269.668H178.026L177.189 272.432L176.977 273.252L176.806 272.421L176.069 269.668H175.621L176.759 273.617H177.213ZM182.328 273.676C182.929 273.676 183.307 273.387 183.507 273.04L183.271 272.763C183.148 273.04 182.9 273.352 182.328 273.352C181.768 273.352 181.385 272.998 181.361 272.291H183.519C183.525 272.244 183.537 272.173 183.537 272.102C183.537 271.248 183.053 270.729 182.281 270.729C181.515 270.729 180.99 271.283 180.99 272.203C180.99 273.14 181.538 273.676 182.328 273.676ZM182.281 271.047C182.8 271.047 183.148 271.371 183.183 272.008H181.367C181.42 271.371 181.762 271.047 182.281 271.047ZM185.913 273.617V271.979C185.913 271.489 186.155 271.053 186.656 271.053C187.098 271.053 187.316 271.295 187.316 271.79V273.617H187.699V271.979C187.699 271.489 187.941 271.053 188.448 271.053C188.884 271.053 189.102 271.295 189.102 271.79V273.617H189.491V271.702C189.491 271.053 189.185 270.729 188.642 270.729C188.112 270.729 187.788 271.124 187.693 271.59C187.664 271.018 187.363 270.729 186.85 270.729C186.326 270.729 186.013 271.112 185.913 271.578V270.788H185.524V273.617H185.913ZM190.862 273.676C191.428 273.676 191.793 273.24 191.887 272.833V273.134C191.887 273.494 192.076 273.617 192.359 273.617H192.624V273.27H192.459C192.324 273.27 192.259 273.216 192.259 273.069V271.743C192.259 271.112 191.917 270.729 191.257 270.729C190.655 270.729 190.243 271.065 190.066 271.36L190.337 271.631C190.484 271.318 190.791 271.077 191.215 271.077C191.675 271.077 191.876 271.324 191.876 271.749V271.772L190.803 272.262C190.408 272.438 190.131 272.674 190.131 273.046C190.131 273.423 190.396 273.676 190.862 273.676ZM190.52 272.992C190.52 272.78 190.661 272.639 190.968 272.497L191.887 272.061V272.562C191.887 272.945 191.498 273.352 190.974 273.352C190.697 273.352 190.52 273.228 190.52 272.992ZM193.638 273.617V272.58L194.169 272.079L195.13 273.617H195.601L194.434 271.849L195.577 270.788H195.088L193.992 271.802L193.62 272.167L193.638 271.814V269.668H193.249V273.617H193.638ZM197.168 273.676C197.77 273.676 198.147 273.387 198.347 273.04L198.111 272.763C197.988 273.04 197.74 273.352 197.168 273.352C196.608 273.352 196.225 272.998 196.202 272.291H198.359C198.365 272.244 198.377 272.173 198.377 272.102C198.377 271.248 197.893 270.729 197.121 270.729C196.355 270.729 195.83 271.283 195.83 272.203C195.83 273.14 196.378 273.676 197.168 273.676ZM197.121 271.047C197.64 271.047 197.988 271.371 198.023 272.008H196.207C196.26 271.371 196.602 271.047 197.121 271.047ZM200.753 270.281V269.668H200.364V270.281H200.753ZM200.753 273.617V270.788H200.364V273.617H200.753ZM202.504 273.682C202.87 273.682 203.147 273.511 203.27 273.305L203.135 272.928C203.041 273.128 202.834 273.311 202.581 273.311C202.333 273.311 202.121 273.199 202.121 272.792V271.089H203.07V270.788H202.121V270.092L201.738 270.381V270.788H201.278V271.089H201.738V272.898C201.738 273.411 202.074 273.682 202.504 273.682ZM206.4 273.617C207.644 273.617 208.257 272.892 208.257 271.643C208.257 270.393 207.644 269.668 206.4 269.668H205.097V273.617H206.4ZM206.347 270.01C207.325 270.01 207.862 270.499 207.862 271.643C207.862 272.786 207.325 273.275 206.347 273.275H205.486V270.01H206.347ZM209.383 273.617V269.668H208.994V273.617H209.383ZM212.013 273.617C212.868 273.617 213.346 273.228 213.346 272.562C213.346 272.067 213.057 271.649 212.22 271.56C212.927 271.483 213.169 271.083 213.169 270.67C213.169 270.069 212.774 269.668 211.972 269.668H210.422V273.617H212.013ZM211.848 270.01C212.385 270.01 212.774 270.175 212.774 270.717C212.774 271.254 212.385 271.419 211.831 271.419H210.811V270.01H211.848ZM211.89 271.761C212.497 271.761 212.951 271.985 212.951 272.515C212.951 273.051 212.615 273.275 211.949 273.275H210.811V271.761H211.89ZM214.442 270.281V269.668H214.053V270.281H214.442ZM214.442 273.617V270.788H214.053V273.617H214.442ZM215.657 273.617V272.875C215.751 273.311 216.057 273.682 216.6 273.682C217.342 273.682 217.784 273.099 217.784 272.203C217.784 271.313 217.342 270.729 216.6 270.729C216.057 270.729 215.751 271.1 215.657 271.537V269.668H215.267V273.617H215.657ZM215.657 272.468V271.937C215.657 271.466 215.91 271.053 216.482 271.053C217 271.053 217.39 271.413 217.39 272.203C217.39 272.998 217 273.358 216.482 273.358C215.91 273.358 215.657 272.939 215.657 272.468ZM218.834 273.617V269.668H218.445V273.617H218.834ZM220.844 273.676C221.446 273.676 221.823 273.387 222.023 273.04L221.788 272.763C221.664 273.04 221.416 273.352 220.844 273.352C220.284 273.352 219.901 272.998 219.878 272.291H222.035C222.041 272.244 222.053 272.173 222.053 272.102C222.053 271.248 221.569 270.729 220.797 270.729C220.031 270.729 219.506 271.283 219.506 272.203C219.506 273.14 220.055 273.676 220.844 273.676ZM220.797 271.047C221.316 271.047 221.664 271.371 221.699 272.008H219.884C219.937 271.371 220.279 271.047 220.797 271.047ZM84.9491 283.676C85.515 283.676 85.8805 283.24 85.9748 282.833V283.134C85.9748 283.494 86.1634 283.617 86.4464 283.617H86.7116V283.27H86.5466C86.411 283.27 86.3462 283.216 86.3462 283.069V281.743C86.3462 281.112 86.0043 280.729 85.3441 280.729C84.7428 280.729 84.3302 281.065 84.1534 281.36L84.4245 281.631C84.5719 281.318 84.8784 281.077 85.3028 281.077C85.7626 281.077 85.963 281.324 85.963 281.749V281.772L84.8902 282.262C84.4953 282.438 84.2182 282.674 84.2182 283.046C84.2182 283.423 84.4835 283.676 84.9491 283.676ZM84.6072 282.992C84.6072 282.78 84.7487 282.639 85.0552 282.497L85.9748 282.061V282.562C85.9748 282.945 85.5857 283.352 85.0611 283.352C84.7841 283.352 84.6072 283.228 84.6072 282.992ZM87.7256 283.617V281.979C87.7256 281.489 87.9673 281.053 88.5627 281.053C89.0519 281.053 89.2641 281.336 89.2641 281.796V283.617H89.6532V281.707C89.6532 281.059 89.2759 280.729 88.7159 280.729C88.15 280.729 87.8258 281.118 87.7256 281.578V280.788H87.3366V283.617H87.7256ZM91.4589 283.682C92.0189 283.682 92.3195 283.293 92.4079 282.845V283.617H92.7911V279.668H92.4079V281.566C92.3195 281.118 92.0189 280.729 91.4589 280.729C90.7221 280.729 90.28 281.313 90.28 282.203C90.28 283.099 90.7221 283.682 91.4589 283.682ZM90.6749 282.203C90.6749 281.413 91.064 281.053 91.5768 281.053C92.1486 281.053 92.4079 281.466 92.4079 281.937V282.468C92.4079 282.939 92.1486 283.358 91.5768 283.358C91.064 283.358 90.6749 282.998 90.6749 282.203ZM95.4661 283.676C96.032 283.676 96.3975 283.24 96.4918 282.833V283.134C96.4918 283.494 96.6804 283.617 96.9634 283.617H97.2286V283.27H97.0636C96.928 283.27 96.8631 283.216 96.8631 283.069V281.743C96.8631 281.112 96.5213 280.729 95.8611 280.729C95.2598 280.729 94.8472 281.065 94.6704 281.36L94.9415 281.631C95.0889 281.318 95.3954 281.077 95.8198 281.077C96.2796 281.077 96.48 281.324 96.48 281.749V281.772L95.4072 282.262C95.0122 282.438 94.7352 282.674 94.7352 283.046C94.7352 283.423 95.0005 283.676 95.4661 283.676ZM95.1242 282.992C95.1242 282.78 95.2657 282.639 95.5722 282.497L96.4918 282.061V282.562C96.4918 282.945 96.1027 283.352 95.5781 283.352C95.3011 283.352 95.1242 283.228 95.1242 282.992ZM98.7613 283.676C99.3449 283.676 99.6632 283.281 99.7634 282.81V283.617H100.147V280.788H99.7634V282.421C99.7634 282.916 99.5276 283.346 98.9146 283.346C98.4312 283.346 98.219 283.063 98.219 282.609V280.788H97.8359V282.692C97.8359 283.346 98.2073 283.676 98.7613 283.676ZM101.813 283.682C102.178 283.682 102.455 283.511 102.579 283.305L102.443 282.928C102.349 283.128 102.143 283.311 101.889 283.311C101.642 283.311 101.43 283.199 101.43 282.792V281.089H102.379V280.788H101.43V280.092L101.046 280.381V280.788H100.587V281.089H101.046V282.898C101.046 283.411 101.382 283.682 101.813 283.682ZM104.016 283.676C104.795 283.676 105.343 283.099 105.343 282.203C105.343 281.307 104.795 280.729 104.016 280.729C103.238 280.729 102.696 281.307 102.696 282.203C102.696 283.099 103.238 283.676 104.016 283.676ZM104.016 283.346C103.462 283.346 103.085 282.951 103.085 282.203C103.085 281.448 103.462 281.047 104.016 281.047C104.576 281.047 104.954 281.448 104.954 282.203C104.954 282.951 104.576 283.346 104.016 283.346ZM106.411 283.617V281.979C106.411 281.489 106.653 281.053 107.154 281.053C107.596 281.053 107.814 281.295 107.814 281.79V283.617H108.197V281.979C108.197 281.489 108.439 281.053 108.946 281.053C109.382 281.053 109.6 281.295 109.6 281.79V283.617H109.989V281.702C109.989 281.053 109.682 280.729 109.14 280.729C108.61 280.729 108.285 281.124 108.191 281.59C108.162 281.018 107.861 280.729 107.348 280.729C106.824 280.729 106.511 281.112 106.411 281.578V280.788H106.022V283.617H106.411ZM111.36 283.676C111.926 283.676 112.291 283.24 112.385 282.833V283.134C112.385 283.494 112.574 283.617 112.857 283.617H113.122V283.27H112.957C112.821 283.27 112.757 283.216 112.757 283.069V281.743C112.757 281.112 112.415 280.729 111.755 280.729C111.153 280.729 110.741 281.065 110.564 281.36L110.835 281.631C110.982 281.318 111.289 281.077 111.713 281.077C112.173 281.077 112.374 281.324 112.374 281.749V281.772L111.301 282.262C110.906 282.438 110.629 282.674 110.629 283.046C110.629 283.423 110.894 283.676 111.36 283.676ZM111.018 282.992C111.018 282.78 111.159 282.639 111.466 282.497L112.385 282.061V282.562C112.385 282.945 111.996 283.352 111.472 283.352C111.195 283.352 111.018 283.228 111.018 282.992ZM114.586 283.682C114.952 283.682 115.229 283.511 115.352 283.305L115.217 282.928C115.123 283.128 114.916 283.311 114.663 283.311C114.415 283.311 114.203 283.199 114.203 282.792V281.089H115.152V280.788H114.203V280.092L113.82 280.381V280.788H113.36V281.089H113.82V282.898C113.82 283.411 114.156 283.682 114.586 283.682ZM116.266 280.281V279.668H115.877V280.281H116.266ZM116.266 283.617V280.788H115.877V283.617H116.266ZM118.247 283.676C118.954 283.676 119.396 283.264 119.508 282.692L119.137 282.533C119.078 283.01 118.795 283.352 118.253 283.352C117.693 283.352 117.321 282.951 117.321 282.203C117.321 281.448 117.693 281.047 118.253 281.047C118.795 281.047 119.078 281.395 119.137 281.873L119.508 281.713C119.396 281.142 118.954 280.729 118.253 280.729C117.451 280.729 116.927 281.283 116.927 282.203C116.927 283.122 117.451 283.676 118.247 283.676ZM120.508 283.617V282.922H120.042V283.617H120.508Z" fill="#3D0072"/>
<rect x="83.9844" y="291.462" width="65.5783" height="22.147" rx="11.0735" fill="#FBBF24"/>
<path d="M98.5392 305.642C98.1714 305.642 97.8413 305.585 97.5489 305.472C97.2565 305.359 97.0089 305.194 96.8062 304.977C96.6034 304.755 96.4478 304.486 96.3393 304.17C96.2309 303.854 96.1766 303.491 96.1766 303.081C96.1766 302.671 96.2379 302.308 96.3605 301.992C96.4879 301.676 96.66 301.409 96.8769 301.192C97.0938 300.971 97.3485 300.803 97.6408 300.69C97.9332 300.577 98.2468 300.52 98.5816 300.52C98.7844 300.52 98.9683 300.537 99.1334 300.57C99.2984 300.598 99.4422 300.631 99.5648 300.669C99.6874 300.707 99.7888 300.747 99.869 300.789C99.9492 300.832 100.006 300.862 100.039 300.881L99.777 301.61C99.6639 301.539 99.5012 301.473 99.289 301.412C99.0815 301.346 98.8551 301.313 98.6099 301.313C98.3977 301.313 98.1996 301.35 98.0157 301.426C97.8318 301.496 97.6715 301.605 97.5347 301.751C97.4027 301.897 97.299 302.081 97.2235 302.303C97.1481 302.524 97.1103 302.781 97.1103 303.074C97.1103 303.333 97.1386 303.571 97.1952 303.788C97.2565 304.005 97.3485 304.194 97.4711 304.354C97.5937 304.51 97.7493 304.632 97.9379 304.722C98.1266 304.807 98.3529 304.849 98.617 304.849C98.9329 304.849 99.1899 304.819 99.388 304.757C99.5861 304.691 99.7393 304.63 99.8478 304.573L100.088 305.302C100.032 305.34 99.9539 305.377 99.8548 305.415C99.7605 305.453 99.6474 305.491 99.5153 305.528C99.3833 305.561 99.2347 305.587 99.0697 305.606C98.9046 305.63 98.7278 305.642 98.5392 305.642ZM102.937 302.607C102.866 302.583 102.767 302.56 102.64 302.536C102.517 302.508 102.373 302.494 102.208 302.494C102.114 302.494 102.012 302.503 101.904 302.522C101.8 302.541 101.727 302.557 101.685 302.572V305.535H100.829V302.013C100.994 301.951 101.199 301.895 101.444 301.843C101.694 301.786 101.97 301.758 102.272 301.758C102.328 301.758 102.394 301.763 102.47 301.772C102.545 301.777 102.621 301.786 102.696 301.801C102.772 301.81 102.845 301.824 102.916 301.843C102.986 301.857 103.043 301.871 103.085 301.885L102.937 302.607ZM103.477 303.703C103.477 303.378 103.524 303.093 103.618 302.847C103.717 302.602 103.847 302.399 104.007 302.239C104.167 302.074 104.351 301.951 104.559 301.871C104.766 301.786 104.979 301.744 105.195 301.744C105.705 301.744 106.101 301.902 106.384 302.218C106.671 302.534 106.815 303.005 106.815 303.633C106.815 303.68 106.813 303.734 106.808 303.795C106.808 303.852 106.806 303.904 106.801 303.951H104.361C104.384 304.248 104.488 304.479 104.672 304.644C104.861 304.804 105.132 304.885 105.485 304.885C105.693 304.885 105.882 304.866 106.051 304.828C106.226 304.79 106.363 304.75 106.462 304.708L106.575 305.408C106.528 305.432 106.462 305.458 106.377 305.486C106.297 305.509 106.202 305.531 106.094 305.55C105.99 305.573 105.877 305.592 105.754 305.606C105.632 305.62 105.507 305.627 105.379 305.627C105.054 305.627 104.771 305.58 104.531 305.486C104.29 305.387 104.092 305.252 103.936 305.083C103.781 304.908 103.665 304.705 103.59 304.474C103.514 304.239 103.477 303.982 103.477 303.703ZM105.959 303.321C105.959 303.204 105.943 303.093 105.91 302.989C105.877 302.88 105.827 302.789 105.761 302.713C105.7 302.633 105.622 302.572 105.528 302.529C105.438 302.482 105.33 302.458 105.203 302.458C105.07 302.458 104.955 302.484 104.856 302.536C104.757 302.583 104.672 302.647 104.601 302.727C104.535 302.807 104.483 302.899 104.446 303.003C104.408 303.107 104.382 303.213 104.368 303.321H105.959ZM109.024 304.934C109.288 304.934 109.489 304.92 109.626 304.892V303.944C109.578 303.93 109.51 303.916 109.42 303.901C109.331 303.887 109.232 303.88 109.123 303.88C109.029 303.88 108.932 303.887 108.833 303.901C108.739 303.916 108.652 303.942 108.572 303.979C108.496 304.017 108.435 304.071 108.388 304.142C108.34 304.208 108.317 304.293 108.317 304.397C108.317 304.599 108.381 304.741 108.508 304.821C108.635 304.896 108.807 304.934 109.024 304.934ZM108.954 301.744C109.236 301.744 109.475 301.779 109.668 301.85C109.861 301.921 110.015 302.02 110.128 302.147C110.246 302.275 110.328 302.43 110.375 302.614C110.427 302.793 110.453 302.991 110.453 303.208V305.451C110.321 305.479 110.121 305.512 109.852 305.55C109.588 305.592 109.288 305.613 108.954 305.613C108.732 305.613 108.529 305.592 108.345 305.55C108.161 305.507 108.003 305.439 107.871 305.344C107.744 305.25 107.643 305.127 107.567 304.977C107.496 304.826 107.461 304.639 107.461 304.418C107.461 304.206 107.501 304.026 107.581 303.88C107.666 303.734 107.779 303.616 107.921 303.527C108.062 303.432 108.225 303.366 108.409 303.328C108.597 303.286 108.793 303.265 108.996 303.265C109.09 303.265 109.189 303.272 109.293 303.286C109.397 303.295 109.508 303.314 109.626 303.343V303.201C109.626 303.102 109.614 303.008 109.59 302.918C109.567 302.829 109.524 302.751 109.463 302.685C109.406 302.614 109.328 302.56 109.229 302.522C109.135 302.484 109.015 302.466 108.869 302.466C108.671 302.466 108.489 302.48 108.324 302.508C108.159 302.536 108.025 302.569 107.921 302.607L107.815 301.914C107.923 301.876 108.081 301.838 108.289 301.801C108.496 301.763 108.718 301.744 108.954 301.744ZM111.459 300.86L112.315 300.718V301.836H113.63V302.55H112.315V304.057C112.315 304.354 112.362 304.566 112.456 304.694C112.55 304.821 112.711 304.885 112.937 304.885C113.093 304.885 113.23 304.868 113.347 304.835C113.47 304.802 113.567 304.771 113.637 304.743L113.779 305.422C113.68 305.465 113.55 305.507 113.39 305.55C113.23 305.597 113.041 305.62 112.824 305.62C112.56 305.62 112.338 305.585 112.159 305.514C111.985 305.443 111.845 305.342 111.742 305.21C111.638 305.073 111.565 304.911 111.522 304.722C111.48 304.529 111.459 304.309 111.459 304.064V300.86ZM114.19 303.703C114.19 303.378 114.238 303.093 114.332 302.847C114.431 302.602 114.561 302.399 114.721 302.239C114.881 302.074 115.065 301.951 115.273 301.871C115.48 301.786 115.692 301.744 115.909 301.744C116.419 301.744 116.815 301.902 117.098 302.218C117.385 302.534 117.529 303.005 117.529 303.633C117.529 303.68 117.527 303.734 117.522 303.795C117.522 303.852 117.52 303.904 117.515 303.951H115.075C115.098 304.248 115.202 304.479 115.386 304.644C115.575 304.804 115.846 304.885 116.199 304.885C116.407 304.885 116.595 304.866 116.765 304.828C116.94 304.79 117.076 304.75 117.175 304.708L117.289 305.408C117.241 305.432 117.175 305.458 117.091 305.486C117.01 305.509 116.916 305.531 116.808 305.55C116.704 305.573 116.591 305.592 116.468 305.606C116.346 305.62 116.221 305.627 116.093 305.627C115.768 305.627 115.485 305.58 115.244 305.486C115.004 305.387 114.806 305.252 114.65 305.083C114.495 304.908 114.379 304.705 114.304 304.474C114.228 304.239 114.19 303.982 114.19 303.703ZM116.673 303.321C116.673 303.204 116.657 303.093 116.624 302.989C116.591 302.88 116.541 302.789 116.475 302.713C116.414 302.633 116.336 302.572 116.242 302.529C116.152 302.482 116.044 302.458 115.916 302.458C115.784 302.458 115.669 302.484 115.57 302.536C115.471 302.583 115.386 302.647 115.315 302.727C115.249 302.807 115.197 302.899 115.16 303.003C115.122 303.107 115.096 303.213 115.082 303.321H116.673ZM121.389 304.934C121.653 304.934 121.854 304.92 121.99 304.892V303.944C121.943 303.93 121.875 303.916 121.785 303.901C121.696 303.887 121.597 303.88 121.488 303.88C121.394 303.88 121.297 303.887 121.198 303.901C121.104 303.916 121.017 303.942 120.936 303.979C120.861 304.017 120.8 304.071 120.752 304.142C120.705 304.208 120.682 304.293 120.682 304.397C120.682 304.599 120.745 304.741 120.873 304.821C121 304.896 121.172 304.934 121.389 304.934ZM121.318 301.744C121.601 301.744 121.839 301.779 122.033 301.85C122.226 301.921 122.379 302.02 122.493 302.147C122.61 302.275 122.693 302.43 122.74 302.614C122.792 302.793 122.818 302.991 122.818 303.208V305.451C122.686 305.479 122.485 305.512 122.217 305.55C121.953 305.592 121.653 305.613 121.318 305.613C121.097 305.613 120.894 305.592 120.71 305.55C120.526 305.507 120.368 305.439 120.236 305.344C120.109 305.25 120.007 305.127 119.932 304.977C119.861 304.826 119.826 304.639 119.826 304.418C119.826 304.206 119.866 304.026 119.946 303.88C120.031 303.734 120.144 303.616 120.286 303.527C120.427 303.432 120.59 303.366 120.774 303.328C120.962 303.286 121.158 303.265 121.361 303.265C121.455 303.265 121.554 303.272 121.658 303.286C121.762 303.295 121.872 303.314 121.99 303.343V303.201C121.99 303.102 121.979 303.008 121.955 302.918C121.931 302.829 121.889 302.751 121.828 302.685C121.771 302.614 121.693 302.56 121.594 302.522C121.5 302.484 121.38 302.466 121.233 302.466C121.035 302.466 120.854 302.48 120.689 302.508C120.524 302.536 120.389 302.569 120.286 302.607L120.18 301.914C120.288 301.876 120.446 301.838 120.653 301.801C120.861 301.763 121.083 301.744 121.318 301.744ZM126.451 304.8C126.503 304.804 126.571 304.809 126.656 304.814C126.741 304.814 126.856 304.814 127.002 304.814C127.601 304.814 128.047 304.663 128.339 304.361C128.636 304.055 128.785 303.628 128.785 303.081C128.785 302.524 128.641 302.098 128.353 301.801C128.066 301.504 127.62 301.355 127.017 301.355C126.753 301.355 126.564 301.362 126.451 301.376V304.8ZM129.719 303.081C129.719 303.505 129.653 303.875 129.521 304.191C129.389 304.503 129.2 304.764 128.955 304.977C128.714 305.184 128.422 305.34 128.078 305.443C127.738 305.542 127.361 305.592 126.946 305.592C126.748 305.592 126.524 305.583 126.274 305.564C126.024 305.55 125.786 305.517 125.559 305.465V300.704C125.786 300.652 126.026 300.619 126.281 300.605C126.536 300.591 126.762 300.584 126.96 300.584C127.37 300.584 127.745 300.633 128.085 300.732C128.424 300.827 128.714 300.978 128.955 301.185C129.2 301.388 129.389 301.647 129.521 301.963C129.653 302.275 129.719 302.647 129.719 303.081ZM130.692 300.633H131.583V305.535H130.692V300.633ZM134.236 305.592C133.976 305.592 133.715 305.583 133.45 305.564C133.186 305.55 132.955 305.517 132.757 305.465V300.704C132.861 300.685 132.972 300.669 133.09 300.655C133.208 300.636 133.328 300.622 133.45 300.612C133.573 300.603 133.693 300.596 133.811 300.591C133.934 300.586 134.049 300.584 134.158 300.584C134.455 300.584 134.731 300.608 134.985 300.655C135.24 300.697 135.459 300.77 135.643 300.874C135.832 300.978 135.978 301.114 136.082 301.284C136.186 301.454 136.237 301.664 136.237 301.914C136.237 302.145 136.181 302.343 136.068 302.508C135.959 302.673 135.806 302.805 135.608 302.904C135.905 303.003 136.124 303.149 136.266 303.343C136.407 303.536 136.478 303.781 136.478 304.078C136.478 304.583 136.294 304.962 135.926 305.217C135.558 305.467 134.995 305.592 134.236 305.592ZM133.634 303.328V304.821C133.733 304.83 133.84 304.837 133.953 304.842C134.066 304.847 134.17 304.849 134.264 304.849C134.448 304.849 134.618 304.837 134.773 304.814C134.934 304.79 135.07 304.75 135.184 304.694C135.301 304.632 135.393 304.552 135.459 304.453C135.53 304.354 135.565 304.227 135.565 304.071C135.565 303.793 135.464 303.6 135.261 303.491C135.059 303.383 134.778 303.328 134.42 303.328H133.634ZM133.634 302.628H134.264C134.603 302.628 134.87 302.581 135.063 302.487C135.257 302.388 135.353 302.213 135.353 301.963C135.353 301.727 135.252 301.56 135.049 301.461C134.851 301.362 134.592 301.313 134.271 301.313C134.134 301.313 134.012 301.315 133.903 301.32C133.799 301.324 133.71 301.331 133.634 301.341V302.628Z" fill="white"/>
<path d="M86.9915 262.06C88.9532 262.06 90.0001 260.852 90.0001 258.9C90.0001 256.948 88.9438 255.741 86.9915 255.741H84.6054V262.06H86.9915ZM86.8595 256.684C88.1704 256.684 88.8872 257.316 88.8872 258.9C88.8872 260.485 88.1704 261.117 86.8689 261.117H85.6711V256.684H86.8595ZM92.0631 262.06V255.741H90.9973V262.06H92.0631ZM96.2949 262.06C97.653 262.06 98.4924 261.503 98.4924 260.381C98.4924 259.532 97.9831 258.891 96.5495 258.778C97.5681 258.693 98.2283 258.193 98.2283 257.353C98.2283 256.42 97.6247 255.741 96.342 255.741H93.4749V262.06H96.2949ZM96.0213 256.684C96.6815 256.684 97.1248 256.891 97.1248 257.533C97.1248 258.174 96.691 258.372 96.0591 258.372H94.5406V256.684H96.0213ZM96.1628 259.268C96.8985 259.268 97.3983 259.551 97.3983 260.192C97.3983 260.834 97.0022 261.117 96.1345 261.117H94.5406V259.268H96.1628Z" fill="#3D0072"/>
<rect x="107.825" y="254.483" width="23.1539" height="9.15394" rx="4.57697" fill="#FEEAB9"/>
<path d="M113.509 260.06V256.993H113.175C113.029 257.195 112.809 257.268 112.562 257.268V257.542H113.111V260.06H113.509ZM116.178 260.06V259.707H114.91L114.535 259.735L114.864 259.456L115.34 259.007C115.62 258.742 116.1 258.284 116.1 257.78C116.1 257.309 115.83 256.947 115.23 256.947C114.526 256.947 114.045 257.433 114.109 258.037L114.48 258.27C114.402 257.661 114.69 257.332 115.203 257.332C115.551 257.332 115.688 257.561 115.688 257.808C115.688 258.147 115.427 258.43 115.093 258.76L114.091 259.748V260.06H116.178ZM117.176 258.334C117.556 258.334 117.84 258.064 117.84 257.643C117.84 257.222 117.556 256.952 117.176 256.952C116.792 256.952 116.508 257.222 116.508 257.643C116.508 258.064 116.792 258.334 117.176 258.334ZM117.08 260.06L119.24 256.993H118.824L116.663 260.06H117.08ZM117.176 258.041C116.961 258.041 116.833 257.886 116.833 257.643C116.833 257.396 116.961 257.24 117.176 257.24C117.391 257.24 117.524 257.396 117.524 257.643C117.524 257.886 117.391 258.041 117.176 258.041ZM118.741 260.06C119.121 260.06 119.405 259.79 119.405 259.369C119.405 258.947 119.121 258.677 118.741 258.677C118.357 258.677 118.073 258.947 118.073 259.369C118.073 259.79 118.357 260.06 118.741 260.06ZM118.741 259.767C118.526 259.767 118.398 259.611 118.398 259.369C118.398 259.121 118.526 258.966 118.741 258.966C118.957 258.966 119.089 259.121 119.089 259.369C119.089 259.611 118.957 259.767 118.741 259.767ZM121.228 260.911V259.488C121.306 259.822 121.516 260.105 121.942 260.105C122.5 260.105 122.848 259.648 122.848 258.947C122.848 258.247 122.5 257.794 121.942 257.794C121.516 257.794 121.306 258.078 121.228 258.412V257.844H120.83V260.911H121.228ZM121.228 259.108V258.792C121.228 258.426 121.384 258.128 121.805 258.128C122.157 258.128 122.446 258.385 122.446 258.947C122.446 259.515 122.157 259.771 121.805 259.771C121.384 259.771 121.228 259.474 121.228 259.108ZM123.718 260.06V259.465H123.238V260.06H123.718ZM124.729 260.105C125.187 260.105 125.425 259.776 125.498 259.483V259.639C125.498 259.95 125.663 260.06 125.892 260.06H126.148V259.698H126.006C125.924 259.698 125.883 259.666 125.883 259.561V258.65C125.883 258.124 125.59 257.799 125.045 257.799C124.551 257.799 124.221 258.078 124.088 258.307L124.358 258.586C124.473 258.343 124.683 258.16 124.999 258.16C125.347 258.16 125.471 258.352 125.484 258.613L124.683 258.97C124.368 259.112 124.143 259.3 124.143 259.597C124.143 259.89 124.354 260.105 124.729 260.105ZM124.546 259.533C124.546 259.396 124.642 259.304 124.853 259.204L125.498 258.902V259.208C125.498 259.529 125.233 259.776 124.857 259.776C124.651 259.776 124.546 259.684 124.546 259.533Z" fill="black"/>
</g>
<g clip-path="url(#clip2_1_7965)">
<g filter="url(#filter1_d_1_7965)">
<rect x="22.6807" y="341.886" width="216.921" height="90.7766" rx="4.21366" fill="#FCEFF3"/>
</g>
</g>
<path opacity="0.35" fill-rule="evenodd" clip-rule="evenodd" d="M233.569 14.0488C232.891 14.0488 232.622 14.0942 232.346 14.2239C232.112 14.3335 231.93 14.4924 231.805 14.6972C231.657 14.9398 231.605 15.1748 231.605 15.7692V18.4196C231.605 19.0139 231.657 19.2489 231.805 19.4915C231.93 19.6963 232.112 19.8553 232.346 19.9648C232.622 20.0945 232.891 20.1399 233.569 20.1399H243.77C244.448 20.1399 244.717 20.0945 244.994 19.9648C245.227 19.8553 245.409 19.6963 245.534 19.4915C245.682 19.2489 245.734 19.0139 245.734 18.4196V15.7692C245.734 15.1748 245.682 14.9398 245.534 14.6972C245.409 14.4924 245.227 14.3335 244.994 14.2239C244.717 14.0942 244.448 14.0488 243.77 14.0488H233.569Z" stroke="black" stroke-width="0.589458"/>
<path opacity="0.4" d="M246.745 15.9154V18.2732C247.286 18.0735 247.638 17.609 247.638 17.0943C247.638 16.5796 247.286 16.1151 246.745 15.9154Z" fill="black"/>
<path d="M233.762 14.933H243.572C243.972 14.933 244.117 14.9695 244.263 15.038C244.409 15.1065 244.524 15.207 244.602 15.3351C244.68 15.4631 244.722 15.5902 244.722 15.9405V18.2481C244.722 18.5985 244.68 18.7255 244.602 18.8536C244.524 18.9817 244.409 19.0822 244.263 19.1507C244.117 19.2192 243.972 19.2557 243.572 19.2557H233.762C233.362 19.2557 233.217 19.2192 233.071 19.1507C232.925 19.0822 232.81 18.9817 232.732 18.8536C232.653 18.7255 232.612 18.5985 232.612 18.2481V15.9405C232.612 15.5902 232.653 15.4631 232.732 15.3351C232.81 15.207 232.925 15.1065 233.071 15.038C233.217 14.9695 233.362 14.933 233.762 14.933Z" fill="black"/>
<path d="M222.743 15.0989C224.24 15.099 225.679 15.6024 226.764 16.5053C226.846 16.575 226.976 16.5741 227.057 16.5033L227.838 15.8134C227.878 15.7775 227.901 15.7289 227.901 15.6783C227.9 15.6277 227.877 15.5793 227.836 15.5438C224.989 13.1552 220.497 13.1552 217.65 15.5438C217.609 15.5792 217.585 15.6276 217.585 15.6782C217.585 15.7288 217.607 15.7775 217.648 15.8134L218.429 16.5033C218.509 16.5742 218.64 16.5751 218.722 16.5053C219.807 15.6024 221.246 15.0989 222.743 15.0989ZM222.743 17.3433C223.565 17.3433 224.358 17.6109 224.968 18.0941C225.051 18.1627 225.18 18.1612 225.261 18.0908L226.041 17.4009C226.082 17.3647 226.105 17.3156 226.104 17.2646C226.103 17.2136 226.079 17.1649 226.038 17.1295C224.181 15.6179 221.307 15.6179 219.45 17.1295C219.408 17.1649 219.384 17.2136 219.384 17.2646C219.383 17.3157 219.406 17.3648 219.447 17.4009L220.227 18.0908C220.307 18.1612 220.437 18.1627 220.52 18.0941C221.129 17.6112 221.921 17.3436 222.743 17.3433ZM224.242 18.9897C224.284 18.9539 224.307 18.9046 224.305 18.8534C224.304 18.8023 224.279 18.7538 224.236 18.7195C223.374 18.0816 222.112 18.0816 221.251 18.7195C221.207 18.7538 221.182 18.8022 221.181 18.8534C221.179 18.9045 221.202 18.9539 221.244 18.9897L222.593 20.1816C222.633 20.2166 222.687 20.2364 222.743 20.2364C222.799 20.2364 222.853 20.2166 222.893 20.1816L224.242 18.9897Z" fill="black"/>
<path d="M203.454 17.8802H204.127C204.498 17.8802 204.8 18.1441 204.8 18.4696V19.6485C204.8 19.9741 204.498 20.238 204.127 20.238H203.454C203.082 20.238 202.781 19.9741 202.781 19.6485V18.4696C202.781 18.1441 203.082 17.8802 203.454 17.8802ZM206.594 16.7012H207.266C207.638 16.7012 207.939 16.9652 207.939 17.2907V19.6485C207.939 19.9741 207.638 20.238 207.266 20.238H206.594C206.222 20.238 205.921 19.9741 205.921 19.6485V17.2907C205.921 16.9652 206.222 16.7012 206.594 16.7012ZM209.733 15.3258H210.406C210.778 15.3258 211.079 15.5898 211.079 15.9153V19.6485C211.079 19.9741 210.778 20.238 210.406 20.238H209.733C209.362 20.238 209.06 19.9741 209.06 19.6485V15.9153C209.06 15.5898 209.362 15.3258 209.733 15.3258ZM212.873 13.9504H213.546C213.917 13.9504 214.218 14.2143 214.218 14.5399V19.6485C214.218 19.9741 213.917 20.238 213.546 20.238H212.873C212.501 20.238 212.2 19.9741 212.2 19.6485V14.5399C212.2 14.2143 212.501 13.9504 212.873 13.9504Z" fill="black"/>
<path d="M27.4207 14.3455C27.5916 14.2748 27.7685 14.1952 27.9512 14.1068C28.1398 14.0125 28.3226 13.9123 28.4994 13.8062C28.6762 13.6942 28.8442 13.5792 29.0034 13.4613C29.1684 13.3375 29.3158 13.2079 29.4455 13.0723H30.365V19.1997H29.0476V14.7876C28.8708 14.9055 28.6733 15.0146 28.4552 15.1148C28.2371 15.2091 28.0249 15.2916 27.8186 15.3623L27.4207 14.3455ZM36.2127 14.6815C36.2127 14.9055 36.1685 15.1207 36.0801 15.327C35.9916 15.5333 35.8767 15.7337 35.7352 15.9282C35.5938 16.1168 35.4346 16.2996 35.2578 16.4764C35.0809 16.6532 34.907 16.8212 34.7361 16.9804C34.6477 17.0629 34.5504 17.1572 34.4443 17.2633C34.3441 17.3635 34.2468 17.4667 34.1525 17.5728C34.0582 17.6789 33.9728 17.7791 33.8961 17.8734C33.8254 17.9618 33.7812 18.0355 33.7635 18.0945H36.3984V19.1997H32.3134C32.3016 19.1349 32.2957 19.0523 32.2957 18.9521C32.2957 18.8519 32.2957 18.7812 32.2957 18.7399C32.2957 18.457 32.34 18.1976 32.4284 17.9618C32.5227 17.7261 32.6435 17.508 32.7909 17.3075C32.9383 17.1012 33.1033 16.9097 33.286 16.7328C33.4747 16.556 33.6603 16.3791 33.8431 16.2023C33.9845 16.0667 34.1172 15.94 34.241 15.8221C34.3647 15.6983 34.4738 15.5804 34.5681 15.4684C34.6624 15.3505 34.7361 15.2356 34.7892 15.1236C34.8422 15.0057 34.8687 14.8878 34.8687 14.7699C34.8687 14.5106 34.795 14.3278 34.6477 14.2217C34.5003 14.1156 34.3176 14.0626 34.0995 14.0626C33.9403 14.0626 33.79 14.0891 33.6485 14.1422C33.513 14.1893 33.3862 14.2483 33.2683 14.319C33.1564 14.3838 33.0591 14.4516 32.9766 14.5224C32.894 14.5872 32.8321 14.6402 32.7909 14.6815L32.1366 13.762C32.3959 13.5203 32.6966 13.3228 33.0385 13.1695C33.3862 13.0104 33.7576 12.9308 34.1525 12.9308C34.5121 12.9308 34.8216 12.9721 35.0809 13.0546C35.3403 13.1371 35.5525 13.255 35.7175 13.4083C35.8885 13.5556 36.0123 13.7384 36.0889 13.9565C36.1714 14.1687 36.2127 14.4104 36.2127 14.6815ZM38.7623 15.3623C38.7623 15.6276 38.6769 15.831 38.5059 15.9724C38.3409 16.108 38.1522 16.1758 37.94 16.1758C37.7278 16.1758 37.5363 16.108 37.3653 15.9724C37.2003 15.831 37.1177 15.6276 37.1177 15.3623C37.1177 15.0971 37.2003 14.8967 37.3653 14.7611C37.5363 14.6196 37.7278 14.5489 37.94 14.5489C38.1522 14.5489 38.3409 14.6196 38.5059 14.7611C38.6769 14.8967 38.7623 15.0971 38.7623 15.3623ZM38.7623 18.5012C38.7623 18.7665 38.6769 18.9698 38.5059 19.1113C38.3409 19.2469 38.1522 19.3147 37.94 19.3147C37.7278 19.3147 37.5363 19.2469 37.3653 19.1113C37.2003 18.9698 37.1177 18.7665 37.1177 18.5012C37.1177 18.2359 37.2003 18.0355 37.3653 17.9C37.5363 17.7585 37.7278 17.6877 37.94 17.6877C38.1522 17.6877 38.3409 17.7585 38.5059 17.9C38.6769 18.0355 38.7623 18.2359 38.7623 18.5012ZM43.75 16.1227C43.75 17.1543 43.5525 17.9471 43.1576 18.5012C42.7685 19.0494 42.2292 19.3235 41.5395 19.3235C40.8498 19.3235 40.3075 19.0494 39.9126 18.5012C39.5236 17.9471 39.329 17.1543 39.329 16.1227C39.329 15.6099 39.3791 15.156 39.4794 14.7611C39.5855 14.3661 39.7358 14.0331 39.9303 13.762C40.1248 13.4908 40.3576 13.2845 40.6288 13.143C40.8999 13.0016 41.2035 12.9308 41.5395 12.9308C42.2292 12.9308 42.7685 13.2079 43.1576 13.762C43.5525 14.3101 43.75 15.0971 43.75 16.1227ZM42.406 16.1227C42.406 15.8162 42.3913 15.5392 42.3618 15.2916C42.3323 15.0381 42.2852 14.82 42.2203 14.6373C42.1555 14.4546 42.0671 14.3131 41.9551 14.2129C41.8431 14.1127 41.7046 14.0626 41.5395 14.0626C41.3745 14.0626 41.2359 14.1127 41.1239 14.2129C41.0178 14.3131 40.9294 14.4546 40.8587 14.6373C40.7938 14.82 40.7467 15.0381 40.7172 15.2916C40.6877 15.5392 40.673 15.8162 40.673 16.1227C40.673 16.4293 40.6877 16.7092 40.7172 16.9627C40.7467 17.2162 40.7938 17.4343 40.8587 17.617C40.9294 17.7997 41.0178 17.9412 41.1239 18.0414C41.2359 18.1416 41.3745 18.1917 41.5395 18.1917C41.7046 18.1917 41.8431 18.1416 41.9551 18.0414C42.0671 17.9412 42.1555 17.7997 42.2203 17.617C42.2852 17.4343 42.3323 17.2162 42.3618 16.9627C42.3913 16.7092 42.406 16.4293 42.406 16.1227ZM48.7753 16.1227C48.7753 17.1543 48.5779 17.9471 48.1829 18.5012C47.7939 19.0494 47.2545 19.3235 46.5649 19.3235C45.8752 19.3235 45.3329 19.0494 44.938 18.5012C44.5489 17.9471 44.3544 17.1543 44.3544 16.1227C44.3544 15.6099 44.4045 15.156 44.5047 14.7611C44.6108 14.3661 44.7611 14.0331 44.9557 13.762C45.1502 13.4908 45.383 13.2845 45.6542 13.143C45.9253 13.0016 46.2289 12.9308 46.5649 12.9308C47.2545 12.9308 47.7939 13.2079 48.1829 13.762C48.5779 14.3101 48.7753 15.0971 48.7753 16.1227ZM47.4314 16.1227C47.4314 15.8162 47.4166 15.5392 47.3872 15.2916C47.3577 15.0381 47.3105 14.82 47.2457 14.6373C47.1809 14.4546 47.0924 14.3131 46.9804 14.2129C46.8684 14.1127 46.7299 14.0626 46.5649 14.0626C46.3998 14.0626 46.2613 14.1127 46.1493 14.2129C46.0432 14.3131 45.9548 14.4546 45.884 14.6373C45.8192 14.82 45.7721 15.0381 45.7426 15.2916C45.7131 15.5392 45.6984 15.8162 45.6984 16.1227C45.6984 16.4293 45.7131 16.7092 45.7426 16.9627C45.7721 17.2162 45.8192 17.4343 45.884 17.617C45.9548 17.7997 46.0432 17.9412 46.1493 18.0414C46.2613 18.1416 46.3998 18.1917 46.5649 18.1917C46.7299 18.1917 46.8684 18.1416 46.9804 18.0414C47.0924 17.9412 47.1809 17.7997 47.2457 17.617C47.3105 17.4343 47.3577 17.2162 47.3872 16.9627C47.4166 16.7092 47.4314 16.4293 47.4314 16.1227Z" fill="black"/>
</g>
<rect x="2.5" y="2.5" width="258" height="564" rx="25.5" stroke="#E8356D" stroke-width="5"/>
<defs>
<filter id="filter0_d_1_7965" x="14.2533" y="232.749" width="233.776" height="107.631" filterUnits="userSpaceOnUse" color-interpolation-filters="sRGB">
<feFlood flood-opacity="0" result="BackgroundImageFix"/>
<feColorMatrix in="SourceAlpha" type="matrix" values="0 0 0 0 0 0 0 0 0 0 0 0 0 0 0 0 0 0 127 0" result="hardAlpha"/>
<feOffset dy="4.21366"/>
<feGaussianBlur stdDeviation="4.21366"/>
<feComposite in2="hardAlpha" operator="out"/>
<feColorMatrix type="matrix" values="0 0 0 0 0.398122 0 0 0 0 0.113021 0 0 0 0 0.645833 0 0 0 0.12 0"/>
<feBlend mode="normal" in2="BackgroundImageFix" result="effect1_dropShadow_1_7965"/>
<feBlend mode="normal" in="SourceGraphic" in2="effect1_dropShadow_1_7965" result="shape"/>
</filter>
<filter id="filter1_d_1_7965" x="14.2533" y="337.672" width="233.776" height="107.631" filterUnits="userSpaceOnUse" color-interpolation-filters="sRGB">
<feFlood flood-opacity="0" result="BackgroundImageFix"/>
<feColorMatrix in="SourceAlpha" type="matrix" values="0 0 0 0 0 0 0 0 0 0 0 0 0 0 0 0 0 0 127 0" result="hardAlpha"/>
<feOffset dy="4.21366"/>
<feGaussianBlur stdDeviation="4.21366"/>
<feComposite in2="hardAlpha" operator="out"/>
<feColorMatrix type="matrix" values="0 0 0 0 0.398122 0 0 0 0 0.113021 0 0 0 0 0.645833 0 0 0 0.12 0"/>
<feBlend mode="normal" in2="BackgroundImageFix" result="effect1_dropShadow_1_7965"/>
<feBlend mode="normal" in="SourceGraphic" in2="effect1_dropShadow_1_7965" result="shape"/>
</filter>
<clipPath id="clip0_1_7965">
<rect width="252.288" height="539.944" fill="white" transform="translate(5)"/>
</clipPath>
<clipPath id="clip1_1_7965">
<rect x="22.6802" y="236.962" width="216.921" height="90.7766" rx="4.21366" fill="white"/>
</clipPath>
<clipPath id="clip2_1_7965">
<rect x="22.6802" y="341.886" width="216.921" height="90.7766" rx="4.21366" fill="white"/>
</clipPath>
</defs>
</svg>
