<svg width="263" height="346" viewBox="0 0 263 346" fill="none" xmlns="http://www.w3.org/2000/svg">
<g clip-path="url(#clip0_1_8101)">
<rect x="5" y="5" width="253" height="359" rx="20" fill="white"/>
<path d="M33.0393 139.236C36.255 139.236 38.6667 137.581 38.6667 134.72C38.6667 131.694 36.3968 130.701 33.8668 130.086L32.0935 129.66C30.3674 129.235 29.2797 128.738 29.2797 127.343C29.2797 126.137 30.3674 125.428 31.8807 125.428C33.8195 125.428 35.522 126.279 36.3968 128.242L38.4066 126.326C37.2717 124.151 34.9545 122.945 32.0462 122.945C29.0669 122.945 26.4896 124.553 26.4896 127.532C26.4896 130.535 28.8778 131.552 31.124 132.025L32.6136 132.356C34.6707 132.805 35.9476 133.231 35.9476 134.768C35.9476 136.21 34.6707 136.777 33.0865 136.777C31.1477 136.777 28.7595 135.879 27.9083 133.562L26.0167 135.477C27.2463 138.149 30.0127 139.236 33.0393 139.236ZM46.188 139.236C48.7417 139.236 50.3022 138.078 51.1771 136.754L49.5456 135.051C49.12 136.021 48.2215 137.061 46.2117 137.061C44.391 137.061 43.1851 135.95 43.0432 133.893H51.2717C51.3189 133.656 51.3662 133.16 51.3662 132.734C51.3662 129.542 49.451 127.249 45.9989 127.249C42.7595 127.249 40.5132 129.637 40.5132 133.254C40.5132 136.848 42.7595 139.236 46.188 139.236ZM45.9989 129.377C47.7486 129.377 48.7889 130.37 48.9781 132.19H43.0669C43.2797 130.322 44.3674 129.377 45.9989 129.377ZM57.6419 139.26C59.3207 139.26 60.4557 138.48 60.9522 137.747L60.1246 135.382C59.7936 136.044 59.1315 136.777 58.233 136.777C57.4528 136.777 56.8616 136.47 56.8616 135.217V129.542H60.3847V127.485H56.8616V124.411L54.2134 126.09V127.485H52.4164V129.542H54.2134V135.855C54.2134 137.889 55.4666 139.26 57.6419 139.26ZM112.234 139.236C114.646 139.236 115.757 137.439 116.112 135.926V136.777C116.112 138.433 117.081 139 118.311 139H119.942V136.73H119.209C118.784 136.73 118.594 136.565 118.594 136.044V131.717C118.594 128.88 116.987 127.249 114.126 127.249C111.572 127.249 109.775 128.573 108.876 129.802L110.461 131.694C111.123 130.488 112.329 129.589 113.866 129.589C115.45 129.589 115.97 130.37 116.064 131.528L112.21 133.16C110.342 133.893 109.207 134.886 109.207 136.517C109.207 138.172 110.342 139.236 112.234 139.236ZM111.761 136.115C111.761 135.524 112.163 135.122 113.156 134.673L116.112 133.349V134.578C116.112 136.139 114.93 137.179 113.18 137.179C112.21 137.179 111.761 136.777 111.761 136.115ZM124.616 139V132.545C124.616 130.653 125.278 129.4 126.838 129.4C128.399 129.4 129.061 130.204 129.061 131.788V139H131.709V132.545C131.709 130.653 132.371 129.4 133.932 129.4C135.492 129.4 136.154 130.204 136.154 131.788V139H138.803V130.984C138.803 128.596 137.644 127.249 135.445 127.249C133.246 127.249 132.111 128.833 131.709 130.653C131.591 128.478 130.456 127.249 128.351 127.249C126.176 127.249 125.041 128.809 124.616 130.63V127.485H121.967V139H124.616ZM146.326 139.236C149.684 139.236 151.954 136.825 151.954 133.254C151.954 129.66 149.684 127.249 146.326 127.249C143.016 127.249 140.746 129.66 140.746 133.254C140.746 136.825 143.016 139.236 146.326 139.236ZM146.35 137.037C144.647 137.037 143.465 135.903 143.465 133.254C143.465 130.582 144.647 129.447 146.35 129.447C148.076 129.447 149.258 130.582 149.258 133.254C149.258 135.903 148.076 137.037 146.35 137.037ZM157.748 139.236C160.042 139.236 161.224 137.676 161.65 135.855V139H164.321V127.485H161.65V133.94C161.65 135.832 160.988 137.085 159.049 137.085C157.275 137.085 156.802 136.115 156.802 134.697V127.485H154.154V135.501C154.154 137.889 155.526 139.236 157.748 139.236ZM169.758 139V132.545C169.758 130.653 170.42 129.4 172.359 129.4C174.132 129.4 174.605 130.37 174.605 131.788V139H177.277V130.984C177.277 128.596 175.906 127.249 173.659 127.249C171.366 127.249 170.183 128.809 169.758 130.63V127.485H167.11V139H169.758ZM183.856 139.26C185.534 139.26 186.669 138.48 187.166 137.747L186.338 135.382C186.007 136.044 185.345 136.777 184.447 136.777C183.666 136.777 183.075 136.47 183.075 135.217V129.542H186.598V127.485H183.075V124.411L180.427 126.09V127.485H178.63V129.542H180.427V135.855C180.427 137.889 181.68 139.26 183.856 139.26Z" fill="#3D0072"/>
<path d="M73.6672 139C78.5853 139 81.2099 135.973 81.2099 131.079C81.2099 126.184 78.5617 123.158 73.6672 123.158H67.6851V139H73.6672ZM73.3362 125.522C76.6228 125.522 78.4198 127.107 78.4198 131.079C78.4198 135.051 76.6228 136.636 73.3598 136.636H70.3569V125.522H73.3362ZM86.3819 139V123.158H83.71V139H86.3819ZM96.9912 139C100.396 139 102.5 137.605 102.5 134.791C102.5 132.663 101.224 131.055 97.6296 130.772C100.183 130.559 101.838 129.306 101.838 127.201C101.838 124.86 100.325 123.158 97.1094 123.158H89.9214V139H96.9912ZM96.3055 125.522C97.9606 125.522 99.072 126.043 99.072 127.65C99.072 129.258 97.9843 129.755 96.4001 129.755H92.5933V125.522H96.3055ZM96.6602 132.001C98.5045 132.001 99.7577 132.71 99.7577 134.318C99.7577 135.926 98.7646 136.636 96.5892 136.636H92.5933V132.001H96.6602Z" fill="#8807F7"/>
<path d="M28.0142 157.893C28.8866 157.893 29.5747 157.439 29.5747 156.609C29.5747 155.737 28.915 155.453 28.1844 155.283L27.624 155.148C27.0069 154.999 26.6593 154.786 26.6593 154.268C26.6593 153.751 27.1204 153.453 27.6949 153.453C28.383 153.453 28.8937 153.765 29.1136 154.432L29.5038 154.119C29.2271 153.403 28.5745 153.013 27.702 153.013C26.9005 153.013 26.1699 153.46 26.1699 154.304C26.1699 155.134 26.8083 155.425 27.4751 155.581L27.9929 155.694C28.7164 155.864 29.1065 156.063 29.1065 156.623C29.1065 157.226 28.5958 157.46 28.0142 157.46C27.3899 157.46 26.6167 157.163 26.3898 156.347L26.028 156.659C26.333 157.539 27.1558 157.893 28.0142 157.893ZM31.8562 157.9C32.5797 157.9 33.0337 157.553 33.2749 157.134L32.9912 156.801C32.8422 157.134 32.5443 157.51 31.8562 157.51C31.1823 157.51 30.7213 157.085 30.6929 156.233H33.2891C33.2962 156.177 33.3104 156.091 33.3104 156.006C33.3104 154.978 32.7287 154.354 31.7995 154.354C30.8773 154.354 30.246 155.02 30.246 156.127C30.246 157.255 30.9057 157.9 31.8562 157.9ZM31.7995 154.737C32.4237 154.737 32.8422 155.127 32.8848 155.893H30.7C30.7638 155.127 31.1752 154.737 31.7995 154.737ZM35.1947 157.907C35.6345 157.907 35.9679 157.702 36.1169 157.453L35.9537 156.999C35.8402 157.241 35.592 157.46 35.2869 157.46C34.989 157.46 34.7337 157.326 34.7337 156.836V154.786H35.8757V154.424H34.7337V153.587L34.2726 153.935V154.424H33.7193V154.786H34.2726V156.964C34.2726 157.581 34.6769 157.907 35.1947 157.907ZM38.7125 157.829V155.857C38.7125 155.269 39.0104 154.744 39.741 154.744C40.3227 154.744 40.5639 155.084 40.5639 155.637V157.829H41.032V155.531C41.032 154.751 40.5922 154.354 39.9325 154.354C39.2374 154.354 38.8331 154.822 38.7125 155.375V153.077H38.2443V157.829H38.7125ZM43.3469 157.9C44.2833 157.9 44.943 157.205 44.943 156.127C44.943 155.049 44.2833 154.354 43.3469 154.354C42.4106 154.354 41.758 155.049 41.758 156.127C41.758 157.205 42.4106 157.9 43.3469 157.9ZM43.3469 157.503C42.6802 157.503 42.2262 157.028 42.2262 156.127C42.2262 155.219 42.6802 154.737 43.3469 154.737C44.0208 154.737 44.4748 155.219 44.4748 156.127C44.4748 157.028 44.0208 157.503 43.3469 157.503ZM46.7711 157.829L47.4946 155.559L47.6932 154.815L47.8848 155.559L48.6083 157.829H49.2112L50.1405 154.424H49.6156L49.0623 156.723L48.9062 157.482L48.7005 156.723L47.977 154.424H47.4024L46.6789 156.723L46.4732 157.482L46.3171 156.723L45.7567 154.424H45.2389L46.1681 157.829H46.7711ZM52.7816 157.829V155.857C52.7816 155.269 53.0725 154.744 53.6754 154.744C54.2074 154.744 54.4699 155.035 54.4699 155.63V157.829H54.9309V155.857C54.9309 155.269 55.2218 154.744 55.8318 154.744C56.3567 154.744 56.6192 155.035 56.6192 155.63V157.829H57.0874V155.524C57.0874 154.744 56.7185 154.354 56.0659 154.354C55.4275 154.354 55.0373 154.829 54.9239 155.389C54.8884 154.701 54.5266 154.354 53.9095 154.354C53.2782 154.354 52.9022 154.815 52.7816 155.375V154.424H52.3135V157.829H52.7816ZM59.1416 157.9C59.8438 157.9 60.2269 157.425 60.3475 156.858V157.829H60.8085V154.424H60.3475V156.389C60.3475 156.985 60.0637 157.503 59.326 157.503C58.7443 157.503 58.489 157.163 58.489 156.616V154.424H58.0279V156.716C58.0279 157.503 58.4748 157.9 59.1416 157.9ZM63.1802 157.9C64.0314 157.9 64.5634 157.404 64.6982 156.716L64.2513 156.524C64.1804 157.099 63.8399 157.51 63.1873 157.51C62.5134 157.51 62.0665 157.028 62.0665 156.127C62.0665 155.219 62.5134 154.737 63.1873 154.737C63.8399 154.737 64.1804 155.155 64.2513 155.73L64.6982 155.538C64.5634 154.85 64.0314 154.354 63.1873 154.354C62.2226 154.354 61.5913 155.02 61.5913 156.127C61.5913 157.233 62.2226 157.9 63.1802 157.9ZM65.9433 157.829V155.857C65.9433 155.269 66.2412 154.744 66.9719 154.744C67.5535 154.744 67.7947 155.084 67.7947 155.637V157.829H68.2629V155.531C68.2629 154.751 67.8231 154.354 67.1634 154.354C66.4682 154.354 66.0639 154.822 65.9433 155.375V153.077H65.4751V157.829H65.9433ZM71.9445 157.829L72.6681 155.559L72.8667 154.815L73.0582 155.559L73.7818 157.829H74.3847L75.3139 154.424H74.789L74.2357 156.723L74.0797 157.482L73.874 156.723L73.1504 154.424H72.5759L71.8523 156.723L71.6466 157.482L71.4906 156.723L70.9302 154.424H70.4124L71.3416 157.829H71.9445ZM76.3965 153.814V153.077H75.9283V153.814H76.3965ZM76.3965 157.829V154.424H75.9283V157.829H76.3965ZM77.8581 157.829V153.077H77.3899V157.829H77.8581ZM79.3197 157.829V153.077H78.8516V157.829H79.3197ZM82.34 157.829V156.936C82.4535 157.46 82.8224 157.907 83.475 157.907C84.3687 157.907 84.9007 157.205 84.9007 156.127C84.9007 155.056 84.3687 154.354 83.475 154.354C82.8224 154.354 82.4535 154.8 82.34 155.325V153.077H81.8718V157.829H82.34ZM82.34 156.446V155.808C82.34 155.24 82.645 154.744 83.3331 154.744C83.9573 154.744 84.4255 155.176 84.4255 156.127C84.4255 157.085 83.9573 157.517 83.3331 157.517C82.645 157.517 82.34 157.014 82.34 156.446ZM87.1769 157.9C87.9004 157.9 88.3544 157.553 88.5956 157.134L88.3118 156.801C88.1629 157.134 87.8649 157.51 87.1769 157.51C86.503 157.51 86.0419 157.085 86.0135 156.233H88.6097C88.6168 156.177 88.631 156.091 88.631 156.006C88.631 154.978 88.0494 154.354 87.1201 154.354C86.198 154.354 85.5666 155.02 85.5666 156.127C85.5666 157.255 86.2263 157.9 87.1769 157.9ZM87.1201 154.737C87.7443 154.737 88.1629 155.127 88.2054 155.893H86.0206C86.0845 155.127 86.4959 154.737 87.1201 154.737ZM91.4057 159.028C91.8668 159.028 92.2002 158.78 92.3988 158.234L93.8388 154.424H93.3493L92.4981 156.758L92.2498 157.46L92.0087 156.758L91.1504 154.424H90.6538L91.9023 157.716L92.1647 157.709L92.037 158.049C91.8881 158.468 91.6895 158.617 91.4128 158.617C91.1007 158.617 90.9092 158.425 90.7673 158.149L90.5049 158.489C90.6325 158.744 90.9447 159.028 91.4057 159.028ZM95.6335 157.9C96.5698 157.9 97.2295 157.205 97.2295 156.127C97.2295 155.049 96.5698 154.354 95.6335 154.354C94.6971 154.354 94.0445 155.049 94.0445 156.127C94.0445 157.205 94.6971 157.9 95.6335 157.9ZM95.6335 157.503C94.9667 157.503 94.5127 157.028 94.5127 156.127C94.5127 155.219 94.9667 154.737 95.6335 154.737C96.3074 154.737 96.7613 155.219 96.7613 156.127C96.7613 157.028 96.3074 157.503 95.6335 157.503ZM99.1393 157.9C99.8415 157.9 100.225 157.425 100.345 156.858V157.829H100.806V154.424H100.345V156.389C100.345 156.985 100.061 157.503 99.3237 157.503C98.742 157.503 98.4867 157.163 98.4867 156.616V154.424H98.0256V156.716C98.0256 157.503 98.4725 157.9 99.1393 157.9ZM102.27 157.829V155.857C102.27 155.269 102.674 154.701 103.185 154.701C103.497 154.701 103.624 154.9 103.624 155.12C103.624 155.325 103.539 155.545 103.447 155.652H103.951C104.015 155.538 104.078 155.325 104.078 155.07C104.078 154.602 103.752 154.346 103.355 154.346C102.773 154.346 102.397 154.815 102.27 155.354V154.424H101.801V157.829H102.27ZM107.39 157.907C107.83 157.907 108.163 157.702 108.312 157.453L108.149 156.999C108.036 157.241 107.787 157.46 107.482 157.46C107.184 157.46 106.929 157.326 106.929 156.836V154.786H108.071V154.424H106.929V153.587L106.468 153.935V154.424H105.915V154.786H106.468V156.964C106.468 157.581 106.872 157.907 107.39 157.907ZM110.042 157.9C110.978 157.9 111.638 157.205 111.638 156.127C111.638 155.049 110.978 154.354 110.042 154.354C109.106 154.354 108.453 155.049 108.453 156.127C108.453 157.205 109.106 157.9 110.042 157.9ZM110.042 157.503C109.375 157.503 108.921 157.028 108.921 156.127C108.921 155.219 109.375 154.737 110.042 154.737C110.716 154.737 111.17 155.219 111.17 156.127C111.17 157.028 110.716 157.503 110.042 157.503ZM113.521 157.907C113.96 157.907 114.294 157.702 114.443 157.453L114.28 156.999C114.166 157.241 113.918 157.46 113.613 157.46C113.315 157.46 113.06 157.326 113.06 156.836V154.786H114.202V154.424H113.06V153.587L112.598 153.935V154.424H112.045V154.786H112.598V156.964C112.598 157.581 113.003 157.907 113.521 157.907ZM115.63 157.9C116.311 157.9 116.751 157.375 116.864 156.886V157.248C116.864 157.68 117.091 157.829 117.432 157.829H117.751V157.411H117.552C117.389 157.411 117.311 157.347 117.311 157.17V155.574C117.311 154.815 116.9 154.354 116.105 154.354C115.382 154.354 114.885 154.758 114.672 155.113L114.999 155.439C115.176 155.063 115.545 154.772 116.055 154.772C116.609 154.772 116.85 155.07 116.85 155.581V155.609L115.559 156.198C115.084 156.411 114.75 156.694 114.75 157.141C114.75 157.595 115.069 157.9 115.63 157.9ZM115.218 157.077C115.218 156.822 115.389 156.652 115.758 156.482L116.864 155.957V156.56C116.864 157.021 116.396 157.51 115.765 157.51C115.431 157.51 115.218 157.361 115.218 157.077ZM118.971 157.829V153.077H118.503V157.829H118.971ZM122.828 157.9C123.46 157.9 124.013 157.609 124.013 156.957C124.013 156.474 123.729 156.184 123.02 156.006L122.566 155.893C122.069 155.772 121.814 155.645 121.814 155.29C121.814 154.935 122.105 154.744 122.516 154.744C123.048 154.744 123.403 154.999 123.559 155.46L123.914 155.198C123.743 154.715 123.268 154.354 122.545 154.354C121.842 154.354 121.374 154.722 121.374 155.311C121.374 155.921 121.878 156.148 122.367 156.269L122.828 156.375C123.289 156.482 123.594 156.609 123.594 156.964C123.594 157.319 123.297 157.503 122.843 157.503C122.154 157.503 121.729 157.12 121.622 156.659L121.275 156.921C121.481 157.588 122.133 157.9 122.828 157.9ZM125.494 157.9C126.175 157.9 126.615 157.375 126.728 156.886V157.248C126.728 157.68 126.955 157.829 127.296 157.829H127.615V157.411H127.417C127.253 157.411 127.175 157.347 127.175 157.17V155.574C127.175 154.815 126.764 154.354 125.969 154.354C125.246 154.354 124.749 154.758 124.537 155.113L124.863 155.439C125.04 155.063 125.409 154.772 125.92 154.772C126.473 154.772 126.714 155.07 126.714 155.581V155.609L125.423 156.198C124.948 156.411 124.615 156.694 124.615 157.141C124.615 157.595 124.934 157.9 125.494 157.9ZM125.083 157.077C125.083 156.822 125.253 156.652 125.622 156.482L126.728 155.957V156.56C126.728 157.021 126.26 157.51 125.629 157.51C125.296 157.51 125.083 157.361 125.083 157.077ZM129.655 157.829L130.939 154.424H130.442L129.704 156.496L129.378 157.475L129.038 156.496L128.3 154.424H127.789L129.073 157.829H129.655ZM131.973 153.814V153.077H131.505V153.814H131.973ZM131.973 157.829V154.424H131.505V157.829H131.973ZM133.435 157.829V155.857C133.435 155.269 133.726 154.744 134.442 154.744C135.031 154.744 135.286 155.084 135.286 155.637V157.829H135.755V155.531C135.755 154.751 135.301 154.354 134.627 154.354C133.946 154.354 133.556 154.822 133.435 155.375V154.424H132.967V157.829H133.435ZM138.006 156.78C138.801 156.78 139.326 156.276 139.326 155.567C139.326 155.148 139.141 154.8 138.822 154.581L139.432 153.85L138.943 153.665L138.666 154.488C138.474 154.403 138.254 154.354 138.006 154.354C137.219 154.354 136.687 154.857 136.687 155.567C136.687 155.999 136.885 156.354 137.212 156.567C136.928 156.787 136.715 157.07 136.715 157.347C136.715 157.553 136.829 157.716 137.063 157.78C136.793 157.886 136.453 158.106 136.453 158.461C136.453 158.929 136.992 159.22 137.857 159.22C138.95 159.22 139.602 158.766 139.602 158.134C139.602 157.638 139.233 157.397 138.638 157.397H137.581C137.212 157.397 137.098 157.283 137.098 157.092C137.098 156.928 137.205 156.751 137.311 156.623C137.51 156.723 137.744 156.78 138.006 156.78ZM138.006 156.418C137.503 156.418 137.141 156.084 137.141 155.567C137.141 155.049 137.503 154.715 138.006 154.715C138.517 154.715 138.879 155.049 138.879 155.567C138.879 156.084 138.517 156.418 138.006 156.418ZM137.857 158.851C137.212 158.851 136.836 158.659 136.836 158.326C136.836 158.106 137.02 157.907 137.19 157.801H138.574C138.978 157.801 139.17 157.922 139.17 158.191C139.17 158.581 138.68 158.851 137.857 158.851ZM141.483 157.9C142.115 157.9 142.668 157.609 142.668 156.957C142.668 156.474 142.384 156.184 141.675 156.006L141.221 155.893C140.724 155.772 140.469 155.645 140.469 155.29C140.469 154.935 140.76 154.744 141.171 154.744C141.703 154.744 142.058 154.999 142.214 155.46L142.569 155.198C142.398 154.715 141.923 154.354 141.2 154.354C140.497 154.354 140.029 154.722 140.029 155.311C140.029 155.921 140.533 156.148 141.022 156.269L141.483 156.375C141.944 156.482 142.249 156.609 142.249 156.964C142.249 157.319 141.951 157.503 141.498 157.503C140.809 157.503 140.384 157.12 140.277 156.659L139.93 156.921C140.136 157.588 140.788 157.9 141.483 157.9Z" fill="#6B7280"/>
<rect x="25.1016" y="259.596" width="212.22" height="33.8154" rx="16.9077" fill="#8807F7"/>
<path d="M116.071 279.077C114.18 279.077 113.116 277.691 113.116 275.92C113.116 274.149 114.18 272.763 116.071 272.763C117.429 272.763 118.365 273.461 118.796 274.663L117.897 275.324C117.704 274.397 117.135 273.745 116.08 273.745C114.813 273.745 114.217 274.644 114.217 275.92C114.217 277.186 114.813 278.095 116.08 278.095C117.135 278.095 117.704 277.434 117.897 276.517L118.796 277.177C118.365 278.37 117.429 279.077 116.071 279.077ZM121.497 279.095C120.213 279.095 119.332 278.159 119.332 276.773C119.332 275.379 120.213 274.443 121.497 274.443C122.8 274.443 123.681 275.379 123.681 276.773C123.681 278.159 122.8 279.095 121.497 279.095ZM121.507 278.242C122.176 278.242 122.635 277.801 122.635 276.773C122.635 275.736 122.176 275.296 121.507 275.296C120.846 275.296 120.387 275.736 120.387 276.773C120.387 277.801 120.846 278.242 121.507 278.242ZM125.591 279.003H124.563V274.534H125.591V275.755C125.756 275.048 126.215 274.443 127.105 274.443C127.977 274.443 128.509 274.966 128.509 275.892V279.003H127.472V276.205C127.472 275.654 127.288 275.278 126.6 275.278C125.848 275.278 125.591 275.764 125.591 276.498V279.003ZM131.062 279.104C130.218 279.104 129.732 278.572 129.732 277.783V275.333H129.034V274.534H129.732V273.993L130.759 273.341V274.534H132.127V275.333H130.759V277.535C130.759 278.022 130.989 278.141 131.292 278.141C131.64 278.141 131.897 277.856 132.026 277.599L132.347 278.517C132.154 278.802 131.714 279.104 131.062 279.104ZM134.069 273.901H133.041V272.855H134.069V273.901ZM134.069 279.003H133.041V274.534H134.069V279.003ZM136.184 279.003H135.156V274.534H136.184V275.755C136.349 275.048 136.808 274.443 137.698 274.443C138.569 274.443 139.102 274.966 139.102 275.892V279.003H138.065V276.205C138.065 275.654 137.881 275.278 137.193 275.278C136.44 275.278 136.184 275.764 136.184 276.498V279.003ZM141.524 279.095C140.661 279.095 140.129 278.572 140.129 277.645V274.534H141.157V277.333C141.157 277.884 141.34 278.26 142.028 278.26C142.781 278.26 143.038 277.774 143.038 277.04V274.534H144.075V279.003H143.038V277.783C142.873 278.49 142.414 279.095 141.524 279.095ZM147.121 279.095C145.791 279.095 144.919 278.168 144.919 276.773C144.919 275.369 145.791 274.443 147.048 274.443C148.388 274.443 149.131 275.333 149.131 276.572C149.131 276.737 149.113 276.929 149.094 277.021H145.901C145.956 277.82 146.424 278.251 147.13 278.251C147.91 278.251 148.259 277.847 148.424 277.471L149.058 278.132C148.718 278.646 148.112 279.095 147.121 279.095ZM147.048 275.268C146.415 275.268 145.992 275.636 145.91 276.361H148.204C148.131 275.654 147.727 275.268 147.048 275.268Z" fill="white"/>
<rect width="211.621" height="3.6236" rx="1.8118" transform="matrix(1 0 0 -1 25.0938 91.9077)" fill="#E7CDFE"/>
<rect width="125.909" height="4.13785" rx="2.06893" transform="matrix(1 0 0 -1 25.0938 92.1613)" fill="#8807F7"/>
<g opacity="0.5">
<g filter="url(#filter0_d_1_8101)">
<circle cx="6.79426" cy="6.79426" r="6.79426" transform="matrix(0 1 1 0 223.719 83.3018)" fill="white"/>
</g>
<g clip-path="url(#clip1_1_8101)">
<path d="M229.826 87.7324C229.706 87.7902 229.601 87.8757 229.521 87.9818C229.46 88.0596 229.414 88.1474 229.383 88.2409L229.246 88.6616C229.237 88.6901 229.22 88.7155 229.197 88.7351C229.174 88.7547 229.147 88.7677 229.117 88.7727C229.083 88.7788 229.048 88.774 229.017 88.7591C228.986 88.7442 228.96 88.7199 228.943 88.6897L228.945 88.688C228.94 88.6792 228.936 88.67 228.932 88.6605L228.795 88.24C228.753 88.1121 228.681 87.9959 228.585 87.9006C228.49 87.8053 228.374 87.7336 228.246 87.6911L227.825 87.5545C227.793 87.5429 227.765 87.5217 227.745 87.4936C227.725 87.4656 227.714 87.4321 227.714 87.3977C227.714 87.3634 227.725 87.3298 227.745 87.3018C227.765 87.2737 227.793 87.2525 227.825 87.2409L227.833 87.2387L228.254 87.1021C228.382 87.0596 228.499 86.9878 228.594 86.8926C228.689 86.7973 228.761 86.6811 228.804 86.5532L228.94 86.1324C228.952 86.0999 228.973 86.0718 229.001 86.0519C229.029 86.0319 229.063 86.0212 229.097 86.0212C229.132 86.0212 229.165 86.0319 229.193 86.0519C229.221 86.0718 229.243 86.0999 229.254 86.1324L229.391 86.5532L229.394 86.5636C229.424 86.6497 229.467 86.7306 229.522 86.8034L229.523 86.8029C229.627 86.9405 229.77 87.044 229.933 87.1001L230.353 87.2376C230.384 87.2476 230.411 87.2663 230.431 87.2913C230.451 87.3163 230.463 87.3466 230.466 87.3785C230.469 87.4105 230.463 87.4426 230.448 87.471C230.433 87.4994 230.411 87.5229 230.383 87.5385C230.373 87.544 230.363 87.5487 230.353 87.5523L229.932 87.6889C229.896 87.701 229.86 87.7156 229.826 87.7324ZM228.529 89.0029C228.524 88.991 228.516 88.9804 228.506 88.9717C228.496 88.963 228.485 88.9563 228.472 88.952L228.22 88.8698C228.144 88.8437 228.075 88.8003 228.019 88.7432C227.963 88.6861 227.92 88.6168 227.895 88.5406L227.813 88.2882C227.806 88.2688 227.793 88.2519 227.776 88.2401C227.76 88.2282 227.739 88.2218 227.719 88.2218C227.698 88.2218 227.678 88.2282 227.661 88.2401C227.644 88.2519 227.632 88.2688 227.625 88.2882L227.543 88.5406C227.517 88.6174 227.474 88.6871 227.417 88.7442C227.36 88.8014 227.29 88.8444 227.213 88.8698L226.961 88.952L226.955 88.9531C226.936 88.9599 226.919 88.9726 226.907 88.9895C226.895 89.0063 226.889 89.0265 226.889 89.0472C226.889 89.0679 226.895 89.088 226.907 89.1049C226.919 89.1218 226.936 89.1345 226.955 89.1412L227.208 89.2235C227.314 89.2586 227.406 89.3268 227.47 89.4179V89.4193C227.499 89.4605 227.521 89.5056 227.537 89.5537L227.62 89.8062C227.627 89.8256 227.64 89.8424 227.656 89.8543C227.673 89.8662 227.693 89.8726 227.714 89.8726C227.735 89.8726 227.755 89.8662 227.771 89.8543C227.788 89.8424 227.801 89.8256 227.808 89.8062L227.89 89.5537C227.916 89.4768 227.959 89.4069 228.016 89.3496C228.074 89.2922 228.144 89.2492 228.22 89.2237L228.473 89.1412C228.487 89.1366 228.499 89.1291 228.509 89.1194C228.519 89.1097 228.527 89.0979 228.532 89.0848C228.538 89.0718 228.54 89.0578 228.54 89.0437C228.539 89.0296 228.536 89.0158 228.529 89.0032V89.0029ZM230.739 93.1717C228.97 93.1717 227.526 91.7802 227.443 90.0317C227.487 90.0784 227.543 90.1127 227.605 90.1314C227.667 90.15 227.733 90.1524 227.796 90.1382C227.859 90.124 227.917 90.0937 227.965 90.0503C228.013 90.007 228.049 89.9519 228.069 89.8906L228.151 89.6393C228.163 89.6034 228.184 89.5708 228.21 89.5439C228.237 89.517 228.269 89.4966 228.305 89.4842L228.564 89.4C228.637 89.3741 228.701 89.3263 228.745 89.263C228.79 89.1997 228.814 89.1241 228.814 89.0466C228.813 89.0092 228.807 88.972 228.796 88.9364C228.85 88.9846 228.916 89.0185 228.987 89.035C229.058 89.0516 229.132 89.0502 229.202 89.0312C229.273 89.0121 229.337 88.9758 229.39 88.9257C229.443 88.8755 229.482 88.8131 229.505 88.7439L229.643 88.3242C229.671 88.2367 229.72 88.1572 229.785 88.0924C229.85 88.0275 229.929 87.9784 230.015 87.9491L230.443 87.8116C230.508 87.7891 230.566 87.7519 230.614 87.7029C230.661 87.654 230.697 87.5946 230.718 87.5294C230.738 87.4643 230.744 87.3953 230.733 87.3278C230.722 87.2603 230.696 87.1962 230.656 87.1406C230.602 87.0644 230.525 87.0072 230.436 86.9772L230.02 86.8422C229.938 86.8136 229.863 86.7674 229.8 86.7069C230.105 86.6168 230.421 86.5713 230.739 86.5716C232.561 86.5716 234.039 88.0492 234.039 89.8717C234.039 91.6941 232.561 93.1717 230.739 93.1717ZM229.776 89.5966C229.886 89.5966 229.991 89.5532 230.068 89.4758C230.146 89.3985 230.189 89.2935 230.189 89.1841C230.189 89.0747 230.146 88.9698 230.068 88.8925C229.991 88.8151 229.886 88.7716 229.776 88.7716C229.667 88.7716 229.562 88.8151 229.485 88.8925C229.407 88.9698 229.364 89.0747 229.364 89.1841C229.364 89.2935 229.407 89.3985 229.485 89.4758C229.562 89.5532 229.667 89.5966 229.776 89.5966ZM231.289 89.1841C231.289 89.2935 231.332 89.3985 231.41 89.4758C231.487 89.5532 231.592 89.5966 231.702 89.5966C231.811 89.5966 231.916 89.5532 231.993 89.4758C232.071 89.3985 232.114 89.2935 232.114 89.1841C232.114 89.0747 232.071 88.9698 231.993 88.8925C231.916 88.8151 231.811 88.7716 231.702 88.7716C231.592 88.7716 231.487 88.8151 231.41 88.8925C231.332 88.9698 231.289 89.0747 231.289 89.1841ZM232.299 90.7324C232.254 90.7017 232.198 90.6901 232.145 90.7002C232.091 90.7102 232.044 90.7411 232.013 90.786L232.01 90.7893L231.998 90.8056C231.987 90.8204 231.968 90.843 231.942 90.871C231.891 90.9268 231.813 91.003 231.706 91.0792C231.495 91.2313 231.176 91.3842 230.739 91.3842C230.302 91.3842 229.983 91.2313 229.772 91.0792C229.665 91.003 229.587 90.9268 229.536 90.871C229.512 90.8449 229.489 90.8176 229.467 90.7893L229.465 90.7866C229.435 90.7414 229.387 90.7102 229.333 90.7001C229.28 90.6899 229.224 90.7015 229.179 90.7323C229.134 90.7631 229.102 90.8106 229.092 90.8644C229.082 90.9181 229.094 90.9738 229.124 91.019L229.125 91.0193V91.0198L229.126 91.0206L229.128 91.0234L229.13 91.0267L229.134 91.0322C229.164 91.073 229.197 91.1123 229.231 91.1499C229.322 91.2478 229.422 91.3363 229.531 91.4139C229.797 91.6061 230.199 91.7967 230.739 91.7967C231.279 91.7967 231.681 91.6058 231.947 91.4142C232.056 91.3364 232.156 91.2477 232.247 91.1496C232.283 91.1095 232.318 91.0675 232.35 91.0237L232.352 91.0209L232.353 91.0198L232.353 91.0193L232.353 91.019C232.384 90.9738 232.396 90.9182 232.385 90.8644C232.375 90.8107 232.344 90.7632 232.299 90.7324Z" fill="#8807F7"/>
</g>
</g>
<g filter="url(#filter1_d_1_8101)">
<circle cx="6.79426" cy="6.79426" r="6.79426" transform="matrix(0 1 1 0 58.9531 83.3018)" fill="white"/>
</g>
<g clip-path="url(#clip2_1_8101)">
<path d="M65.5171 93.9467C64.496 93.9467 63.5167 93.5411 62.7947 92.8191C62.0727 92.097 61.667 91.1178 61.667 90.0967C61.667 89.0756 62.0727 88.0963 62.7947 87.3742C63.5167 86.6522 64.496 86.2466 65.5171 86.2466C66.5382 86.2466 67.5175 86.6522 68.2395 87.3742C68.9616 88.0963 69.3672 89.0756 69.3672 90.0967C69.3672 91.1178 68.9616 92.097 68.2395 92.8191C67.5175 93.5411 66.5382 93.9467 65.5171 93.9467ZM65.9984 89.3748C65.9984 89.7733 66.214 90.0967 66.4796 90.0967C66.7453 90.0967 66.9609 89.7733 66.9609 89.3748C66.9609 88.9763 66.7453 88.6529 66.4796 88.6529C66.214 88.6529 65.9984 88.9763 65.9984 89.3748ZM67.305 92.2301C67.3603 92.1982 67.4006 92.1456 67.4171 92.084C67.4336 92.0223 67.425 91.9567 67.3931 91.9014C67.203 91.572 66.9296 91.2986 66.6003 91.1085C66.2709 90.9184 65.8974 90.8184 65.5171 90.8186C65.1369 90.8185 64.7633 90.9185 64.434 91.1086C64.1047 91.2987 63.8313 91.5721 63.6412 91.9014C63.6098 91.9566 63.6015 92.022 63.6181 92.0834C63.6348 92.1447 63.675 92.1969 63.73 92.2287C63.7851 92.2605 63.8504 92.2692 63.9118 92.253C63.9733 92.2367 64.0258 92.1968 64.0579 92.142C64.2057 91.8858 64.4184 91.6731 64.6746 91.5252C64.9307 91.3774 65.2213 91.2996 65.5171 91.2998C65.8129 91.2996 66.1035 91.3774 66.3596 91.5252C66.6158 91.6731 66.8285 91.8858 66.9763 92.142C67.0082 92.1973 67.0608 92.2376 67.1224 92.2541C67.184 92.2706 67.2497 92.262 67.305 92.2301ZM64.5546 90.0967C64.8202 90.0967 65.0358 89.7733 65.0358 89.3748C65.0358 88.9763 64.8202 88.6529 64.5546 88.6529C64.2889 88.6529 64.0733 88.9763 64.0733 89.3748C64.0733 89.7733 64.2889 90.0967 64.5546 90.0967Z" fill="#8807F7"/>
</g>
<g opacity="0.5">
<g filter="url(#filter2_d_1_8101)">
<circle cx="6.79426" cy="6.79426" r="6.79426" transform="matrix(0 1 1 0 168.734 82.8486)" fill="white"/>
<circle cx="6.79426" cy="6.79426" r="6.79426" transform="matrix(0 1 1 0 168.734 82.8486)" stroke="#8807F7" stroke-width="0.886682"/>
</g>
<path d="M175.9 86.0195C173.773 86.0195 172.049 87.7434 172.049 89.87C172.049 91.9962 173.773 93.7197 175.9 93.7197C178.026 93.7201 179.75 91.9962 179.75 89.87C179.75 87.7434 178.026 86.0195 175.9 86.0195ZM177.262 90.9414C177.31 90.8832 177.378 90.8461 177.453 90.838C177.529 90.8299 177.604 90.8516 177.663 90.8983C177.722 90.945 177.761 91.013 177.771 91.0878C177.78 91.1627 177.76 91.2383 177.715 91.2986C177.499 91.5736 177.223 91.7958 176.909 91.9485C176.594 92.1013 176.249 92.1805 175.9 92.1802C175.183 92.1802 174.521 91.8518 174.086 91.3009C174.062 91.2712 174.045 91.2371 174.034 91.2006C174.024 91.1641 174.021 91.126 174.025 91.0883C174.03 91.0506 174.042 91.0142 174.06 90.9811C174.079 90.948 174.103 90.9189 174.133 90.8954C174.163 90.8719 174.197 90.8544 174.233 90.8441C174.27 90.8338 174.308 90.8307 174.346 90.8351C174.383 90.8396 174.42 90.8513 174.453 90.8698C174.486 90.8883 174.515 90.9132 174.539 90.9429C174.701 91.1488 174.907 91.3152 175.143 91.4295C175.379 91.5438 175.638 91.6031 175.9 91.6027C176.438 91.6027 176.935 91.3564 177.262 90.9414ZM177.054 88.6188C177.119 88.617 177.183 88.6281 177.243 88.6515C177.303 88.6748 177.357 88.71 177.403 88.7548C177.45 88.7997 177.486 88.8533 177.511 88.9126C177.536 88.9718 177.549 89.0355 177.549 89.0999C177.549 89.1642 177.536 89.2279 177.511 89.2872C177.486 89.3464 177.45 89.4001 177.403 89.4449C177.357 89.4898 177.303 89.5249 177.243 89.5483C177.183 89.5716 177.119 89.5827 177.054 89.5809C176.929 89.5773 176.81 89.5251 176.723 89.4353C176.636 89.3455 176.587 89.2251 176.587 89.0999C176.587 88.9746 176.636 88.8543 176.723 88.7644C176.81 88.6746 176.929 88.6224 177.054 88.6188ZM174.745 88.6188C174.809 88.617 174.873 88.6281 174.933 88.6515C174.993 88.6748 175.048 88.71 175.094 88.7548C175.14 88.7997 175.176 88.8533 175.202 88.9126C175.227 88.9718 175.239 89.0355 175.239 89.0999C175.239 89.1642 175.227 89.2279 175.202 89.2872C175.176 89.3464 175.14 89.4001 175.094 89.4449C175.048 89.4898 174.993 89.5249 174.933 89.5483C174.873 89.5716 174.809 89.5827 174.745 89.5809C174.619 89.5773 174.501 89.5251 174.413 89.4353C174.326 89.3455 174.277 89.2251 174.277 89.0999C174.277 88.9746 174.326 88.8543 174.413 88.7644C174.501 88.6746 174.619 88.6224 174.745 88.6188Z" fill="#8807F7"/>
</g>
<g clip-path="url(#clip3_1_8101)" filter="url(#filter3_f_1_8101)">
<path d="M120.266 96.2995C118.855 96.2995 117.502 96.0815 116.504 95.6935C115.506 95.3055 114.946 94.7793 114.946 94.2305C114.946 93.6818 115.506 93.1556 116.504 92.7676C117.502 92.3796 118.855 92.1616 120.266 92.1616C121.677 92.1616 123.03 92.3796 124.028 92.7676C125.025 93.1556 125.586 93.6818 125.586 94.2305C125.586 94.7793 125.025 95.3055 124.028 95.6935C123.03 96.0815 121.677 96.2995 120.266 96.2995ZM120.931 93.8426C120.931 94.0568 121.229 94.2305 121.596 94.2305C121.963 94.2305 122.261 94.0568 122.261 93.8426C122.261 93.6285 121.963 93.4547 121.596 93.4547C121.229 93.4547 120.931 93.6285 120.931 93.8426ZM122.736 95.377C122.813 95.3598 122.868 95.3316 122.891 95.2985C122.914 95.2653 122.902 95.2301 122.858 95.2004C122.595 95.0234 122.218 94.8764 121.763 94.7743C121.307 94.6721 120.791 94.6184 120.266 94.6185C119.74 94.6184 119.224 94.6722 118.769 94.7743C118.314 94.8765 117.936 95.0234 117.674 95.2004C117.63 95.23 117.619 95.2652 117.642 95.2981C117.665 95.3311 117.72 95.3592 117.796 95.3762C117.872 95.3933 117.963 95.398 118.048 95.3893C118.133 95.3806 118.205 95.3591 118.25 95.3297C118.454 95.192 118.748 95.0777 119.102 94.9982C119.456 94.9188 119.857 94.877 120.266 94.8771C120.675 94.877 121.076 94.9188 121.43 94.9982C121.784 95.0777 122.078 95.192 122.282 95.3297C122.326 95.3594 122.399 95.381 122.484 95.3899C122.569 95.3988 122.66 95.3941 122.736 95.377ZM118.936 94.2305C119.303 94.2305 119.601 94.0568 119.601 93.8426C119.601 93.6285 119.303 93.4547 118.936 93.4547C118.569 93.4547 118.271 93.6285 118.271 93.8426C118.271 94.0568 118.569 94.2305 118.936 94.2305Z" fill="#8807F7"/>
</g>
<g filter="url(#filter4_d_1_8101)">
<circle cx="6.79426" cy="6.79426" r="6.79426" transform="matrix(0 1 1 0 113.766 83.3018)" fill="white"/>
<circle cx="6.79426" cy="6.79426" r="6.79426" transform="matrix(0 1 1 0 113.766 83.3018)" stroke="#8807F7" stroke-width="0.886682"/>
</g>
<g clip-path="url(#clip4_1_8101)">
<path d="M120.33 94.1735C119.309 94.1735 118.329 93.7679 117.607 93.0459C116.885 92.3239 116.48 91.3446 116.48 90.3235C116.48 89.3024 116.885 88.3231 117.607 87.6011C118.329 86.879 119.309 86.4734 120.33 86.4734C121.351 86.4734 122.33 86.879 123.052 87.6011C123.774 88.3231 124.18 89.3024 124.18 90.3235C124.18 91.3446 123.774 92.3239 123.052 93.0459C122.33 93.7679 121.351 94.1735 120.33 94.1735ZM122.014 89.3609H121.051C120.988 89.3609 120.926 89.3863 120.881 89.4314C120.836 89.4766 120.811 89.5378 120.811 89.6016C120.811 89.6654 120.836 89.7266 120.881 89.7717C120.926 89.8169 120.988 89.8422 121.051 89.8422H122.014C122.078 89.8422 122.139 89.8169 122.184 89.7717C122.229 89.7266 122.255 89.6654 122.255 89.6016C122.255 89.5378 122.229 89.4766 122.184 89.4314C122.139 89.3863 122.078 89.3609 122.014 89.3609ZM119.608 89.3609H118.645C118.581 89.3609 118.52 89.3863 118.475 89.4314C118.43 89.4766 118.405 89.5378 118.405 89.6016C118.405 89.6654 118.43 89.7266 118.475 89.7717C118.52 89.8169 118.581 89.8422 118.645 89.8422H119.608C119.672 89.8422 119.733 89.8169 119.778 89.7717C119.823 89.7266 119.848 89.6654 119.848 89.6016C119.848 89.5378 119.823 89.4766 119.778 89.4314C119.733 89.3863 119.672 89.3609 119.608 89.3609ZM122.014 91.286H118.645C118.581 91.286 118.52 91.3113 118.475 91.3565C118.43 91.4016 118.405 91.4628 118.405 91.5266C118.405 91.5904 118.43 91.6516 118.475 91.6968C118.52 91.7419 118.581 91.7672 118.645 91.7672H122.014C122.078 91.7672 122.139 91.7419 122.184 91.6968C122.229 91.6516 122.255 91.5904 122.255 91.5266C122.255 91.4628 122.229 91.4016 122.184 91.3565C122.139 91.3113 122.078 91.286 122.014 91.286Z" fill="#8807F7"/>
</g>
<rect x="25.6875" y="188.612" width="211.03" height="39.014" rx="4.72897" fill="#F3F4F6"/>
<path d="M39.4297 210.119H38.6435C38.6435 207.363 39.827 206.13 40.7373 205.253H37.758V204.574H41.3911V205.394C40.1663 206.56 39.4297 207.76 39.4297 210.119ZM43.9807 210.202C42.4579 210.202 41.7462 208.952 41.7462 207.338C41.7462 205.741 42.4579 204.492 43.9807 204.492C45.4951 204.492 46.2068 205.741 46.2068 207.338C46.2068 208.952 45.4951 210.202 43.9807 210.202ZM43.9889 209.515C45.0813 209.515 45.4537 208.613 45.4537 207.338C45.4537 206.08 45.0813 205.17 43.9889 205.17C42.8883 205.17 42.5076 206.08 42.5076 207.338C42.5076 208.613 42.8883 209.515 43.9889 209.515ZM47.1008 210.963L46.9435 210.566C47.2249 210.525 47.3573 210.467 47.3573 210.235V210.119H46.9518V209.043H47.8208V210.119C47.8208 210.607 47.6635 210.897 47.1008 210.963ZM50.7936 210.202C49.2708 210.202 48.5591 208.952 48.5591 207.338C48.5591 205.741 49.2708 204.492 50.7936 204.492C52.308 204.492 53.0197 205.741 53.0197 207.338C53.0197 208.952 52.308 210.202 50.7936 210.202ZM50.8018 209.515C51.8942 209.515 52.2666 208.613 52.2666 207.338C52.2666 206.08 51.8942 205.17 50.8018 205.17C49.7012 205.17 49.3205 206.08 49.3205 207.338C49.3205 208.613 49.7012 209.515 50.8018 209.515ZM56.0629 210.202C54.5401 210.202 53.8284 208.952 53.8284 207.338C53.8284 205.741 54.5401 204.492 56.0629 204.492C57.5773 204.492 58.289 205.741 58.289 207.338C58.289 208.952 57.5773 210.202 56.0629 210.202ZM56.0711 209.515C57.1635 209.515 57.5359 208.613 57.5359 207.338C57.5359 206.08 57.1635 205.17 56.0711 205.17C54.9705 205.17 54.5898 206.08 54.5898 207.338C54.5898 208.613 54.9705 209.515 56.0711 209.515ZM61.3321 210.202C59.8094 210.202 59.0977 208.952 59.0977 207.338C59.0977 205.741 59.8094 204.492 61.3321 204.492C62.8466 204.492 63.5583 205.741 63.5583 207.338C63.5583 208.952 62.8466 210.202 61.3321 210.202ZM61.3404 209.515C62.4328 209.515 62.8052 208.613 62.8052 207.338C62.8052 206.08 62.4328 205.17 61.3404 205.17C60.2398 205.17 59.8591 206.08 59.8591 207.338C59.8591 208.613 60.2398 209.515 61.3404 209.515Z" fill="#8807F7"/>
<path d="M34.0334 61.4819L29.0532 56.5165C28.9941 56.4574 28.9523 56.3933 28.9279 56.3244C28.903 56.2554 28.8906 56.1815 28.8906 56.1027C28.8906 56.0239 28.903 55.95 28.9279 55.881C28.9523 55.8121 28.9941 55.748 29.0532 55.6889L34.0334 50.7087C34.1713 50.5708 34.3437 50.5018 34.5506 50.5018C34.7575 50.5018 34.9348 50.5757 35.0826 50.7235C35.2304 50.8713 35.3043 51.0437 35.3043 51.2407C35.3043 51.4378 35.2304 51.6102 35.0826 51.758L30.7379 56.1027L35.0826 60.4475C35.2206 60.5854 35.2895 60.7552 35.2895 60.957C35.2895 61.1592 35.2156 61.3341 35.0678 61.4819C34.9201 61.6297 34.7477 61.7036 34.5506 61.7036C34.3536 61.7036 34.1812 61.6297 34.0334 61.4819Z" fill="#3D0072"/>
<path opacity="0.35" fill-rule="evenodd" clip-rule="evenodd" d="M234.219 19.3547C233.539 19.3547 233.27 19.4002 232.992 19.5303C232.758 19.6402 232.576 19.7996 232.45 20.005C232.302 20.2482 232.25 20.4839 232.25 21.0799V23.7378C232.25 24.3338 232.302 24.5695 232.45 24.8128C232.576 25.0181 232.758 25.1775 232.992 25.2874C233.27 25.4175 233.539 25.463 234.219 25.463H244.449C245.129 25.463 245.398 25.4175 245.676 25.2874C245.91 25.1775 246.092 25.0181 246.218 24.8128C246.366 24.5695 246.418 24.3338 246.418 23.7378V21.0799C246.418 20.4839 246.366 20.2482 246.218 20.005C246.092 19.7996 245.91 19.6402 245.676 19.5303C245.398 19.4002 245.129 19.3547 244.449 19.3547H234.219Z" stroke="black" stroke-width="0.591121"/>
<path opacity="0.4" d="M247.43 21.2266V23.591C247.973 23.3908 248.326 22.9249 248.326 22.4088C248.326 21.8927 247.973 21.4268 247.43 21.2266Z" fill="black"/>
<path d="M234.411 20.2415H244.249C244.65 20.2415 244.795 20.278 244.942 20.3467C245.088 20.4154 245.203 20.5162 245.282 20.6447C245.36 20.7731 245.402 20.9005 245.402 21.2518V23.566C245.402 23.9173 245.36 24.0447 245.282 24.1731C245.203 24.3016 245.088 24.4024 244.942 24.4711C244.795 24.5398 244.65 24.5763 244.249 24.5763H234.411C234.01 24.5763 233.865 24.5398 233.718 24.4711C233.571 24.4024 233.456 24.3016 233.378 24.1731C233.3 24.0447 233.258 23.9173 233.258 23.566V21.2518C233.258 20.9005 233.3 20.7731 233.378 20.6447C233.456 20.5162 233.571 20.4154 233.718 20.3467C233.865 20.278 234.01 20.2415 234.411 20.2415Z" fill="black"/>
<path d="M223.368 20.4078C224.869 20.4078 226.313 20.9127 227.4 21.8181C227.482 21.888 227.613 21.8871 227.694 21.8161L228.477 21.1243C228.518 21.0883 228.541 21.0395 228.54 20.9888C228.54 20.938 228.516 20.8895 228.475 20.8539C225.62 18.4585 221.116 18.4585 218.261 20.8539C218.219 20.8895 218.196 20.938 218.195 20.9887C218.195 21.0395 218.218 21.0883 218.259 21.1243L219.042 21.8161C219.122 21.8872 219.253 21.8881 219.335 21.8181C220.423 20.9127 221.867 20.4078 223.368 20.4078ZM223.368 22.6585C224.193 22.6585 224.988 22.9268 225.599 23.4114C225.682 23.4802 225.812 23.4787 225.893 23.408L226.675 22.7162C226.716 22.6799 226.739 22.6307 226.738 22.5796C226.738 22.5284 226.714 22.4796 226.672 22.4441C224.81 20.9282 221.927 20.9282 220.066 22.4441C220.024 22.4796 220 22.5284 219.999 22.5796C219.999 22.6308 220.022 22.68 220.063 22.7162L220.845 23.408C220.925 23.4787 221.056 23.4802 221.138 23.4114C221.749 22.9271 222.544 22.6588 223.368 22.6585ZM224.871 24.3096C224.913 24.2736 224.936 24.2242 224.935 24.1729C224.934 24.1216 224.908 24.073 224.865 24.0386C224.001 23.3988 222.735 23.3988 221.871 24.0386C221.828 24.073 221.802 24.1215 221.801 24.1728C221.8 24.2241 221.823 24.2736 221.865 24.3096L223.218 25.5048C223.258 25.5399 223.312 25.5597 223.368 25.5597C223.424 25.5597 223.479 25.5399 223.518 25.5048L224.871 24.3096Z" fill="black"/>
<path d="M204.034 23.1969H204.709C205.081 23.1969 205.383 23.4616 205.383 23.788V24.9703C205.383 25.2967 205.081 25.5614 204.709 25.5614H204.034C203.661 25.5614 203.359 25.2967 203.359 24.9703V23.788C203.359 23.4616 203.661 23.1969 204.034 23.1969ZM207.182 22.0147H207.857C208.23 22.0147 208.532 22.2793 208.532 22.6058V24.9703C208.532 25.2967 208.23 25.5614 207.857 25.5614H207.182C206.81 25.5614 206.508 25.2967 206.508 24.9703V22.6058C206.508 22.2793 206.81 22.0147 207.182 22.0147ZM210.331 20.6354H211.006C211.378 20.6354 211.68 20.9 211.68 21.2265V24.9703C211.68 25.2967 211.378 25.5614 211.006 25.5614H210.331C209.958 25.5614 209.656 25.2967 209.656 24.9703V21.2265C209.656 20.9 209.958 20.6354 210.331 20.6354ZM213.479 19.2561H214.154C214.527 19.2561 214.829 19.5208 214.829 19.8472V24.9703C214.829 25.2967 214.527 25.5614 214.154 25.5614H213.479C213.107 25.5614 212.805 25.2967 212.805 24.9703V19.8472C212.805 19.5208 213.107 19.2561 213.479 19.2561Z" fill="black"/>
<path d="M27.5035 19.6297C27.6749 19.5587 27.8523 19.4789 28.0355 19.3903C28.2247 19.2957 28.4079 19.1952 28.5852 19.0888C28.7626 18.9765 28.931 18.8612 29.0907 18.743C29.2562 18.6189 29.4039 18.4888 29.534 18.3529H30.4561V24.4976H29.135V20.073C28.9576 20.1912 28.7596 20.3006 28.5409 20.4011C28.3222 20.4957 28.1094 20.5784 27.9025 20.6494L27.5035 19.6297ZM36.3203 19.9666C36.3203 20.1912 36.276 20.407 36.1873 20.6139C36.0986 20.8208 35.9834 21.0218 35.8415 21.2168C35.6996 21.406 35.54 21.5892 35.3627 21.7666C35.1853 21.9439 35.011 22.1124 34.8395 22.272C34.7509 22.3547 34.6533 22.4493 34.5469 22.5557C34.4464 22.6562 34.3489 22.7597 34.2543 22.8661C34.1597 22.9725 34.074 23.073 33.9972 23.1675C33.9263 23.2562 33.8819 23.3301 33.8642 23.3892H36.5065V24.4976H32.41C32.3982 24.4325 32.3923 24.3498 32.3923 24.2493C32.3923 24.1488 32.3923 24.0779 32.3923 24.0365C32.3923 23.7527 32.4366 23.4927 32.5253 23.2562C32.6199 23.0198 32.7411 22.801 32.8888 22.6001C33.0366 22.3932 33.2021 22.2011 33.3854 22.0237C33.5745 21.8464 33.7607 21.669 33.944 21.4917C34.0859 21.3557 34.2189 21.2287 34.343 21.1104C34.4671 20.9863 34.5765 20.8681 34.6711 20.7558C34.7656 20.6375 34.8395 20.5223 34.8927 20.41C34.9459 20.2917 34.9725 20.1735 34.9725 20.0553C34.9725 19.7952 34.8987 19.6119 34.7509 19.5055C34.6031 19.3991 34.4198 19.3459 34.2011 19.3459C34.0415 19.3459 33.8908 19.3725 33.7489 19.4257C33.613 19.473 33.4859 19.5321 33.3676 19.6031C33.2553 19.6681 33.1578 19.7361 33.075 19.807C32.9923 19.872 32.9302 19.9252 32.8888 19.9666L32.2327 19.0445C32.4928 18.8021 32.7943 18.6041 33.1371 18.4504C33.4859 18.2908 33.8583 18.211 34.2543 18.211C34.6149 18.211 34.9253 18.2524 35.1853 18.3351C35.4454 18.4179 35.6582 18.5361 35.8238 18.6898C35.9952 18.8376 36.1193 19.0208 36.1962 19.2395C36.2789 19.4523 36.3203 19.6947 36.3203 19.9666ZM38.8771 20.6494C38.8771 20.9154 38.7914 21.1193 38.62 21.2612C38.4545 21.3971 38.2653 21.4651 38.0525 21.4651C37.8397 21.4651 37.6476 21.3971 37.4762 21.2612C37.3107 21.1193 37.2279 20.9154 37.2279 20.6494C37.2279 20.3834 37.3107 20.1824 37.4762 20.0464C37.6476 19.9045 37.8397 19.8336 38.0525 19.8336C38.2653 19.8336 38.4545 19.9045 38.62 20.0464C38.7914 20.1824 38.8771 20.3834 38.8771 20.6494ZM38.8771 23.7971C38.8771 24.0631 38.7914 24.267 38.62 24.4089C38.4545 24.5448 38.2653 24.6128 38.0525 24.6128C37.8397 24.6128 37.6476 24.5448 37.4762 24.4089C37.3107 24.267 37.2279 24.0631 37.2279 23.7971C37.2279 23.5311 37.3107 23.3301 37.4762 23.1941C37.6476 23.0523 37.8397 22.9813 38.0525 22.9813C38.2653 22.9813 38.4545 23.0523 38.62 23.1941C38.7914 23.3301 38.8771 23.5311 38.8771 23.7971ZM43.8788 21.4119C43.8788 22.4464 43.6808 23.2414 43.2848 23.7971C42.8946 24.3468 42.3538 24.6217 41.6621 24.6217C40.9705 24.6217 40.4267 24.3468 40.0306 23.7971C39.6405 23.2414 39.4454 22.4464 39.4454 21.4119C39.4454 20.8976 39.4957 20.4425 39.5962 20.0464C39.7026 19.6504 39.8533 19.3164 40.0484 19.0445C40.2435 18.7725 40.4769 18.5657 40.7489 18.4238C41.0208 18.2819 41.3252 18.211 41.6621 18.211C42.3538 18.211 42.8946 18.4888 43.2848 19.0445C43.6808 19.5942 43.8788 20.3834 43.8788 21.4119ZM42.5311 21.4119C42.5311 21.1045 42.5163 20.8267 42.4868 20.5784C42.4572 20.3242 42.4099 20.1055 42.3449 19.9223C42.2799 19.739 42.1912 19.5972 42.0789 19.4967C41.9666 19.3962 41.8277 19.3459 41.6621 19.3459C41.4966 19.3459 41.3577 19.3962 41.2454 19.4967C41.139 19.5972 41.0503 19.739 40.9794 19.9223C40.9144 20.1055 40.8671 20.3242 40.8375 20.5784C40.808 20.8267 40.7932 21.1045 40.7932 21.4119C40.7932 21.7193 40.808 22.0001 40.8375 22.2543C40.8671 22.5084 40.9144 22.7271 40.9794 22.9104C41.0503 23.0936 41.139 23.2355 41.2454 23.336C41.3577 23.4365 41.4966 23.4867 41.6621 23.4867C41.8277 23.4867 41.9666 23.4365 42.0789 23.336C42.1912 23.2355 42.2799 23.0936 42.3449 22.9104C42.4099 22.7271 42.4572 22.5084 42.4868 22.2543C42.5163 22.0001 42.5311 21.7193 42.5311 21.4119ZM48.9184 21.4119C48.9184 22.4464 48.7204 23.2414 48.3243 23.7971C47.9342 24.3468 47.3933 24.6217 46.7017 24.6217C46.0101 24.6217 45.4662 24.3468 45.0702 23.7971C44.68 23.2414 44.485 22.4464 44.485 21.4119C44.485 20.8976 44.5352 20.4425 44.6357 20.0464C44.7421 19.6504 44.8929 19.3164 45.0879 19.0445C45.283 18.7725 45.5165 18.5657 45.7884 18.4238C46.0603 18.2819 46.3647 18.211 46.7017 18.211C47.3933 18.211 47.9342 18.4888 48.3243 19.0445C48.7204 19.5942 48.9184 20.3834 48.9184 21.4119ZM47.5706 21.4119C47.5706 21.1045 47.5559 20.8267 47.5263 20.5784C47.4967 20.3242 47.4495 20.1055 47.3844 19.9223C47.3194 19.739 47.2307 19.5972 47.1184 19.4967C47.0061 19.3962 46.8672 19.3459 46.7017 19.3459C46.5362 19.3459 46.3973 19.3962 46.2849 19.4967C46.1785 19.5972 46.0899 19.739 46.0189 19.9223C45.9539 20.1055 45.9066 20.3242 45.8771 20.5784C45.8475 20.8267 45.8327 21.1045 45.8327 21.4119C45.8327 21.7193 45.8475 22.0001 45.8771 22.2543C45.9066 22.5084 45.9539 22.7271 46.0189 22.9104C46.0899 23.0936 46.1785 23.2355 46.2849 23.336C46.3973 23.4365 46.5362 23.4867 46.7017 23.4867C46.8672 23.4867 47.0061 23.4365 47.1184 23.336C47.2307 23.2355 47.3194 23.0936 47.3844 22.9104C47.4495 22.7271 47.4967 22.5084 47.5263 22.2543C47.5559 22.0001 47.5706 21.7193 47.5706 21.4119Z" fill="black"/>
</g>
<rect x="4.5" y="4.5" width="254" height="360" rx="20.5" stroke="#8807F7"/>
<rect x="2.5" y="2.5" width="258" height="564" rx="25.5" stroke="#8807F7" stroke-width="5"/>
<defs>
<filter id="filter0_d_1_8101" x="219.189" y="80.5841" width="22.6474" height="22.6475" filterUnits="userSpaceOnUse" color-interpolation-filters="sRGB">
<feFlood flood-opacity="0" result="BackgroundImageFix"/>
<feColorMatrix in="SourceAlpha" type="matrix" values="0 0 0 0 0 0 0 0 0 0 0 0 0 0 0 0 0 0 127 0" result="hardAlpha"/>
<feOffset dy="1.8118"/>
<feGaussianBlur stdDeviation="2.26475"/>
<feComposite in2="hardAlpha" operator="out"/>
<feColorMatrix type="matrix" values="0 0 0 0 0.533333 0 0 0 0 0.027451 0 0 0 0 0.968627 0 0 0 0.07 0"/>
<feBlend mode="normal" in2="BackgroundImageFix" result="effect1_dropShadow_1_8101"/>
<feBlend mode="normal" in="SourceGraphic" in2="effect1_dropShadow_1_8101" result="shape"/>
</filter>
<filter id="filter1_d_1_8101" x="54.2242" y="80.9373" width="23.0463" height="23.0464" filterUnits="userSpaceOnUse" color-interpolation-filters="sRGB">
<feFlood flood-opacity="0" result="BackgroundImageFix"/>
<feColorMatrix in="SourceAlpha" type="matrix" values="0 0 0 0 0 0 0 0 0 0 0 0 0 0 0 0 0 0 127 0" result="hardAlpha"/>
<feOffset dy="2.36449"/>
<feGaussianBlur stdDeviation="2.36449"/>
<feComposite in2="hardAlpha" operator="out"/>
<feColorMatrix type="matrix" values="0 0 0 0 0.412084 0 0 0 0 0 0 0 0 0 0.766667 0 0 0 0.12 0"/>
<feBlend mode="normal" in2="BackgroundImageFix" result="effect1_dropShadow_1_8101"/>
<feBlend mode="normal" in="SourceGraphic" in2="effect1_dropShadow_1_8101" result="shape"/>
</filter>
<filter id="filter2_d_1_8101" x="163.762" y="79.6876" width="23.5341" height="23.5342" filterUnits="userSpaceOnUse" color-interpolation-filters="sRGB">
<feFlood flood-opacity="0" result="BackgroundImageFix"/>
<feColorMatrix in="SourceAlpha" type="matrix" values="0 0 0 0 0 0 0 0 0 0 0 0 0 0 0 0 0 0 127 0" result="hardAlpha"/>
<feOffset dy="1.8118"/>
<feGaussianBlur stdDeviation="2.26475"/>
<feComposite in2="hardAlpha" operator="out"/>
<feColorMatrix type="matrix" values="0 0 0 0 0.533333 0 0 0 0 0.027451 0 0 0 0 0.968627 0 0 0 0.07 0"/>
<feBlend mode="normal" in2="BackgroundImageFix" result="effect1_dropShadow_1_8101"/>
<feBlend mode="normal" in="SourceGraphic" in2="effect1_dropShadow_1_8101" result="shape"/>
</filter>
<filter id="filter3_f_1_8101" x="97.2122" y="74.4276" width="46.1074" height="39.6051" filterUnits="userSpaceOnUse" color-interpolation-filters="sRGB">
<feFlood flood-opacity="0" result="BackgroundImageFix"/>
<feBlend mode="normal" in="SourceGraphic" in2="BackgroundImageFix" result="shape"/>
<feGaussianBlur stdDeviation="8.86682" result="effect1_foregroundBlur_1_8101"/>
</filter>
<filter id="filter4_d_1_8101" x="108.793" y="80.1407" width="23.5341" height="23.5342" filterUnits="userSpaceOnUse" color-interpolation-filters="sRGB">
<feFlood flood-opacity="0" result="BackgroundImageFix"/>
<feColorMatrix in="SourceAlpha" type="matrix" values="0 0 0 0 0 0 0 0 0 0 0 0 0 0 0 0 0 0 127 0" result="hardAlpha"/>
<feOffset dy="1.8118"/>
<feGaussianBlur stdDeviation="2.26475"/>
<feComposite in2="hardAlpha" operator="out"/>
<feColorMatrix type="matrix" values="0 0 0 0 0.533333 0 0 0 0 0.027451 0 0 0 0 0.968627 0 0 0 0.07 0"/>
<feBlend mode="normal" in2="BackgroundImageFix" result="effect1_dropShadow_1_8101"/>
<feBlend mode="normal" in="SourceGraphic" in2="effect1_dropShadow_1_8101" result="shape"/>
</filter>
<clipPath id="clip0_1_8101">
<rect x="5" y="5" width="253" height="359" rx="20" fill="white"/>
</clipPath>
<clipPath id="clip1_1_8101">
<rect width="7.70016" height="7.70016" fill="white" transform="matrix(-1 0 0 1 234.594 86.0194)"/>
</clipPath>
<clipPath id="clip2_1_8101">
<rect width="7.70016" height="7.70016" fill="white" transform="matrix(-1 0 0 1 69.3672 86.2458)"/>
</clipPath>
<clipPath id="clip3_1_8101">
<rect width="10.6402" height="4.13785" fill="white" transform="matrix(-1 0 0 1 125.586 92.1613)"/>
</clipPath>
<clipPath id="clip4_1_8101">
<rect width="7.70016" height="7.70016" fill="white" transform="matrix(-1 0 0 1 124.18 86.4724)"/>
</clipPath>
</defs>
</svg>
