<svg width="105" height="13" viewBox="0 0 105 13" fill="none" xmlns="http://www.w3.org/2000/svg">
<path d="M2.66694 12.4609V8.78679H5.45722C7.9182 8.78679 9.80727 7.52163 9.80727 4.87C9.80727 2.09706 7.90087 0.849237 5.45722 0.849237H0.708552V12.4609H2.66694ZM5.26658 2.58233C6.60106 2.58233 7.77956 3.06759 7.77956 4.87C7.77956 6.5511 6.60106 7.0537 5.26658 7.0537H2.66694V2.58233H5.26658ZM12.9539 12.4609V7.81626C12.9539 6.41245 13.8551 5.30328 14.8257 5.30328C15.3976 5.30328 15.6229 5.68456 15.6229 6.15249C15.6229 6.63776 15.3629 7.19234 15.0856 7.46964H17.0787C17.2346 7.20968 17.4599 6.60309 17.4599 5.78854C17.4599 4.54072 16.6801 3.84748 15.6229 3.84748C14.1151 3.84748 13.2659 5.06064 12.9539 6.41245V4.02079H11.0129V12.4609H12.9539ZM22.2878 12.6342C24.1596 12.6342 25.3034 11.785 25.9446 10.8145L24.7488 9.56668C24.4369 10.2772 23.7783 11.0398 22.3052 11.0398C20.9707 11.0398 20.0868 10.2253 19.9828 8.71746H26.014C26.0486 8.54415 26.0833 8.18021 26.0833 7.86825C26.0833 5.52858 24.6795 3.84748 22.1492 3.84748C19.7748 3.84748 18.1284 5.5979 18.1284 8.24953C18.1284 10.8838 19.7748 12.6342 22.2878 12.6342ZM22.1492 5.40726C23.4317 5.40726 24.1942 6.13516 24.3329 7.46964H20.0001C20.1561 6.1005 20.9533 5.40726 22.1492 5.40726ZM31.1164 12.6342C32.9015 12.6342 34.3053 11.8024 34.3053 10.1386C34.3053 8.92543 33.6121 8.16288 31.723 7.67761L30.7005 7.41765C29.5566 7.12302 29.106 6.89772 29.106 6.29114C29.106 5.71922 29.6086 5.40726 30.3539 5.40726C31.4457 5.40726 32.3469 5.96185 32.9362 6.89772L34.08 5.68456C33.5601 4.73136 32.2949 3.86481 30.4925 3.86481C28.5515 3.86481 27.2863 4.81801 27.2863 6.39512C27.2863 7.93757 28.5168 8.52682 29.8513 8.83878L30.9778 9.11607C31.9136 9.34138 32.5549 9.54935 32.5549 10.1733C32.5549 10.7798 32.0176 11.0745 31.1857 11.0745C29.678 11.0745 28.6381 10.2079 28.1702 9.35871L27.0263 10.5719C27.6676 11.9063 29.314 12.6342 31.1164 12.6342ZM39.1049 12.6342C40.89 12.6342 42.2938 11.8024 42.2938 10.1386C42.2938 8.92543 41.6005 8.16288 39.7115 7.67761L38.6889 7.41765C37.5451 7.12302 37.0945 6.89772 37.0945 6.29114C37.0945 5.71922 37.5971 5.40726 38.3423 5.40726C39.4342 5.40726 40.3354 5.96185 40.9246 6.89772L42.0685 5.68456C41.5485 4.73136 40.2834 3.86481 38.481 3.86481C36.5399 3.86481 35.2748 4.81801 35.2748 6.39512C35.2748 7.93757 36.5052 8.52682 37.8397 8.83878L38.9662 9.11607C39.9021 9.34138 40.5433 9.54935 40.5433 10.1733C40.5433 10.7798 40.0061 11.0745 39.1742 11.0745C37.6664 11.0745 36.6266 10.2079 36.1586 9.35871L35.0148 10.5719C35.656 11.9063 37.3025 12.6342 39.1049 12.6342ZM49.3759 12.4609V7.81626C49.3759 6.41245 50.2771 5.30328 51.2476 5.30328C51.8195 5.30328 52.0448 5.68456 52.0448 6.15249C52.0448 6.63776 51.7849 7.19234 51.5076 7.46964H53.5006C53.6566 7.20968 53.8819 6.60309 53.8819 5.78854C53.8819 4.54072 53.102 3.84748 52.0448 3.84748C50.537 3.84748 49.6878 5.06064 49.3759 6.41245V4.02079H47.4348V12.4609H49.3759ZM58.7098 12.6342C60.5815 12.6342 61.7254 11.785 62.3666 10.8145L61.1708 9.56668C60.8588 10.2772 60.2002 11.0398 58.7271 11.0398C57.3926 11.0398 56.5088 10.2253 56.4048 8.71746H62.4359C62.4706 8.54415 62.5052 8.18021 62.5052 7.86825C62.5052 5.52858 61.1014 3.84748 58.5711 3.84748C56.1968 3.84748 54.5504 5.5979 54.5504 8.24953C54.5504 10.8838 56.1968 12.6342 58.7098 12.6342ZM58.5711 5.40726C59.8536 5.40726 60.6162 6.13516 60.7548 7.46964H56.4221C56.5781 6.1005 57.3753 5.40726 58.5711 5.40726ZM68.3248 12.4609L71.3403 4.02079H69.226L67.8048 8.61348L67.1289 11.1958L66.4357 8.61348L64.9972 4.02079H62.8482L65.8465 12.4609H68.3248ZM74.3906 2.82496V0.849237H72.4495V2.82496H74.3906ZM74.3906 12.4609V4.02079H72.4495V12.4609H74.3906ZM80.1872 12.6342C82.059 12.6342 83.2028 11.785 83.8441 10.8145L82.6482 9.56668C82.3363 10.2772 81.6777 11.0398 80.2046 11.0398C78.8701 11.0398 77.9862 10.2253 77.8822 8.71746H83.9134C83.948 8.54415 83.9827 8.18021 83.9827 7.86825C83.9827 5.52858 82.5789 3.84748 80.0486 3.84748C77.6743 3.84748 76.0278 5.5979 76.0278 8.24953C76.0278 10.8838 77.6743 12.6342 80.1872 12.6342ZM80.0486 5.40726C81.3311 5.40726 82.0936 6.13516 82.2323 7.46964H77.8996C78.0555 6.1005 78.8528 5.40726 80.0486 5.40726ZM89.0397 12.4609L90.2182 8.07622L90.7728 5.45926L91.31 8.07622L92.5058 12.4609H94.9842L97.1505 4.02079H94.9842L94.1003 8.76946L93.7363 11.1438L93.2164 8.76946L91.9166 4.02079H89.6116L88.3291 8.76946L87.7918 11.1438L87.4279 8.76946L86.5613 4.02079H84.395L86.544 12.4609H89.0397ZM101.405 12.6342C103.19 12.6342 104.594 11.8024 104.594 10.1386C104.594 8.92543 103.9 8.16288 102.011 7.67761L100.989 7.41765C99.8449 7.12302 99.3943 6.89772 99.3943 6.29114C99.3943 5.71922 99.8969 5.40726 100.642 5.40726C101.734 5.40726 102.635 5.96185 103.224 6.89772L104.368 5.68456C103.848 4.73136 102.583 3.86481 100.781 3.86481C98.8397 3.86481 97.5746 4.81801 97.5746 6.39512C97.5746 7.93757 98.8051 8.52682 100.14 8.83878L101.266 9.11607C102.202 9.34138 102.843 9.54935 102.843 10.1733C102.843 10.7798 102.306 11.0745 101.474 11.0745C99.9663 11.0745 98.9264 10.2079 98.4585 9.35871L97.3146 10.5719C97.9559 11.9063 99.6023 12.6342 101.405 12.6342Z" fill="#3D0072"/>
</svg>
