<svg width="22" height="22" viewBox="0 0 22 22" fill="none" xmlns="http://www.w3.org/2000/svg">
<rect width="22" height="22" rx="11" fill="white"/>
<path d="M12.2949 16.6176C11.6065 16.6176 10.6324 16.1334 9.86235 13.8176L9.44235 12.5576L8.18235 12.1376C5.87235 11.3676 5.38818 10.3934 5.38818 9.7051C5.38818 9.0226 5.87235 8.0426 8.18235 7.26677L13.1348 5.61594C14.3715 5.20177 15.404 5.32427 16.0398 5.95427C16.6757 6.58427 16.7982 7.6226 16.384 8.85927L14.7332 13.8118C13.9574 16.1334 12.9832 16.6176 12.2949 16.6176ZM8.45652 8.10094C6.83485 8.64344 6.25735 9.2851 6.25735 9.7051C6.25735 10.1251 6.83485 10.7668 8.45652 11.3034L9.92652 11.7934C10.0548 11.8343 10.1599 11.9393 10.2007 12.0676L10.6907 13.5376C11.2274 15.1593 11.8749 15.7368 12.2949 15.7368C12.7149 15.7368 13.3565 15.1593 13.899 13.5376L15.5498 8.5851C15.8473 7.68677 15.7948 6.95177 15.4157 6.5726C15.0365 6.19344 14.3015 6.14677 13.409 6.44427L8.45652 8.10094Z" fill="#8807F7"/>
<path d="M9.89747 12.4001C9.78663 12.4001 9.6758 12.3592 9.5883 12.2717C9.41913 12.1026 9.41913 11.8226 9.5883 11.6534L11.6766 9.55925C11.8458 9.39008 12.1258 9.39008 12.295 9.55925C12.4641 9.72841 12.4641 10.0084 12.295 10.1776L10.2066 12.2717C10.125 12.3592 10.0083 12.4001 9.89747 12.4001Z" fill="#8807F7"/>
</svg>
