<svg width="84" height="42" viewBox="0 0 84 42" fill="none" xmlns="http://www.w3.org/2000/svg">
<path d="M9.78346 29.2137V36.1598H7.23424V29.2137H4.66418V26.991H12.3535V29.2137H9.78346ZM18.2994 33.4092H14.2359C14.2326 33.5605 14.2609 33.7109 14.3192 33.8506C14.3775 33.9903 14.4645 34.1162 14.5744 34.2202C14.6843 34.3243 14.8149 34.4042 14.9576 34.4547C15.1002 34.5052 15.2519 34.5253 15.4029 34.5136C16.0302 34.5102 16.6456 34.3426 17.188 34.0274L18.1118 35.5555C17.2762 36.07 16.3148 36.344 15.3334 36.3474C13.2496 36.3474 12.1174 34.8748 12.1174 32.7632C12.1174 30.3876 13.458 29.1651 15.2639 29.1651C17.0699 29.1651 18.3341 30.4154 18.3341 32.9716C18.3063 33.1383 18.3063 33.2841 18.2994 33.4022V33.4092ZM15.1736 30.8877C14.6318 30.8877 14.3401 31.2559 14.2568 31.9435H16.2225C16.1044 31.2489 15.8752 30.8877 15.1806 30.8877H15.1736ZM22.6893 36.3265C20.675 36.3265 19.4663 35.0415 19.4663 32.7146C19.4663 30.6307 20.536 29.1443 22.7449 29.1443C23.2881 29.1263 23.8252 29.263 24.2938 29.5384C24.7623 29.8139 25.1429 30.2168 25.3914 30.7002L23.766 31.9505C23.4395 31.3531 23.2103 31.0614 22.7032 31.0614C22.1962 31.0614 21.8002 31.6657 21.8002 32.7562C21.8002 33.8468 22.1267 34.4094 22.7727 34.4094C23.2172 34.4094 23.5368 34.1593 23.9674 33.5064L25.4608 34.6734C24.6551 35.8542 23.9118 36.3196 22.6824 36.3196L22.6893 36.3265ZM30.7468 36.1876V32.277C30.7468 31.374 30.4481 31.1447 29.9619 31.1447C29.4757 31.1447 29.1561 31.3809 29.1561 32.2561V36.1946H26.7945V27.5814L29.1561 26.6367V29.7625C29.6451 29.3616 30.2605 29.1474 30.8927 29.1582C32.4 29.1582 33.1154 30.1723 33.1154 31.9783V36.1946L30.7468 36.1876Z" fill="#0A9600"/>
<path d="M38.7733 36.3268C36.0434 36.3268 34.6056 34.3124 34.6056 31.5895C34.6056 28.6374 36.3421 26.8523 38.7733 26.8523C41.0307 26.8523 41.9198 27.8247 42.5519 29.5612L40.2458 30.4642C39.9124 29.6099 39.5998 29.075 38.7594 29.075C37.6966 29.075 37.2312 30.1378 37.2312 31.5965C37.2312 33.0551 37.6758 34.1109 38.7802 34.1109C39.579 34.1109 39.9194 33.6803 40.4195 32.812L42.5728 33.9581C42.2539 34.6933 41.7191 35.3142 41.0393 35.7384C40.3595 36.1627 39.5668 36.3703 38.7663 36.3337L38.7733 36.3268ZM48.4006 31.8812C48.2702 31.7115 48.1046 31.572 47.9151 31.4725C47.7256 31.373 47.5168 31.3157 47.3031 31.3047C46.7265 31.3047 46.3723 31.5826 46.3723 32.4161V36.167H44.0106V29.2904H46.3723V29.7905C46.6984 29.4462 47.1322 29.2235 47.602 29.1591C48.0718 29.0947 48.5495 29.1925 48.9562 29.4362L48.4006 31.8812ZM54.0269 36.1739V35.7155C53.5441 36.1176 52.9325 36.3321 52.3043 36.3198C50.797 36.3198 50.0815 35.3057 50.0815 33.4927V29.3042H52.4432V33.1941C52.4432 34.0832 52.7488 34.3193 53.235 34.3193C53.7213 34.3193 54.02 34.0832 54.02 33.2218V29.3042H56.3955V36.1948L54.0269 36.1739ZM62.0566 36.1739V32.2633C62.0566 31.3603 61.751 31.1311 61.2717 31.1311C60.7924 31.1311 60.4659 31.3672 60.4659 32.2424V36.1809H58.1043V29.3042H60.4659V29.7627C60.9549 29.3618 61.5703 29.1476 62.2025 29.1584C63.7098 29.1584 64.4252 30.1725 64.4252 31.9785V36.1948L62.0566 36.1739ZM69.0374 36.3129C67.0231 36.3129 65.8075 35.0278 65.8075 32.7009C65.8075 30.6171 66.8841 29.1306 69.0861 29.1306C69.63 29.1138 70.1676 29.2509 70.637 29.5262C71.1064 29.8014 71.4886 30.2036 71.7395 30.6865L70.1141 31.916C69.7807 31.3186 69.5584 31.0269 69.0513 31.0269C68.5443 31.0269 68.1483 31.6312 68.1483 32.7217C68.1483 33.8123 68.4748 34.3749 69.1208 34.3749C69.5653 34.3749 69.8849 34.1248 70.3155 33.4719L71.8089 34.6389C71.0101 35.8475 70.2599 36.3059 69.0444 36.3059L69.0374 36.3129ZM77.0949 36.1739V32.2633C77.0949 31.3603 76.7962 31.1311 76.31 31.1311C75.8238 31.1311 75.5112 31.3672 75.5112 32.2424V36.1809H73.1495V27.5677L75.5112 26.623V29.7488C75.9968 29.3468 76.6105 29.1323 77.2408 29.1445C78.755 29.1445 79.4635 30.1586 79.4635 31.9646V36.1809L77.0949 36.1739Z" fill="black"/>
<path d="M24.3634 5.44727V10.9597H29.8682V21.9762H35.3806V10.9597H40.8854V5.44727H24.3634ZM46.3978 16.4638V10.959H40.8847V21.9755H57.4144V16.4631L46.3978 16.4638ZM46.3978 5.44727H57.4144V10.9597H46.3978V5.44727Z" fill="#0A9600"/>
</svg>
