<svg width="92" height="46" viewBox="0 0 92 46" fill="none" xmlns="http://www.w3.org/2000/svg">
<path d="M25.0576 23.6187L26.3784 22.9352V12.5463H25.3781L22.9366 15.7842H22.6616L22.8154 12.1424H33.399L33.5528 15.7872H33.2596L30.8696 12.5493H29.8413V22.9086L31.1697 23.6103V23.9627H25.0561V23.6187M34.5849 23.161V11.6431L33.5566 11.2316V11.0194L37.2696 10.3359H37.6758V15.7918L37.7629 15.7046C38.651 14.9499 39.7763 14.5316 40.9417 14.5248C42.5656 14.5248 43.2907 15.4417 43.2907 17.1512V23.1466L44.1591 23.6194V23.9483H39.3095V23.6194L40.1809 23.1443V17.1307C40.1809 16.1911 39.7694 15.8153 39.0011 15.8153C38.5373 15.8054 38.0842 15.9547 37.7159 16.2396V23.1625L38.5722 23.6353V23.949H33.7203V23.6353L34.5993 23.1473M46.7954 19.6116C46.8954 21.506 47.7486 22.9859 49.7688 22.9859C50.7463 22.9859 51.4389 22.5336 52.0815 22.1903V22.5654C51.6496 23.092 51.1048 23.5146 50.4873 23.802C49.8699 24.0894 49.1957 24.2342 48.5147 24.2256C45.3852 24.2256 43.7863 22.4858 43.7863 19.4745C43.7863 16.5298 45.5367 14.6946 48.3632 14.6946C51.0153 14.6946 52.402 16.0229 52.402 19.526V19.6169L46.7946 19.6147M46.7431 19.1752L49.5028 19.0085C49.5028 16.6594 49.0997 15.0871 48.2904 15.0871C47.4266 15.0893 46.7431 16.9057 46.7431 19.179V19.1767M7.83984 28.5706C7.83984 23.5694 11.155 21.7788 14.8476 21.7788C16.4161 21.7788 17.8938 22.0365 18.7197 22.3721L18.7917 25.8669H18.4393L16.2722 22.4851C15.8365 22.3108 15.3682 22.235 14.9006 22.2638C12.938 22.2638 11.9325 24.5333 11.9658 28.2516C12.0014 32.6996 12.7751 34.7228 14.5771 34.7228C14.9461 34.735 15.3136 34.6736 15.6591 34.5432V29.7785L14.4695 29.1025V28.6964H20.2155V29.123L19.044 29.7785V34.4811C17.6498 34.9752 16.1797 35.2237 14.7021 35.2184C10.5056 35.2184 7.8406 33.2732 7.8406 28.5706M19.6821 26.2344V25.9442L23.5368 25.2622L23.9611 25.2978V32.9148C23.9611 33.8317 24.4029 34.1151 25.1432 34.1151C25.3835 34.1187 25.6214 34.0673 25.8387 33.9649C26.0561 33.8624 26.2472 33.7117 26.3973 33.5241V26.6906L25.3387 26.2306V25.9328L29.1934 25.2509L29.5814 25.2865V34.0234L30.6218 34.4606V34.738L26.8406 35.1926L26.4526 35.157V34.0083H26.3465C25.5706 34.766 24.5279 35.2017 23.4504 35.226C21.5977 35.226 20.7497 34.131 20.7497 32.4708V26.6815L19.6813 26.2238M43.9068 25.2372L44.2251 25.2728V28.0993H44.3122C44.7259 26.0435 45.636 25.2728 46.7484 25.2728C46.91 25.2653 47.0714 25.2898 47.2235 25.3448V28.2076C46.9626 28.1524 46.6959 28.129 46.4294 28.1379C45.7065 28.119 44.9881 28.2622 44.3274 28.557V34.131L45.2064 34.619V35.0017H40.1961V34.6213L41.1054 34.1303V26.533L40.0468 26.217V25.9594L43.9144 25.2471M53.6099 25.4835V22.5101L52.5513 22.1403V21.9054L56.4522 21.1885L56.822 21.2416V34.0113L57.898 34.4015V34.7304L54.0433 35.2442L53.7425 35.2086V34.1613H53.6553C53.3261 34.5105 52.9273 34.7867 52.4847 34.9721C52.0421 35.1576 51.5656 35.2482 51.0858 35.2381C48.9838 35.2381 47.4486 33.6317 47.4486 30.3551C47.4486 26.8937 49.2323 25.1925 51.933 25.1925C52.5064 25.1633 53.079 25.2636 53.6084 25.4858M53.6084 33.6658V26.02C53.4621 25.8959 53.2923 25.8025 53.1091 25.7456C52.9259 25.6887 52.733 25.6694 52.5422 25.6889C51.4988 25.7245 50.8539 27.2998 50.8539 30.1088C50.8539 32.6322 51.3086 34.0462 52.7066 33.9961C53.0373 33.9981 53.3575 33.8805 53.6084 33.665M62.1255 25.2486L62.459 25.2842V34.15L63.3402 34.638V35.0206H58.3292V34.6402L59.2286 34.1492V26.6747L58.1526 26.2503V25.9472L62.1255 25.2403M62.4779 22.8457C62.4476 23.7641 61.6853 24.4886 60.7654 24.4696C60.4681 24.4815 60.1732 24.4129 59.9117 24.2711C59.6502 24.1292 59.4318 23.9194 59.2797 23.6637C59.1276 23.4081 59.0473 23.1161 59.0474 22.8186C59.0475 22.5211 59.1279 22.2291 59.2802 21.9736C59.4322 21.7179 59.6505 21.5081 59.9119 21.3661C60.1733 21.2242 60.4682 21.1555 60.7654 21.1673C60.9873 21.1644 61.2076 21.2052 61.4137 21.2875C61.6199 21.3697 61.8078 21.4918 61.9667 21.6467C62.1257 21.8015 62.2526 21.9862 62.3401 22.1901C62.4277 22.3941 62.4743 22.6132 62.4771 22.8351V22.8457M73.7298 34.1348V26.5913L72.6712 26.2216V25.8563L76.526 25.1395L76.9139 25.1751V26.3057H77.02C77.9356 25.523 79.0996 25.0914 80.3041 25.088C81.9826 25.088 82.7214 25.8821 82.7214 27.6567V34.125L83.6208 34.6387V35.0115H78.6022V34.6311L79.5017 34.1401V27.8189C79.5017 26.8475 79.0773 26.4595 78.284 26.4595C77.8077 26.4462 77.3411 26.5947 76.9602 26.8808V34.1401L77.8445 34.6281V35.0146H72.8251V34.6342L73.7245 34.1431M68.2717 29.3996V28.1326C68.2717 26.2261 67.8549 25.6017 66.6759 25.6017C66.5425 25.6047 66.4091 25.6169 66.2773 25.6373L64.1783 28.4819H63.8752V25.8601C65.0096 25.4706 66.1992 25.2645 67.3988 25.2486C69.9676 25.2486 71.4566 25.9609 71.4566 28.1114V34.2795L72.3765 34.522V34.7645C71.7921 35.0646 71.1419 35.2139 70.4851 35.1987C69.2182 35.1987 68.6119 34.7819 68.3331 34.0886H68.2422C67.7042 34.816 66.9418 35.2328 65.7446 35.2328C64.2185 35.2328 63.1758 34.2795 63.1758 32.6322C63.1758 31.0363 64.1654 30.1695 66.1765 29.7876L68.2634 29.4011M68.2634 33.6673V29.8512L67.6208 29.9027C66.613 29.9899 66.2508 30.6325 66.2508 32.0548C66.2508 33.5968 66.7645 33.9977 67.4632 33.9977C67.6131 34.0115 67.7641 33.9888 67.9033 33.9315C68.0426 33.8742 68.1658 33.7841 68.2626 33.6688M35.7261 29.4026V28.1356C35.7261 26.2291 35.3093 25.6047 34.1302 25.6047C33.9967 25.608 33.8636 25.6199 33.7316 25.6404L31.6334 28.4782H31.3402V25.8593C32.4738 25.4702 33.6622 25.2638 34.8607 25.2478C37.4295 25.2478 38.9185 25.9601 38.9185 28.1106V34.2788L39.8384 34.5213V34.7637C39.254 35.0639 38.6038 35.2131 37.947 35.1979C36.6801 35.1979 36.0739 34.7812 35.795 34.0878H35.7079C35.1699 34.8153 34.4076 35.232 33.2103 35.232C31.6842 35.232 30.6415 34.2788 30.6415 32.6314C30.6415 31.0356 31.6311 30.1687 33.6422 29.7868L35.7261 29.4003M35.7261 33.6665V29.8505L35.0835 29.902C34.0757 29.9891 33.7135 30.6317 33.7135 32.054C33.7135 33.596 34.2272 33.9969 34.9259 33.9969C35.0758 34.0107 35.2268 33.988 35.366 33.9307C35.5052 33.8735 35.6285 33.7833 35.7253 33.668" fill="#121212"/>
</svg>
